<?xml version="1.0" encoding="UTF-8"?>
<!-- Created with Inkscape (http://www.inkscape.org/) -->
<svg width="142.61mm" height="142.55mm" version="1.1" viewBox="0 0 142.61 142.55" xmlns="http://www.w3.org/2000/svg" xmlns:cc="http://creativecommons.org/ns#" xmlns:dc="http://purl.org/dc/elements/1.1/" xmlns:rdf="http://www.w3.org/1999/02/22-rdf-syntax-ns#">
 <metadata>
  <rdf:RDF>
   <cc:Work rdf:about="">
    <dc:format>image/svg+xml</dc:format>
    <dc:type rdf:resource="http://purl.org/dc/dcmitype/StillImage"/>
    <dc:title/>
   </cc:Work>
  </rdf:RDF>
 </metadata>
 <g transform="translate(59.21 -82.849)">
  <g transform="translate(-247.8 38.906)">
   <path transform="matrix(11.841 .92467 -.90089 12.58 -295.74 -1536.5)" d="m59.952 132.11c-0.99558 0.67152-4.9104 0.94524-5.9898 0.4188-1.0793-0.52644-3.2738-3.7799-3.3576-4.9779-0.08376-1.198 1.6366-4.7252 2.6322-5.3967 0.99558-0.67151 4.9104-0.94523 5.9898-0.41879 1.0793 0.52643 3.2738 3.7799 3.3576 4.9779s-1.6366 4.7252-2.6322 5.3967z" fill="#3b83e5"/>
   <g transform="matrix(.18656 .035149 -.035149 .18656 401.61 -79.775)" fill="#fff" fill-rule="evenodd">
    <g transform="matrix(-5.0295 2.825 2.825 5.0295 -6638 46.545)">
     <path d="m-846.33 630.72c-7.5362 7.2804-19.486 30.961-1.3567 51.615 21.034 23.964 49.654-18.712 70.543 17.944 0 0-2.3657-1.5172-9.1147-1.5172-7.1268 0-20.904 24.883-55.939 24.883-27.849 0-36.294-34.162-33.369-56.189 5.2934-39.867 29.237-36.735 29.237-36.735z"/>
     <path d="m-861.14 655.62-3.9313-0.55264-2.4468 3.1263 0.55264-3.9313-3.1263-2.4468 3.9313 0.55264 2.4468-3.1263-0.55264 3.9313z"/>
     <path transform="matrix(1.2811 .25815 -.25815 1.2811 400.76 16.762)" d="m-839.73 696.94-2.6653-0.37467-1.6589 2.1195 0.37468-2.6653-2.1195-1.6589 2.6653 0.37467 1.6589-2.1195-0.37467 2.6653z"/>
     <path transform="matrix(1.2222 .56902 -.56902 1.2222 607.99 330.64)" d="m-839.73 696.94-2.6653-0.37467-1.6589 2.1195 0.37468-2.6653-2.1195-1.6589 2.6653 0.37467 1.6589-2.1195-0.37467 2.6653z"/>
     <path transform="matrix(.45717 .87407 -.87407 .45717 199.17 1113.3)" d="m-839.73 696.94-2.6653-0.37467-1.6589 2.1195 0.37468-2.6653-2.1195-1.6589 2.6653 0.37467 1.6589-2.1195-0.37467 2.6653z"/>
     <path transform="matrix(-.48496 1.5816 -1.5816 -.48496 -148.56 2382.3)" d="m-839.73 696.94-2.6653-0.37467-1.6589 2.1195 0.37468-2.6653-2.1195-1.6589 2.6653 0.37467 1.6589-2.1195-0.37467 2.6653z"/>
    </g>
    <g transform="matrix(-2.9568 0 0 2.9568 -1058.4 -1273.4)">
     <path d="m-145.81 807.72v125.38" stroke="#fff" stroke-linecap="square" stroke-width="8.9776"/>
     <rect x="-153.39" y="792.98" width="15.173" height="21.545"/>
     <path d="m-116.96 814.46-28.711-20.161-28.544 20.395 10.302-33.535-28.218-20.845 35.077-0.56547 11.105-33.278 11.377 33.186 35.081 0.27788-28.046 21.075z"/>
     <path d="m-137.29 786.57-8.4839-9.2095-8.4082 9.2787 6.1371-10.915-11.423-5.1293 12.277 2.4639 1.3484-12.449 1.4504 12.437 12.256-2.5645-11.38 5.2228z"/>
    </g>
   </g>
  </g>
 </g>
</svg>
