<?xml version="1.0" encoding="UTF-8"?>
<svg width="132.29mm" height="132.29mm" version="1.1" viewBox="0 0 132.29 132.29" xmlns="http://www.w3.org/2000/svg" xmlns:xlink="http://www.w3.org/1999/xlink">
<defs>
<radialGradient id="a" cx="-100.36" cy="230.86" r="66.145" gradientUnits="userSpaceOnUse">
<stop stop-color="#9a91d9" offset="0"/>
<stop stop-color="#655791" offset=".5"/>
<stop stop-color="#311e49" offset="1"/>
</radialGradient>
</defs>
<g transform="translate(166.51 -164.71)">
<rect x="-166.51" y="164.71" width="132.29" height="132.29" fill="url(#a)"/>
<g stroke-width=".87252">
<path d="m-155.64 184.53c-1.7913 9.3307 0.16195 17.884 3.6776 26.115-3.2138-3.051-0.81192 1.6974 1.1092 3.9978-0.31322-0.13178-0.96771-0.42744-1.0258-0.23357-0.2293 0.76463 0.76575 4.0209 4.2253 6.3579-5.5351-0.70107 3.1217 5.0255 5.7125 5.6958-1.0243 2.8516-2.4967 5.0397-3.9468 7.2605 1.2545 1.028 3.3735 1.3853 5.1568 1.2962 0.12708 7.709 1.3047 11.664 4.493 7.2141 1.0393 3.1441 2.489 5.5695 3.2026 0.62639l1.7544 1.8144-2.6976 8.2431c18.401-9.5995 46.088-10.872 55.097-28.893 0.50472 0.47662 0.71058 1.3037 0.80869 2.2731 0.77549-1.4047 1.4336-2.6991 1.2821-4.2586 1.317 0.74607 2.6636 0.58639 2.6636 0.58639s-2.5437-5.1356-3.2741-8.1992l0.43455-2.1494c2.361-1.2449 6.5799-4.4973 7.1077-5.4167 0 0-3.2448 0.11793-1.6458-1.2748 1.544-1.3449 2.6556-3.3939 1.7963-5.3306-0.11748-0.2648-1.4492 0.60091-1.9341 1.1051 3.1426-10.206 3.9859-23.052-4.3636-28.041l-10.455 7.6355c-0.02727-0.96335-0.05288-2.0659 0.65912-2.9328-2.4885 0.3156-4.133 2.2868-5.7991 4.2153l-0.49864-3.197c-2.8996 1.1315-4.4289 4.0776-5.9828 6.8763l-5.416 0.0543 2.3575-1.2811c-1.3664-0.5188-2.8849-0.54452-4.1539-0.28383 5.1295-4.1391-2.8498-2.4949-7.054-0.97461l1.9493-3.265c-2.4616-1.476-5.022 0.95026-7.6388 2.7655-0.0563-2.3372-0.46248-4.4027-2.0553-5.2691-3.0331 2.2034-5.2588 5.3196-6.7896 8.4612l-3.6062-4.2032c-1.1709 0.88552-1.0325 2.3248-1.2267 3.6465-1.5282-0.84407-3.154-1.6874-4.9879-1.5363 0.48114 1.1589 0.94878 2.0399 1.6825 3.1528-6.9598 0.12999-13.807-3.7849-20.619-2.6518z" fill="#9a91d9"/>
<path d="m-98.114 214.62 0.44346-3.5136c3.8968-2.771 7.5575-1.3929 11.138 1.3986 0.67541 6.4324-1.9742 6.9008-4.0253 8.4428z" fill="#d9d9d9"/>
<path d="m-98.193 214.07c2.1446-2.1265 8.8116-2.5191 7.9359 6.5248-2.3087 0.94022-4.6186 1.8623-7.1157 0.28945z" fill="#d3ac2e"/>
<path d="m-110.25 215.8c-2.2378-7.5732-9.5105-4.2587-14.328 1.2792 0.49753 4.3029 2.2625 7.5297 7.5559 7.7606z" fill="#d9d9d9"/>
<path d="m-110.39 215.44c-6.9927-2.4902-9.8377 3.7813-6.8225 9.2444l2.729-0.34965 4.1788-4.6478z" fill="#d3ac2e"/>
</g>
<g transform="matrix(.87252 0 0 .87252 -12.803 29.435)" fill="#5f5587">
<path d="m-144.41 207.2c-2.8754-0.22976-6.4934-1.7043-7.788-4.8032-2.894-6.9274-0.71002-13.602-8.9178-16.662 0.30046 0.73527 0.95194 1.6633 1.6982 2.5473l-1.9747-1.2638c2.2546 4.0311 2.2237 8.529 3.6334 12.282-3.7715-3.1527 1.508 7.6261 4.68 8.1752l-1.8759 0.43442c2.2324 1.8076 4.7411 3.1748 10.545-0.71088z"/>
<path d="m-142.21 209.94c-1.4172 0.29967-2.3015 1.3944-2.9476 2.4608-0.55821 0.92124-1.1775 2.1832-0.94736 3.3631-1.5635-0.69031-3.0492-0.0823-2.5502 1.6835 0.34 1.2031 1.1705 2.1699 1.8462 3.1584-2.6966 0.89767-0.62338 4.9457 1.359 4.5929-2.1127-1.834-2.4186-3.6255 0.34597-4.2975-1.8113-1.1369-3.198-3.3594-2.7377-4.14 0.21349-0.36209 0.95628-0.28411 2.1717-0.39813 0.25333-1.9323 1.7565-4.7014 3.4179-5.304-0.56313 2.2934-1.798 5.2291-0.86209 6.4004 0.62686-2.2039 1.2006-4.3027 1.8882-6.3784 0.28638-0.86443-0.20407-1.3059-0.984-1.141z" color="#000000"/>
<path d="m-147.14 224.1c-1.7966 3.3465-3.4475 6.7983-5.3897 10.039 2.1663-1.4096 3.7631-4.9969 6.2136-9.2994z"/>
<path d="m-138.15 243.57c0.33149 1.6308 1.0808 2.6438 2.0158 3.3826-1.5395 2.4678-2.0936 5.117-2.6576 7.7645l0.87873-0.1876c0.47111-2.4045 1.2706-4.8984 2.2215-7.3557 0.88929 0.88336 1.9216 1.4487 2.9423 1.5698 0.0123-0.41468 0.0139-0.8886-0.11848-1.3329 1.4864 2.1701 3.9634 2.2434 5.9635 2.4585-2.5697-0.97808-5.3026-1.6808-6.783-5.4896-0.0861 1.0827-0.0652 2.5786 0.28633 3.584-1.7867-1.2517-3.5316-2.547-4.7491-4.3937z"/>
<path d="m-80.413 229.12c1.9648-2.1305 3.7335-4.3695 4.9569-6.7965-0.70951 2.2995-1.7013 4.5504-3.6304 6.5173z"/>
<path d="m-70.286 221.42-3.3687-9.3996 0.11848-2.0537c4.1858-1.7072 7.0995-3.9968 8.1419-6.6155-2.598 2.299-5.2902 4.4584-8.2406 5.5886-0.37215-1.0883-1.5861-4.287-3.6729-3.9296 1.0303 0.81755 2.5263 2.9452 2.8515 5.4014-1.1856-1.1818-1.9063-1.3096-2.7688-1.4 3.6962 3.465 4.0608 9.5204 6.9391 12.408z"/>
<path d="m-72.44 164.91c-4.007 2.4978-7.9485 5.5186-11.882 8.6034 0.08217-0.95597-0.04037-1.7528 0.67022-3.1975-2.4531 1.1633 0.08108 3.8167-3.5466 8.0846 1.5213-0.87598 2.8867-2.4649 2.9602-4.5659 4.4059-2.5608 8.2854-5.5823 11.798-8.9245z"/>
<path d="m-90.884 171.46c1.2564 2.9906 1.2456 5.9224-0.44402 8.4659 0.92553-2.3467 0.63362-7.3546-0.0941-8.2252 0.16087-0.0983 0.3485-0.17396 0.53817-0.24068z"/>
<path d="m-93.461 196.53c-1.0987-2.6508-2.7212-3.8915-4.996-4.6701 3.0728-1.2894 7.9313-0.62704 9.7383 2.4037-2.0606-1.2653-4.6514-1.692-5.71-1.6335 1.7154 1.3048 1.6322 2.7872 0.9676 3.9z"/>
<path d="m-94.132 186.98c3.8474 0.90636 6.957 6.3517 5.5686 6.7435-0.25016 0.0707-3.0509-4.7623-5.5686-6.7435z"/>
<path d="m-94.33 199.67c-4.2737 0.71617-1.839 2.505 0.0987 2.1307 3.4685-0.67008 7.8998 1.0771 12.875 3.6235-0.48514-3.5254-10.118-6.2328-12.974-5.7542z"/>
<path d="m-82.912 195.24c-1.5051-2.0007-1.272-5.458-0.44639-5.7516 0.80078-0.28475 2.9121 1.5096 3.2111 5.235-0.889-1.1957-2.423-4.0386-2.7097-3.8843-0.28675 0.15431-0.15094 2.8768-0.055 4.4009z"/>
<path d="m-80.971 192.07 0.4646 0.96358c2.0252-7.2317 1.8854 2.7357 1.5945 4.7136-0.15376 1.0453 0.97644 0.73024 1.1498 0.1924 1.2899-4.0027-1.115-13.194-3.2088-5.8696z"/>
<path d="m-77.648 205.74c0.05433-2.848 2.2482-8.7365-0.20944-8.0148l0.08378-0.6842c3.4952-0.673 1.8143 5.0127 0.12567 8.699z"/>
<path d="m-76.044 200.11c5.8119-11.379 1.103-20.315 6.8127-26.856 0.37182 1.5901-0.30078 3.1205-0.80962 4.6602 0.64642-0.46294 1.3842-0.68531 2.0833-0.46406-1.8812 3.94-1.5557 6.6592-1.2342 9.3699 3.9844-4.6253 1.971 5.0236-2.7448 11.769 0.54472-0.0853 1.1136-0.48264 1.6785-0.82936-0.02809 3.7286-2.3307 5.6559-6.2795 6.2795-0.24158 1.5499-0.6353 1.3411-1.017 1.3033z"/>
<path d="m-109.89 180.09c1.9526-1.5206 3.955-2.7091 5.7895-4.7256-0.2559 1.954-4.3082 4.2783-5.7895 4.7256z"/>
<path d="m-106.33 181.12c0.99358-1.7113 2.6873-2.8576 5.0814-3.1867-1.7426 0.98065-3.4679 2.0955-5.0814 3.1867z"/>
<path d="m-104.78 179.98c5.2272-0.41999 12.063 0.26211 17.859 5.5429-2.4534-0.51397-3.8213-0.314-4.6721 0.27644 1.7826-0.11521 4.0368 0.0229 5.93 0.55984-2.0789-3.9182-10.285-8.692-17.693-7.3468z"/>
<path d="m-111.8 172.78-0.44357-0.22595c-1.1208 2.4384-2.7374 4.2811-4.4784 5.97 2.3821-0.48331 3.7744-3.1204 4.922-5.744z"/>
<path d="m-122.96 169.89c4.4113 2.1728 2.2801 8.8656 0.50826 10.116 1.1734-3.4149 2.2277-7.3665-0.50826-10.116z"/>
<path d="m-134.88 174.76c1.8174 4.0377 4.3789 4.5842 5.1946 10.169 1.662-4.7701-2.3764-6.827-5.1946-10.169z"/>
<path d="m-135.56 186.25c1.49-2.2172 0.64445-5.1598-0.33954-6.6989-1.674-2.6182-5.0688-3.2946-6.1045-2.3682 2.0712 0.2714 4.3827 1.1629 5.2687 2.8336 0.73896 1.3934 1.2148 3.5367 1.1754 6.2335z"/>
<path d="m-135.31 185.29c5.4047-5.874 3.7759 4.1154 2.2531 6.7455l-0.65504 0.12671c0.48849-2.4657 0.80515-4.5352 1.1265-7.1575 0.17144-1.3992-1.1284-0.48858-2.6602 0.53537z"/>
<path d="m-134.73 192.67c1.3582-1.1221 2.9247-2.1739 5.5153 0.55291 0.27282 0.28716-2.1264 3.8221-3.4142 3.8427l-0.23499-0.92613c0.84915-0.71678 2.6214-2.0371 2.3775-2.3222-1.4889-1.7405-2.8219-1.4026-4.2436-1.1473z"/>
<path d="m-134.69 196.67c-0.79234 2.3566 1.1424 4.0592 1.4514 3.6768 1.9358-2.3954 0.6082-3.276 0.19352-4.6997 0.0111 1.3059 0.20977 2.9028-0.52527 3.4695-0.25171 0.19408-0.64936-1.6409-1.1196-2.4466z"/>
<path d="m-117.3 203.81c1.1305 0.0434 2.2835-1.8959-0.8034-2.2505-6.5014-0.74674-12.919 2.7802-15.259 8.5536 2.8722-3.9314 7.3194-6.6388 16.062-6.3032z"/>
<path d="m-99.748 228.97c-0.0756 4.6118-6.4595 5.6202-10.395 8.1831-0.0184-2.6373 6.8874-2.6385 10.395-8.1831z"/>
<path d="m-104.07 234.06c4.4641-2.4417 5.2162-0.16685 7.5261-3.1571-1.6238 1.1414-3.2659 0.19871-5.0923 1.212z"/>
<path d="m-107.24 227.53a0.77216 0.66464 17.55 0 1-0.93663 0.40087 0.77216 0.66464 17.55 0 1-0.53581-0.86653 0.77216 0.66464 17.55 0 1 0.93663-0.40088 0.77216 0.66464 17.55 0 1 0.53581 0.86654z"/>
<path d="m-106.54 222.98a0.60916 0.95756 32.749 0 1-0.20965 1.2066 0.60916 0.95756 32.749 0 1-1.0088 0.2416 0.60916 0.95756 32.749 0 1 0.20964-1.2066 0.60916 0.95756 32.749 0 1 1.0088-0.24161z"/>
<path d="m-102.84 219.92c0.10983 0.62906-0.4706 1.4621 0.0587 2.1894 1.555 2.1368 3.1669 3.8885 4.8382 2.9909 1.6118-0.86559 1.8303-2.8516 2.4631-3.9976-2.329-1.5578-4.7452-2.2999-7.36-1.1827z"/>
</g>
<g stroke-width=".87252">
<path d="m-114.84 224.31c1.4244-0.28541 2.6989-0.99511 3.9959-1.8088l0.70629-4.3451c-5.7497-3.1833-7.764 3.5289-4.7022 6.1539z" fill="#66400a"/>
<path d="m-113.94 219.29a1.773 2.0019 30.163 0 1-1.8335 2.1406 1.773 2.0019 30.163 0 1-1.8335-1.7313 1.773 2.0019 30.163 0 1 1.8335-2.1406 1.773 2.0019 30.163 0 1 1.8335 1.7312z" fill="#fff"/>
<path d="m-113.75 221.68a0.38511 0.43481 30.163 0 1-0.39823 0.46493 0.38511 0.43481 30.163 0 1-0.39825-0.37602 0.38511 0.43481 30.163 0 1 0.39825-0.46493 0.38511 0.43481 30.163 0 1 0.39823 0.37602z" fill="#fff"/>
</g>
<g transform="matrix(.87252 0 0 .87252 -12.803 29.435)">
<path d="m-114.83 222.64c-4.3354 3.392-15.543 1.501-14.182-6.407l1.5248-1.6616c-0.30574 6.6905 5.3545 11.159 12.658 8.0686z"/>
<path d="m-112.38 221.29c2.5081-5.7914 1.4853-11.131-2.5217-16.088 2.4816 5.2158 3.5302 10.56 2.5217 16.088z"/>
<path d="m-112.37 212.72c-0.92439-3.167-4.9279-3.1301-6.1149-3.2346-3.5313-0.31084-8.5695 4.369-11.821 8.8323 2.5856-7.3481 7.6176-11.572 16.968-10.282z"/>
</g>
<g stroke-width=".87252">
<path d="m-97.265 221.45c1.4765 0.80131 3.3273 0.57975 5.2826 0.0723 1.3041-6.4398-3.9275-7.028-6.0786-4.8002z" fill="#66400a"/>
<path d="m-90.83 215.68a1.4467 1.9869 48.875 0 1-1.7735 2.1389 1.4467 1.9869 48.875 0 1-1.7735-1.1027 1.4467 1.9869 48.875 0 1 1.7735-2.1388 1.4467 1.9869 48.875 0 1 1.7735 1.1026z" fill="#fff"/>
<path d="m-92.669 219.18a0.45706 0.54779 46.501 0 1-0.50683 0.58382 0.45706 0.54779 46.501 0 1-0.50683-0.40418 0.45706 0.54779 46.501 0 1 0.50683-0.58381 0.45706 0.54779 46.501 0 1 0.50683 0.40417z" fill="#fff"/>
</g>
<g transform="matrix(.87252 0 0 .87252 -12.803 29.435)">
<path d="m-96.748 220.2c-2.4263-2.3438-2.5571-10.452 0.52526-14.555-1.3663 3.8917-1.628 8.6736-0.52526 14.555z"/>
<path d="m-81.778 212.39c-4.6285-6.1405-9.6281-8.7827-14.956-5.6812l-0.7879 3.5663c2.3601-3.112 5.4286-3.9062 7.8047-3.1558 3.2282 1.0196 5.9564 4.0736 7.9394 5.2707z"/>
<path d="m-85.15 209.41c1.9456 8.3624-3.3798 9.5557-8.2608 11.234 5.242-0.29737 10.911-3.5947 10.362-9.5481z"/>
</g>
<path d="m-104.32 222.23c5.0247-2.4539 8.3148-0.4375 9.7207 2.8463 0.2256 0.52687-0.42813 3.7553-1.3749 5.6082 1.6626-1.1468 2.2207-5.2889 1.99-5.8132-2.7295-6.2032-8.7339-4.675-10.336-2.6413z" fill="#5f5587" stroke-width=".87252"/>
<path d="m-152.73 259.92 1.2816 10.681 16.167 16.575 83.149-40.526-13.952-24.458z" fill="#6cc365" stroke="#3e733a" stroke-width=".96483"/>
<g transform="matrix(.87252 0 0 .87252 -12.803 29.435)" fill="#4e7358">
<path d="m-143.59 264.44c-2.0737-0.0463-4.3602 0.77684-6.1239 2.2186-0.88484 0.7233-1.2764 1.4372 0.82935 3.6768 3.3385 3.5506 6.8351 7.9132 9.5654 11.943 0.97753 1.4428 2.8785 1.7423 3.8427 0.13824 5.4624-9.0868 2.2537-12.902-2.6816-11.418 0.17512-4.5665-2.4011-6.4913-5.4319-6.5589zm1.1192 7.72c-0.0546 0.13315-0.87014-0.86311-1.7846-1.6967-0.89413-0.81499-1.8902-1.4654-1.7263-1.5378 3.503-1.5479 4.3914 1.087 3.511 3.2345zm5.0781 1.8095c1.2467 0.18402 1.9299 1.654 1.8803 2.5166-0.0632 1.0993-1.2142 1.8859-2.5218 2.4146-0.54923 0.22211-1.9753-1.8178-1.7551-2.124 0.61065-0.84879 1.9672-2.8707 2.3965-2.8073z"/>
<path d="m-131.51 261.08c-2.4249 0.4228-0.45885 12.84 3.3965 15.479l3.8099-6.5559c1.2257 1.157 2.2604 2.5741 3.3831 4.0401l2.4639-2.7231c-3.0238-4.1628-7.6786-11.177-13.053-10.24zm4.4717 4.8544c0.41563 0.0668 0.49452 2.161-0.22115 2.8263-0.85554 0.79529-2.2331 0.44481-2.2238-0.51792 0.0226-2.3299 0.61891-2.6022 2.4449-2.3084z"/>
<path d="m-120.21 254.37c-0.68043 4e-3 -1.3871 0.0666-2.1157 0.19179-2.0853 0.35831-2.859 1.7673-2.2678 2.8345 2.4585 4.4381 6.0408 8.1357 9.3636 11.983 7.3832-7.0879 3.049-15.063-4.9801-15.01zm1.9888 3.9041c0.51983 0.0236 1.1674 0.21979 1.806 0.64103 1.7676 1.1658 1.2945 5.0263-0.0657 3.9352-1.1922-0.95637-1.8345-2.3625-2.6388-3.4989-0.47879-0.67647 0.0321-1.1166 0.89847-1.0773z"/>
<path d="m-103.16 249.33c-0.89281 0.53977 0.45432 3.0738 1.1888 2.571 0.79292-0.54281 1.7373-0.70981 2.6816-1.1335 0.91914-0.41239 2.1858 0.40584 2.8751 1.1749 2.042 2.2782 3.878 4.5778 5.7364 7.0772 0.28485 0.38311 2.6851-1.5165 1.5205-3.2069-1.3815-2.0053-2.6488-3.7458-3.9671-5.6535-0.58772-0.85043-0.40093-1.3668 0.0277-1.9628 0.84416-1.174 2.1356-2.0172 3.3175-2.9442 0.24372-0.19121-0.86769-3.037-1.4652-2.7646-4.3431 1.9802-8.0186 4.4864-11.915 6.8423z"/>
<path d="m-85.984 241.92c-0.45839 4.5539 2.252 8.8574 3.9291 13.234 0.54948 1.4339 4.444-0.73138 4.0855-1.5248-0.60766-1.345-0.73405-2.5127-0.76241-3.6946 0.99123 0.89599 2.6908 2.387 4.4064 1.7292 1.5052-0.57721 2.7931-2.0874 1.8687-3.1365-2.7803-3.1552-5.9012-5.7786-9.2073-8.1714-1.9992-1.4469-4.1342-0.28241-4.32 1.5641zm5.5321 1.5637c1.2364 1.072 3.1276 2.1901 0.01948 3.5188-2.1225 0.90731-3.1695 0.1374-2.8345-1.8181 0.4208-2.4567 0.92377-3.3406 2.8151-1.7006z"/>
<path d="m-66.768 238.67c-0.7499 0.10107-1.1133 3.7818 0.6518 3.9292 0.44929 0.0375 0.94801-0.0447 1.479-0.33232 0.35256-0.19102 0.4148 0.98716-0.17536 1.1524-0.93482 0.2617-3.3208 0.65519-3.9689-2.5012-0.21759-1.0597 0.36117-3.5933 1.1107-3.5774 4.748 0.10098 8.0748-2.6663 4.4197-4.2797-4.3518-1.9209-11.469 1.2531-9.5964 9.7532 1.6289 7.3924 12.457 8.1503 13.41-2.3654-0.03829-1.225 0.17009-3.76-2.1503-2.9909-2.038 0.67553-3.4287 0.97593-5.1803 1.212z"/>
</g>
<path d="m-54.411 249.61c2.525-1.478 4.8757-3.1208 4.0661-7.7533 1.6751-3.4225-1.6659-7.6886-5.0002-8.4784-2.8413-0.67304-7.0377 1.5908-5.7078 5.608-0.95419 1.7-1.4202 3.3759-1.1803 5.0758-5.7367 3.3826-4.5484 7.6401-2.0331 9.6553 3.1557 2.5282 8.925 1.809 9.8551-4.1074z" fill="#9a91d9" stroke-width=".87252"/>
<g transform="matrix(.87252 0 0 .87252 -12.803 29.435)" fill="#5f5587">
<path d="m-58.865 248.56-0.87968-0.17593c5.9123-7.4599 12.933 2.5024 12.047 3.9927-0.99345-2.5825-6.3299-9.4838-11.167-3.8168z"/>
<path d="m-56.193 241.68c1.0636-2.7179 3.8561-3.5294 6.5352-3.1712 3.0295 0.40511 6.088 2.3213 6.6289 4.9543-2.0009-2.9164-4.4244-3.6274-6.6927-3.9955-1.7727-0.28769-4.617-0.0337-5.4485 2.3506z"/>
<path d="m-55.011 236.35c0.34227-0.1454 2.788 1.1077-0.0067 3.4626-0.76108 0.64126-2.2651 0.71191-2.5365 0.2972-0.38553-0.58916 0.09808-2.721 2.5434-3.7598z"/>
<path d="m-55.744 241.57c-0.82279-0.19398-2.9786 1.1022-3.2207 1.9076-0.23758 0.79028 1.7323 1.4591 2.4881 1.1196 2.497-1.1215 2.0441-2.718 0.7326-3.0272z"/>
<path d="m-62.335 249.86c-0.21232 0.51441 0.85427 1.5713 2.1796 1.4661 0.98551-0.0783 2.3163-2.2466 1.5541-2.6488-1.4325-0.7558-3.0921-0.37188-3.7337 1.1827z"/>
</g>
<g stroke-width=".87252">
<path d="m-153.95 258.12c-5.0681 1.3074-4.9137 7.5042-1.9434 9.8228-4.7334 4.3888 3.7965 10.763 7.9898 10.549 2.9428-0.15002 6.3701-4.7422 2.241-9.6884 2.0391-1.729 2.3067-3.9286 1.1296-6.6683 6.2523-5.1736-0.18378-9.2199-4.2647-8.9835-2.2685 0.13109-5.4 3.1108-5.1523 4.9698z" fill="#9a91d9"/>
<path d="m-154.71 258.37c3.8478-1.7595 10.192 1.6396 10.708 5.3159-3.1638-3.8095-6.6767-6.0016-10.708-5.3159z" fill="#5f5587"/>
<path d="m-155.89 267.94c3.6753-1.733 8.0488-1.3522 12.021 4.1644-1.6965-6.2487-8.705-6.9868-12.021-4.1644z" fill="#5f5587"/>
<path d="m-135.74 287.06c-1.1784 0.92277 1.8464 1.3378 4.7678 1.4105 10.776 0.26803 25.372-4.136 43.034-4.3596 4.3729-0.29056 25.378-0.5941 35.799-3.2127 3.1427 0.0298 6.5246 0.27799 8.2357-0.9993-6.1885-2.563-13.138-11.774-19.745-10.608 1.3516-3.0968 2.8955-8.9931 3.0844-11.583-3.9172 0.14486-6.753 1.3325-10.49 1.8255-3.7354 0.49273-8.4748 0.17025-15.75 0.41435-4.6703 0.15669-10.413 4.1868-13.783 6.2026 1.0958-2.3312 1.4671-5.7094 2.0185-9.3569-6.8121-1.4646-17.286 6.5693-21.086 12.761-0.38961-2.5811-1.2708-5.1222-2.4345-7.3846-4.9844 5.6672-4.5465 17.763-13.65 24.89z" fill="#9a91d9"/>
</g>
<g transform="matrix(.87252 0 0 .87252 -12.803 29.435)" fill="#5f5587">
<path d="m-141.07 295.43c3.555-1.1938 5.4728-4.6977 6.975-8.5201-2.1314 3.1675-4.463 5.824-6.975 8.5201z"/>
<path d="m-124.2 281.44c3.1639-4.3743 1.9342-9.2512-1.0525-14.707 2.0923 5.87 2.2759 10.68 1.0525 14.707z"/>
<path d="m-98.296 260.57c-0.47989 13.13-6.3465 15.34-11.316 22.591 4.3189-9.2893 9.5615-10.246 11.316-22.591z"/>
</g>
<path d="m-51.995 280.97c3.1427 0.0298 6.3828 0.20493 8.0939-1.0724-7.2971-0.37986-13.644-11.643-19.74-10.613 2.0992-2.092 4.9367-9.5768 3.0789-11.577-1.0725 1.5943-6.507 2.7094-10.563 2.8627-6.7813 0.25627-8.2577-1.0358-15.677-0.62287-6.1334 2.0555-10.133 5.2458-13.255 8.9032 2.4623-1.2703 4.8085-2.9324 7.7591-2.5542-7.9007 4.947-8.3097 9.0219-9.5044 12.111 1.9017-1.46 3.7595-2.9272 5.2807-4.4506 1.1243 2.9293-1.0033 5.511-2.7215 7.4204 2.3904-1.4274 4.859-2.0715 7.3778-2.214-1.3199 1.3322-3.018 2.6643-4.8498 3.9966 3.4771-0.18576 7.1889-0.27275 10.878 0.84927 16.882-0.14619 42.334 4.6301 42.93 3.2233 0.40081-0.94695-3.6488-3.0377-9.0864-6.2606z" fill="#5b529e" stroke-width=".87252"/>
<g transform="matrix(.87252 0 0 .87252 -12.803 29.435)" fill="#5f5587">
<path d="m-148.96 260.31c1.2823 0.87897 2.7812 1.8372 2.025 4.8241-0.0928 0.36678-1.757-0.38194-2.654-1.2026-0.40924-0.37442-0.17721-4.1741 0.62893-3.6216z"/>
<path d="m-151.35 267.94c-0.64962 0.22386-1.276 2.7266-0.0967 3.3728 0.99944 0.54762 2.8323 0.63531 3.0203 0.31793 0.90322-1.5248-1.5482-4.1646-2.9235-3.6907z"/>
<path d="m-151.17 277.91c-0.9539 0.36335-1.3358 3.0893 0.32484 2.7576 1.443-0.2882 2.8185-1.2769 2.6954-1.7209-0.17159-0.61905-1.7101-1.5358-3.0203-1.0367z"/>
</g>
<g transform="matrix(.87252 0 0 .87252 -12.803 29.435)" fill="#c0bbd4">
<path d="m-114.48 224.98c0.1978-3e-3 -0.20583 0.37898-1.2095 0.4838-5.6642 0.59154-10.81 2.0887-16.104 3.3451 5.2061-1.8222 10.782-3.7294 17.313-3.8289z"/>
<path d="m-114.25 229.43c0.95487-0.37678 0.51233 0.35347-0.63737 0.8235-4.2999 1.7579-7.4843 3.9411-10.113 6.2797 2.1483-3.2652 6.503-5.4274 10.75-7.1032z"/>
<path d="m-91.241 222.39c4.0109-1.9595 8.1698-3.6156 12.91-4.4786-4.2838 1.5519-8.5898 3.0371-12.91 4.4786z"/>
<path d="m-89.749 224.63c5.9782-1.6161 12.721-2.5566 18.702-1.4099-6.5026 0.20325-12.787 0.61334-18.702 1.4099z"/>
</g>
</g>
</svg>
