<?xml version="1.0" encoding="UTF-8"?>
<svg version="1.1" viewBox="0 0 120 120" xml:space="preserve" xmlns="http://www.w3.org/2000/svg"><rect x=".49587" y=".49587" width="119.01" height="119.01" rx="3.9669" ry="3.9669" fill="#ebb597" stroke="#772e00" stroke-width=".99174"/><text x="5.8222656" y="88.90625" fill="#772e00" font-family="sans-serif" font-size="12px" opacity=".98" stroke-width=".4" style="line-height:1.25" xml:space="preserve"><tspan x="5.8222656" y="88.90625">IMAGE SPOILERED</tspan></text><g transform="matrix(1.0768 0 0 1.0121 -8.4681 12.616)" stroke="#772e00" stroke-width=".3"><path d="m35.426 5.4707c-0.50489 0.020052-0.77539 0.35938-0.77539 0.35938l-2.3477 3.0684c-0.43775 0.54969 0.2793 1.332 0.2793 1.332s53.405 41.151 54.57 41.986c1.1651 0.83557 1.6191 0.03125 1.6191 0.03125s1.7588-1.9555 2.3203-2.7559c0.56156-0.80039-0.18555-1.6738-0.18555-1.6738l-10.383-8.2129s6.5916-5.7728 7.7637-9.7617c0.17414-0.59263 0.12912-1.3122-0.18555-1.8438-15.622-26.388-39.881-13.074-39.881-13.074s-10.404-8.0433-11.641-9.0039c-0.46374-0.36024-0.85136-0.4632-1.1543-0.45117z" fill="#772e00"/><path d="m60.361 24.087-6.9456-5.147s7.8727-6.6006 16.609-0.27313c7.9832 5.7819 3.8364 15.777 3.8364 15.777l-3.7587-2.7658s2.0021-4.8302-2.3851-9.2841c-3.0384-3.0846-8.2311-1.888-8.2311-1.888s0.6597 0.49078 0.86338 2.0078c0.12041 0.8968 0.01156 1.5735 0.01156 1.5735z" fill="#ebb597"/><path d="m38.938 22.59-3.5489 5.2891s-0.50249 0.87372 0.04915 2.1058c0.55164 1.2321 4.6564 8.7814 12.039 12.729 11.446 6.1201 21.352 2.8685 21.352 2.8685l-4.6236-3.6215s-5.4799 1.6992-11.477-3.402c-4.1161-3.5013-4.1469-8.6095-4.1469-8.6095z" fill="#772e00"/></g></svg>
