<?xml version="1.0" encoding="UTF-8"?>
<!DOCTYPE svg PUBLIC "-//W3C//DTD SVG 1.1//EN" "http://www.w3.org/Graphics/SVG/1.1/DTD/svg11.dtd">
<svg xmlns="http://www.w3.org/2000/svg" version="1.1" width="3543px" height="3543px" style="shape-rendering:geometricPrecision; text-rendering:geometricPrecision; image-rendering:optimizeQuality; fill-rule:evenodd; clip-rule:evenodd" xmlns:xlink="http://www.w3.org/1999/xlink">
<g><path style="opacity:0.99" fill="#ff0201" d="M 1040.5,851.5 C 1040.43,853.027 1041.09,854.027 1042.5,854.5C 1042.43,856.027 1043.09,857.027 1044.5,857.5C 1044.43,859.027 1045.09,860.027 1046.5,860.5C 1046.43,862.027 1047.09,863.027 1048.5,863.5C 1048.43,865.027 1049.09,866.027 1050.5,866.5C 1050.43,868.027 1051.09,869.027 1052.5,869.5C 1052.43,871.027 1053.09,872.027 1054.5,872.5C 1054.43,874.027 1055.09,875.027 1056.5,875.5C 1056.75,877.674 1057.75,879.341 1059.5,880.5C 1059.43,882.027 1060.09,883.027 1061.5,883.5C 1062.34,883.842 1062.67,884.508 1062.5,885.5C 1062.43,887.027 1063.09,888.027 1064.5,888.5C 1065.34,888.842 1065.67,889.508 1065.5,890.5C 1065.75,892.674 1066.75,894.341 1068.5,895.5C 1069.08,898.331 1070.41,900.664 1072.5,902.5C 1073.08,905.331 1074.41,907.664 1076.5,909.5C 1077.34,909.842 1077.67,910.508 1077.5,911.5C 1079.07,916.32 1081.41,920.653 1084.5,924.5C 1087.67,929.516 1090.34,934.849 1092.5,940.5C 1093.38,944.582 1095.04,948.249 1097.5,951.5C 1098.67,952.514 1099.34,953.847 1099.5,955.5C 1099.4,957.553 1100.07,959.22 1101.5,960.5C 1106.91,970.656 1111.24,981.322 1114.5,992.5C 1014.09,875.551 900.093,774.717 772.5,690C 606.298,583.249 425.298,514.249 229.5,483C 175.13,474.204 120.463,468.037 65.5,464.5C 63.8333,463.833 62.1667,463.167 60.5,462.5C 129.888,452.433 199.555,450.266 269.5,456C 445.653,469.697 610.986,519.03 765.5,604C 856.281,655.083 935.448,720.583 1003,800.5C 1016.13,817.115 1028.63,834.115 1040.5,851.5 Z"/></g>
<g><path style="opacity:1" fill="#ff6a66" d="M 56.5,463.5 C 57.5676,462.566 58.901,462.232 60.5,462.5C 62.1667,463.167 63.8333,463.833 65.5,464.5C 62.3915,464.736 59.3915,464.403 56.5,463.5 Z"/></g>
<g><path style="opacity:0.999" fill="#ffbfbd" d="M 56.5,463.5 C 59.3915,464.403 62.3915,464.736 65.5,464.5C 120.463,468.037 175.13,474.204 229.5,483C 425.298,514.249 606.298,583.249 772.5,690C 900.093,774.717 1014.09,875.551 1114.5,992.5C 1095.61,1070.64 1063.77,1143.31 1019,1210.5C 944.9,1314.78 844.4,1378.28 717.5,1401C 689.375,1406.2 661.042,1409.2 632.5,1410C 510.283,1305.47 401.117,1189.3 305,1061.5C 235.877,968.318 178.21,867.984 132,760.5C 91.7893,665.658 66.2893,566.991 55.5,464.5C 55.6236,463.893 55.9569,463.56 56.5,463.5 Z"/></g>
<g><path style="opacity:0.99" fill="#ff0100" d="M 3471.5,482.5 C 3338.63,504.642 3207.97,536.142 3079.5,577C 2829.62,657.111 2608.95,785.278 2417.5,961.5C 2416.66,961.158 2416.33,960.492 2416.5,959.5C 2417.66,955.849 2419.33,952.515 2421.5,949.5C 2429.31,936.564 2437.14,923.564 2445,910.5C 2454.69,895.993 2464.52,881.66 2474.5,867.5C 2476.26,866.738 2477.26,865.404 2477.5,863.5C 2479.91,862.089 2481.58,860.089 2482.5,857.5C 2484.26,856.738 2485.26,855.404 2485.5,853.5C 2523,805.836 2565.66,763.336 2613.5,726C 2698.37,660.708 2791.37,609.041 2892.5,571C 3064.52,505.774 3242.52,475.107 3426.5,479C 3441.7,479.514 3456.7,480.68 3471.5,482.5 Z"/></g>
<g><path style="opacity:0.999" fill="#ffbfbd" d="M 3471.5,482.5 C 3468.95,519.438 3462.79,556.105 3453,592.5C 3424.03,699.738 3382.37,801.738 3328,898.5C 3257.79,1023.04 3174.79,1138.38 3079,1244.5C 3023.17,1305.67 2964.67,1364.17 2903.5,1420C 2851.17,1423.89 2800.84,1415.56 2752.5,1395C 2699.87,1371.53 2652.87,1339.86 2611.5,1300C 2535.26,1223.74 2475.76,1135.91 2433,1036.5C 2424.73,1017.03 2418.07,997.031 2413,976.5C 2412.19,972.311 2412.35,968.311 2413.5,964.5C 2415.4,964.262 2416.74,963.262 2417.5,961.5C 2608.95,785.278 2829.62,657.111 3079.5,577C 3207.97,536.142 3338.63,504.642 3471.5,482.5 Z"/></g>
<g><path style="opacity:0.999" fill="#fe5451" d="M 2903.5,1861.5 C 2901.48,1867.21 2898.64,1872.55 2895,1877.5C 2843.54,1937.29 2788.38,1993.46 2729.5,2046C 2673.39,2095.02 2610.72,2134.02 2541.5,2163C 2435.38,2202.73 2327.05,2209.73 2216.5,2184C 2144.06,2167.08 2074.4,2142.41 2007.5,2110C 1913.14,2063.53 1823.47,2009.86 1738.5,1949C 1656.04,1889.22 1575.87,1826.39 1498,1760.5C 1521.61,1862.05 1560.45,1957.39 1614.5,2046.5C 1569.29,2052.09 1524.95,2048.09 1481.5,2034.5C 1481.17,2034.83 1480.83,2035.17 1480.5,2035.5C 1512.57,2095.07 1553.91,2147.57 1604.5,2193C 1680.14,2260.02 1765.81,2311.02 1861.5,2346C 1818.9,2413.29 1766.9,2472.62 1705.5,2524C 1635.67,2578.42 1558,2618.42 1472.5,2644C 1450.89,2650.15 1429.22,2656.15 1407.5,2662C 1466.15,2715.91 1535.49,2745.57 1615.5,2751C 1598.03,2769.47 1579.03,2786.14 1558.5,2801C 1531.84,2819.33 1504.51,2836.67 1476.5,2853C 1709.62,2912.8 1946.29,2934.63 2186.5,2918.5C 2096.6,2992.41 2005.27,3064.41 1912.5,3134.5C 1910.93,3134.06 1909.76,3133.06 1909,3131.5C 1868.67,3068.83 1828.33,3006.17 1788,2943.5C 1746.73,3011.06 1705.23,3078.4 1663.5,3145.5C 1528.86,3056.31 1400.86,2958.14 1279.5,2851C 1216.36,2794.03 1156.03,2734.19 1098.5,2671.5C 1125.96,2693.1 1154.96,2712.6 1185.5,2730C 1269.91,2774.18 1359.58,2791.52 1454.5,2782C 1469.92,2780.65 1485.25,2778.65 1500.5,2776C 1438.31,2756.09 1382.64,2725.09 1333.5,2683C 1308.02,2658.71 1285.36,2632.21 1265.5,2603.5C 1392.29,2603.64 1509.63,2570.81 1617.5,2505C 1675.8,2468.71 1725.97,2423.21 1768,2368.5C 1768.62,2367.55 1768.45,2366.72 1767.5,2366C 1701.93,2342.9 1643.26,2308.57 1591.5,2263C 1536.95,2213.66 1491.28,2157.49 1454.5,2094.5C 1462.85,2095.41 1471.18,2096.24 1479.5,2097C 1468.74,2091.29 1457.74,2086.12 1446.5,2081.5C 1399.31,2000.11 1364.15,1913.78 1341,1822.5C 1364.61,1861.46 1393.44,1896.3 1427.5,1927C 1449.69,1945.27 1474.02,1960.27 1500.5,1972C 1506.33,1974.83 1512.33,1976.83 1518.5,1978C 1500.68,1944.56 1485.18,1910.06 1472,1874.5C 1455.22,1828.82 1440.05,1782.66 1426.5,1736C 1335.27,1681.88 1242.27,1630.54 1147.5,1582C 1085.8,1550.98 1022.8,1522.98 958.5,1498C 903.84,1477.11 847.84,1461.11 790.5,1450C 744.826,1441.89 698.826,1439.06 652.5,1441.5C 654.753,1435.83 657.419,1430.33 660.5,1425C 716.333,1418.1 771.333,1407.1 825.5,1392C 938.467,1359.34 1022.3,1291.17 1077,1187.5C 1110.57,1122.35 1136.9,1054.35 1156,983.5C 1241.98,908.058 1336.48,844.892 1439.5,794C 1520.99,754.84 1606.65,729.84 1696.5,719C 1816.17,706.952 1931.83,723.286 2043.5,768C 2124.55,801.009 2200.22,843.009 2270.5,894C 2306.52,920.271 2341.35,948.104 2375,977.5C 2400.44,1050.05 2433.11,1119.05 2473,1184.5C 2549.34,1303.79 2653.84,1388.62 2786.5,1439C 2802.4,1445.12 2818.4,1450.95 2834.5,1456.5C 2869.16,1557.49 2891.33,1661.16 2901,1767.5C 2903.14,1798.8 2903.97,1830.13 2903.5,1861.5 Z"/></g>
<g><path style="opacity:0.663" fill="#ff807a" d="M 1040.5,851.5 C 1041.91,851.973 1042.57,852.973 1042.5,854.5C 1041.09,854.027 1040.43,853.027 1040.5,851.5 Z"/></g>
<g><path style="opacity:0.937" fill="#ff8a84" d="M 2485.5,853.5 C 2485.26,855.404 2484.26,856.738 2482.5,857.5C 2482.74,855.596 2483.74,854.262 2485.5,853.5 Z"/></g>
<g><path style="opacity:0.725" fill="#ff837a" d="M 1042.5,854.5 C 1043.91,854.973 1044.57,855.973 1044.5,857.5C 1043.09,857.027 1042.43,856.027 1042.5,854.5 Z"/></g>
<g><path style="opacity:0.737" fill="#ff857d" d="M 1044.5,857.5 C 1045.91,857.973 1046.57,858.973 1046.5,860.5C 1045.09,860.027 1044.43,859.027 1044.5,857.5 Z"/></g>
<g><path style="opacity:0.725" fill="#ff9c97" d="M 2482.5,857.5 C 2481.58,860.089 2479.91,862.089 2477.5,863.5C 2478.42,860.911 2480.09,858.911 2482.5,857.5 Z"/></g>
<g><path style="opacity:0.741" fill="#ff8782" d="M 1046.5,860.5 C 1047.91,860.973 1048.57,861.973 1048.5,863.5C 1047.09,863.027 1046.43,862.027 1046.5,860.5 Z"/></g>
<g><path style="opacity:0.733" fill="#ff8c86" d="M 1048.5,863.5 C 1049.91,863.973 1050.57,864.973 1050.5,866.5C 1049.09,866.027 1048.43,865.027 1048.5,863.5 Z"/></g>
<g><path style="opacity:0.835" fill="#ffa4a2" d="M 2477.5,863.5 C 2477.26,865.404 2476.26,866.738 2474.5,867.5C 2474.74,865.596 2475.74,864.262 2477.5,863.5 Z"/></g>
<g><path style="opacity:0.663" fill="#ff9592" d="M 1050.5,866.5 C 1051.91,866.973 1052.57,867.973 1052.5,869.5C 1051.09,869.027 1050.43,868.027 1050.5,866.5 Z"/></g>
<g><path style="opacity:0.6" fill="#ff9d9b" d="M 1052.5,869.5 C 1053.91,869.973 1054.57,870.973 1054.5,872.5C 1053.09,872.027 1052.43,871.027 1052.5,869.5 Z"/></g>
<g><path style="opacity:0.506" fill="#ffada0" d="M 1054.5,872.5 C 1055.91,872.973 1056.57,873.973 1056.5,875.5C 1055.09,875.027 1054.43,874.027 1054.5,872.5 Z"/></g>
<g><path style="opacity:0.369" fill="#ffb7b5" d="M 1056.5,875.5 C 1058.25,876.659 1059.25,878.326 1059.5,880.5C 1057.75,879.341 1056.75,877.674 1056.5,875.5 Z"/></g>
<g><path style="opacity:0.51" fill="#ffaeac" d="M 1059.5,880.5 C 1060.91,880.973 1061.57,881.973 1061.5,883.5C 1060.09,883.027 1059.43,882.027 1059.5,880.5 Z"/></g>
<g><path style="opacity:0.529" fill="#ffacaa" d="M 1062.5,885.5 C 1063.91,885.973 1064.57,886.973 1064.5,888.5C 1063.09,888.027 1062.43,887.027 1062.5,885.5 Z"/></g>
<g><path style="opacity:0.282" fill="#ffa6a4" d="M 1065.5,890.5 C 1067.25,891.659 1068.25,893.326 1068.5,895.5C 1066.75,894.341 1065.75,892.674 1065.5,890.5 Z"/></g>
<g><path style="opacity:0.439" fill="#ffb7b4" d="M 2474.5,867.5 C 2464.52,881.66 2454.69,895.993 2445,910.5C 2437.14,923.564 2429.31,936.564 2421.5,949.5C 2436.02,920.009 2453.69,892.675 2474.5,867.5 Z"/></g>
<g><path style="opacity:0.082" fill="#ffaba9" d="M 1068.5,895.5 C 1070.59,897.336 1071.92,899.669 1072.5,902.5C 1070.41,900.664 1069.08,898.331 1068.5,895.5 Z"/></g>
<g><path style="opacity:0.063" fill="#ffafad" d="M 1072.5,902.5 C 1074.59,904.336 1075.92,906.669 1076.5,909.5C 1074.41,907.664 1073.08,905.331 1072.5,902.5 Z"/></g>
<g><path style="opacity:0.106" fill="#ffaaa7" d="M 1077.5,911.5 C 1080.59,915.347 1082.93,919.68 1084.5,924.5C 1081.41,920.653 1079.07,916.32 1077.5,911.5 Z"/></g>
<g><path style="opacity:0.043" fill="#ffaba8" d="M 1092.5,940.5 C 1094.96,943.751 1096.62,947.418 1097.5,951.5C 1095.04,948.249 1093.38,944.582 1092.5,940.5 Z"/></g>
<g><path style="opacity:0.204" fill="#ffa6a4" d="M 1099.5,955.5 C 1100.93,956.78 1101.6,958.447 1101.5,960.5C 1100.07,959.22 1099.4,957.553 1099.5,955.5 Z"/></g>
<g><path style="opacity:1" fill="#ff5f59" d="M 2416.5,959.5 C 2416.33,960.492 2416.66,961.158 2417.5,961.5C 2416.74,963.262 2415.4,964.262 2413.5,964.5C 2414.26,962.632 2415.26,960.965 2416.5,959.5 Z"/></g>
<g><path style="opacity:1" fill="#ffd9da" d="M 1446.5,2081.5 C 1448.93,2086.04 1451.6,2090.37 1454.5,2094.5C 1491.28,2157.49 1536.95,2213.66 1591.5,2263C 1643.26,2308.57 1701.93,2342.9 1767.5,2366C 1768.45,2366.72 1768.62,2367.55 1768,2368.5C 1725.97,2423.21 1675.8,2468.71 1617.5,2505C 1509.63,2570.81 1392.29,2603.64 1265.5,2603.5C 1285.36,2632.21 1308.02,2658.71 1333.5,2683C 1382.64,2725.09 1438.31,2756.09 1500.5,2776C 1485.25,2778.65 1469.92,2780.65 1454.5,2782C 1359.58,2791.52 1269.91,2774.18 1185.5,2730C 1154.96,2712.6 1125.96,2693.1 1098.5,2671.5C 1058.78,2636.61 1022.28,2598.61 989,2557.5C 952.786,2510.74 918.786,2462.41 887,2412.5C 845.75,2345.66 803.75,2279.33 761,2213.5C 732.232,2170.66 700.566,2129.99 666,2091.5C 636.08,2059.49 602.247,2032.66 564.5,2011C 512.066,1983.21 456.399,1973.21 397.5,1981C 360.51,1986.33 324.844,1996.33 290.5,2011C 212.82,2046.48 141.486,2091.48 76.5,2146C 75.5165,2146.59 74.8499,2146.26 74.5,2145C 113.464,2035.9 158.631,1929.4 210,1825.5C 246.674,1752.09 290.341,1683.43 341,1619.5C 381.474,1569.34 428.974,1527.51 483.5,1494C 535.797,1463.74 592.131,1446.24 652.5,1441.5C 698.826,1439.06 744.826,1441.89 790.5,1450C 847.84,1461.11 903.84,1477.11 958.5,1498C 1022.8,1522.98 1085.8,1550.98 1147.5,1582C 1242.27,1630.54 1335.27,1681.88 1426.5,1736C 1440.05,1782.66 1455.22,1828.82 1472,1874.5C 1485.18,1910.06 1500.68,1944.56 1518.5,1978C 1512.33,1976.83 1506.33,1974.83 1500.5,1972C 1474.02,1960.27 1449.69,1945.27 1427.5,1927C 1393.44,1896.3 1364.61,1861.46 1341,1822.5C 1364.15,1913.78 1399.31,2000.11 1446.5,2081.5 Z"/></g>
<g><path style="opacity:0.999" fill="#850000" d="M 2186.5,2918.5 C 1946.29,2934.63 1709.62,2912.8 1476.5,2853C 1504.51,2836.67 1531.84,2819.33 1558.5,2801C 1579.03,2786.14 1598.03,2769.47 1615.5,2751C 1535.49,2745.57 1466.15,2715.91 1407.5,2662C 1429.22,2656.15 1450.89,2650.15 1472.5,2644C 1558,2618.42 1635.67,2578.42 1705.5,2524C 1766.9,2472.62 1818.9,2413.29 1861.5,2346C 1765.81,2311.02 1680.14,2260.02 1604.5,2193C 1553.91,2147.57 1512.57,2095.07 1480.5,2035.5C 1480.83,2035.17 1481.17,2034.83 1481.5,2034.5C 1524.95,2048.09 1569.29,2052.09 1614.5,2046.5C 1560.45,1957.39 1521.61,1862.05 1498,1760.5C 1575.87,1826.39 1656.04,1889.22 1738.5,1949C 1823.47,2009.86 1913.14,2063.53 2007.5,2110C 2074.4,2142.41 2144.06,2167.08 2216.5,2184C 2327.05,2209.73 2435.38,2202.73 2541.5,2163C 2610.72,2134.02 2673.39,2095.02 2729.5,2046C 2788.38,1993.46 2843.54,1937.29 2895,1877.5C 2898.64,1872.55 2901.48,1867.21 2903.5,1861.5C 2913.99,1840.85 2920.15,1818.85 2922,1795.5C 2925.78,1749.88 2923.45,1704.55 2915,1659.5C 2908.16,1620.98 2899.16,1582.98 2888,1545.5C 2878.92,1516.77 2869.76,1488.1 2860.5,1459.5C 2944.49,1444.66 3017.83,1465.82 3080.5,1523C 3121.42,1563.31 3153.59,1609.81 3177,1662.5C 3226.81,1778.04 3248.81,1898.71 3243,2024.5C 3241.19,2064.81 3235.19,2104.47 3225,2143.5C 3178.12,2293.66 3104.12,2427.99 3003,2546.5C 2889.59,2673.66 2753.09,2767.83 2593.5,2829C 2462.19,2878.43 2326.53,2908.26 2186.5,2918.5 Z"/></g>
<g><path style="opacity:1" fill="#4c0000" d="M 2609.5,1792.5 C 2600.35,1869.45 2582.18,1944.45 2555,2017.5C 2539.41,2057.39 2517.74,2093.39 2490,2125.5C 2440.32,2176.4 2379.82,2198.23 2308.5,2191C 2263.87,2185.46 2220.87,2173.79 2179.5,2156C 2160.11,2147.8 2141.11,2138.8 2122.5,2129C 2270.96,2148.09 2393.79,2101.25 2491,1988.5C 2539.86,1929.16 2579.36,1863.83 2609.5,1792.5 Z"/></g>
<g><path style="opacity:1" fill="#550508" d="M 1446.5,2081.5 C 1457.74,2086.12 1468.74,2091.29 1479.5,2097C 1471.18,2096.24 1462.85,2095.41 1454.5,2094.5C 1451.6,2090.37 1448.93,2086.04 1446.5,2081.5 Z"/></g>
<g><path style="opacity:0.998" fill="#4c0000" d="M 1912.5,3134.5 C 1912.72,3135.68 1912.39,3136.68 1911.5,3137.5C 1870.32,3166.92 1829.32,3196.59 1788.5,3226.5C 1746.19,3200.2 1704.53,3173.2 1663.5,3145.5C 1705.23,3078.4 1746.73,3011.06 1788,2943.5C 1828.33,3006.17 1868.67,3068.83 1909,3131.5C 1909.76,3133.06 1910.93,3134.06 1912.5,3134.5 Z"/></g>
</svg>
