<?xml version="1.0" encoding="UTF-8"?>
<svg width="512" height="512" version="1.1" viewBox="0 0 512 512" xmlns="http://www.w3.org/2000/svg">
 <path d="m172 512c-8-76-40-136 68-252-152 60-108 156-68 252z" fill="#d40000"/>
 <path d="m56 512c20-88 29.8-178 8-272 56-60 116-60 176 20-72 52-128 116-68 252" fill="#f60"/>
 <path d="m172 512c88 0 252-20.5 284-336-49.2 6.42-76.6 32-104 64 8-64 25.1-121 52-176-24 4-48 24-64 44 8-36 20-72 56-108-52 28-92 64-118 103-8.95 147 23.4 352-106 409z" fill="#f60"/>
 <path d="m172 512c88-64 88-276 104-412 12-28 52-68 76-92-36 84-40 116-40.4 182 16.4-42.4 36.4-58.4 56.4-78.4-27 63.8-36 136-32 184 8-20 62.6-72.1 88-80 0 112-92 272-252 296z" fill="#d40000"/>
</svg>
