<?xml version="1.0" encoding="UTF-8"?>
<svg id="Layer_1" data-name="Layer 1" xmlns="http://www.w3.org/2000/svg" xmlns:xlink="http://www.w3.org/1999/xlink" version="1.1" viewBox="0 0 1724.6 2037.2">
  <defs>
    <style>
      .cls-1 {
        fill: #44557a;
      }

      .cls-1, .cls-2, .cls-3, .cls-4, .cls-5, .cls-6, .cls-7, .cls-8, .cls-9, .cls-10, .cls-11, .cls-12 {
        stroke-width: 0px;
      }

      .cls-2 {
        fill: url(#linear-gradient);
      }

      .cls-3 {
        fill: url(#radial-gradient);
      }

      .cls-4 {
        fill: #00145e;
      }

      .cls-5, .cls-6 {
        isolation: isolate;
      }

      .cls-5, .cls-13 {
        opacity: .3;
      }

      .cls-5, .cls-10 {
        fill: #006;
      }

      .cls-6 {
        opacity: .7;
      }

      .cls-6, .cls-7 {
        fill: #fff18d;
      }

      .cls-8 {
        fill: #86869b;
      }

      .cls-9 {
        fill: url(#linear-gradient-2);
      }

      .cls-11 {
        fill: #fff;
      }

      .cls-12 {
        fill: #1c2f63;
      }
    </style>
    <linearGradient id="linear-gradient" x1="1433.5" y1="966.5" x2="733.2" y2="-231.2" gradientTransform="translate(0 955.3) scale(1 -1)" gradientUnits="userSpaceOnUse">
      <stop offset="0" stop-color="#86869b"/>
      <stop offset="1" stop-color="#60607f"/>
    </linearGradient>
    <linearGradient id="linear-gradient-2" x1="1317.9" y1="874.6" x2="1212" y2="651" gradientTransform="translate(0 955.3) scale(1 -1)" gradientUnits="userSpaceOnUse">
      <stop offset="0" stop-color="#86869b"/>
      <stop offset="1" stop-color="#60607f"/>
    </linearGradient>
    <radialGradient id="radial-gradient" cx="1431.5" cy="-304.4" fx="1431.5" fy="-304.4" r="1233.9" gradientTransform="translate(0 955.3) scale(1 -1)" gradientUnits="userSpaceOnUse">
      <stop offset="0" stop-color="#86869b"/>
      <stop offset=".4" stop-color="#838399"/>
      <stop offset=".6" stop-color="#797991"/>
      <stop offset=".9" stop-color="#686885"/>
      <stop offset="1" stop-color="#60607f"/>
    </radialGradient>
  </defs>
  <g>
    <g>
      <path class="cls-4" d="M992,1943.6"/>
      <path class="cls-12" d="M992,1761"/>
      <path class="cls-1" d="M992,1577.2"/>
    </g>
    <g>
      <path class="cls-7" d="M992,1302"/>
      <path class="cls-7" d="M992,1302"/>
      <g>
        <g class="cls-13">
          <path class="cls-10" d="M363,522.5"/>
        </g>
        <g class="cls-13">
          <circle class="cls-10" cx="1186.7" cy="656.9" r="238.4"/>
        </g>
        <g class="cls-13">
          <path class="cls-10" d="M992,1302"/>
        </g>
      </g>
      <g>
        <path class="cls-7" d="M992,1277.3"/>
        <path class="cls-10" d="M964,762.8c-24.3-41.7-33.9-92.9-27.3-142.6,3.6-24.8,10.8-49.3,21.9-72.1,1.4-2.8,2.7-5.7,4.2-8.5l4.8-8.2c3-5.6,6.7-10.8,10.2-16,3.4-5.4,7.7-10.1,11.6-15.1,4.1-4.8,7.8-10,12.5-14.4l13.5-13.5c4.8-4.2,9.8-8.1,14.7-12.2,4.8-4.2,10.2-7.7,15.5-11.2,5.4-3.4,10.5-7.3,16.2-10.1l16.9-9c5.9-2.5,11.8-4.9,17.7-7.4,5.8-2.7,12.1-4.2,18.2-6.2,6.1-1.8,12.2-3.9,18.6-4.9,24.9-6.1,50.9-7,76.5-5.2,6.4.7,12.8.9,19.2,2.1l18.9,3.7c6.3,1.3,12.4,3.5,18.6,5.3,3.1.9,6.2,1.8,9.2,2.9l8.9,3.7,8.9,3.7c3,1.2,6,2.4,8.8,4l17,9.1c5.7,3.1,10.8,7.1,16.1,10.6l8,5.4c2.6,1.9,5,4.1,7.5,6.1,20.4,15.8,37.4,35.6,51.9,56.8,3.4,5.4,7,10.8,10.3,16.3l8.7,17.2,2.2,4.3c.7,1.5,1.2,3,1.8,4.5l3.5,9,3.4,9c1.1,3,1.8,6.2,2.7,9.2,7.6,24.5,10.7,50.3,10.5,75.8l-.2,9.6c0,3.2-.1,6.4-.6,9.6l-2.2,19c-1,6.3-2.6,12.5-3.8,18.8-.8,3.1-1.2,6.3-2.2,9.3l-2.9,9.1c-3.4,12.3-8.8,23.9-14,35.5-3,5.6-6.2,11.1-9.3,16.6-1.7,2.7-3.1,5.6-4.9,8.1l-5.6,7.7c-29.2,41.3-73.3,71.6-120.9,82-2.3.5-4.6-.9-5.1-3.2-.4-1.8.4-3.5,1.8-4.5h0c39.3-25.4,71.5-57,93.4-94.7l4.3-6.9c1.4-2.3,2.4-4.8,3.7-7.2,2.3-4.9,5-9.6,7.2-14.5,1.9-5.1,3.9-10.1,5.9-15,2.3-4.9,3.3-10.2,4.9-15.4l2.2-7.7c.8-2.6,1.1-5.3,1.6-7.9.9-5.3,2.1-10.5,2.8-15.8l1.4-16c.3-2.7.4-5.3.3-8v-8c-.6-21.4-3.7-42.8-10.6-63-6.9-20.1-15.4-39.9-28-57.1-2.7-4.6-6.2-8.6-9.6-12.7-3.4-4.1-6.4-8.5-10.3-12.1l-11.1-11.4c-3.9-3.6-8.2-6.8-12.2-10.3-16.6-13.2-34.8-24.6-54.6-32.3l-7.3-3.1c-2.5-.9-5.1-1.6-7.6-2.4-5.1-1.5-10.1-3.4-15.3-4.5l-15.6-3.2c-5.2-1.1-10.6-1.3-15.8-2-21.1-1.9-42.7-1.4-63.7,3.1-5.3.7-10.4,2.3-15.6,3.7-5.1,1.5-10.4,2.6-15.3,4.7l-15,5.7-14.4,7.1c-4.9,2.1-9.2,5.4-13.9,8.1-4.6,2.8-9.2,5.6-13.3,9-4.2,3.3-8.6,6.5-12.7,9.9l-11.7,11.1c-4.1,3.5-7.3,7.9-10.9,11.9-3.5,4.1-7.3,8-10.3,12.5-3.2,4.4-6.5,8.6-9.3,13.3l-4.4,6.8c-1.4,2.3-2.7,4.7-4,7.1-10.5,19-18.7,39.3-23.7,60.8-10.3,42.8-8.4,88.9,4.4,133.5h0c.7,2.4-.7,4.8-3,5.5-2,.6-4-.3-5-2Z"/>
      </g>
    </g>
  </g>
  <g>
    <ellipse class="cls-5" cx="817.3" cy="1899.6" rx="777.5" ry="137.6"/>
    <g>
      <g>
        <g>
          <g>
            <path class="cls-2" d="M1694,718.2c.3,104.5-37.4,308-282.3,464.4-9.1,5.9-18.6,11.7-28.3,17.4-42,24.6-86.4,44.3-132.5,58.5-10.2,3.2-20.5,6.1-30.8,8.6-3.3.8-6.6,1.6-10,2.4-3.1.7-6.4,1.5-9.5,2.1-4,.9-7.9,1.7-11.8,2.4-3.2.6-6.4,1.2-9.5,1.8h-.2c-3,.5-6,1-9,1.5-7.1,1.1-14.2,2.1-21.3,3-3.1.4-6.1.7-9.1,1-2.3.3-4.6.5-6.9.7-4.2.4-8.3.7-12.5,1-2.3.2-4.6.3-6.9.4-1.2.1-2.3.2-3.4.2-2.3.2-4.7.2-7,.3-6.2.3-12.4.4-18.5.5-42.4.3-84.9-4-115.8-17.9l-.7-.7c-19.2,18.8-46.7,41.2-76.9,52.2,0,0-30.7-42.5-37.6-109.9,0,0-10.8,51.2-80.8,80.2,0,0-19.2-52.6-33.3-94.9v-.2c-2.9-8.5-5.5-16.5-7.7-23.7-5.7-18.4-13.6-34-22.7-49.3-26.2-43.3-63-84-90.1-178.5l-251-390.9c-18.7-29,2.9-67,37.4-65.9l223.6,7.3s0,0,0-.2c0,0,0-.2,0-.4.7-5.2,6.5-46.7,19.5-98.4,0-.2,0-.4,0-.6,15.1-59.6,39.7-132.6,77.3-179,0,0,50.2,40.9,51.5,81.8,0,0,109.9-120.1,198.9-166.4,0,0,40,54,48.6,135.3,1-.2,18-3.2,45.8-4.1,6.8-.3,14.2-.3,22.2-.2,3.9,0,8,.2,12.2.3,9.4.4,19.6,1,30.2,2.1,4.6.5,9.3,1,14.1,1.6,2.6.3,5.3.7,8,1.1,5.3.7,10.7,1.6,16.3,2.6.3,0,.6,0,.9.2,2.6.5,5.2,1,7.8,1.5,9.1,1.8,18.4,3.8,27.9,6.3,2.4.6,4.9,1.2,7.3,2,1.8.4,3.7.9,5.5,1.5,2.3.6,4.5,1.2,6.8,1.9,10.4,3.1,20.9,6.6,31.5,10.6,1.9.7,3.8,1.5,5.7,2.2,7.6,3,15.2,6.2,22.8,9.7,2.6,1.2,5.2,2.3,7.7,3.6,2.1,1,4.3,2.1,6.5,3.1,6,2.9,12,6,17.9,9.3,3.1,1.7,6.2,3.4,9.3,5.2,3.2,1.9,6.5,3.8,9.7,5.8,2.8,1.6,5.5,3.3,8.1,5.1,3.8,2.4,7.5,4.8,11.3,7.4,64.5,43.6,127.6,109.6,178.2,208.6,0,0,142.9,30.4,153.5,126.7,1.1,10.7,2,24.1,2.1,39.7Z"/>
            <path class="cls-9" d="M1360.3,343h0c-111.8-75.8-227.8-84.5-289.9-82.6,0,0,10.2-63.3,120.1-201.4,21.3-26.8,63.3-22,77.9,9,26.2,55.9,63,148.4,92,275Z"/>
            <path class="cls-3" d="M1411.2,1854.2h0c0-.3,0-.6-.1-.8,0-.2,0-.5-.1-.7-.1-1-.3-1.9-.5-2.9-.4-1.9-.9-3.8-1.5-5.7-.3-1-.6-1.9-1-2.8,0-.5-.3-.9-.5-1.3-12.4-30.9-31.4-62.8-60.4-80,0,0-12.7-15.7-16.7-38.3-.5-2.8-.9-6.7-1.1-11.2-.3-4.4-.4-9.4-.5-14.8,0-.9,0-1.9,0-2.8,0-8.2,0-17.1,0-25.8,0-1.3,0-2.6,0-3.8,0-2,0-4,0-6,0-1,0-1.9,0-2.8,0-2.8,0-5.4.2-8,0-2.9.1-5.6.2-8.2,0-.8,0-1.6,0-2.4v-.2c0-1.1,0-2.2.1-3.2,0-1.1,0-2.2,0-3.2,0-.7,0-1.3,0-2,0-.7,0-1.4,0-2,0-1.1,0-2.2.1-3.2,0-1,0-1.9,0-2.7l.2-3.6s-39.2-91.2-41.2-193.3c0,0-20.6,34.3-40.2,50,0,0-21.6-143.8,2-214.1,0,0,0,0-.1,0-53.8,16.6-109.8,25.6-166.5,25.9-42.4.3-84.9-4-115.8-17.9l-.7-.7c-19.2,18.8-46.7,41.2-76.9,52.2,0,0-30.7-42.6-37.6-109.9,0,0-10.8,51.2-80.8,80.2,0,0-19.2-52.5-33.3-94.9,0,0-121.9,99.7-181.7,152.7,0,0,14.3,18.1,38.9,32.4l-.7,1.1s-101.3,160.9-103,353.3v.5s-155-38.2-174.6-165.8c-19.6-127.5,117.7-219.7,117.7-219.7h0c-4.8-1.2-196.6-46.9-297.4,144.7,0,0-.1.1-.1.1-3.6,6.8-7,14-10.4,21.4,0,0-14.7-76.5-53-97.8,0,0-135.4,321.9,125.6,453.4,0,0-43.9,12.7-59.8,35.3,0,0,214,154.3,404.9-21.8,1.1,1.8,38.7,56.9,335.3,64.2,20.9.5,43.1.8,66.6.8h227c11.3,0,21.9-3.9,30.1-10.8l-73.2-135.9c-51.4-10.9-91.1,7.9-110.6,20.3-1,.7-2,1.3-2.9,1.9-6.6,4.4-10.2,7.7-10.2,7.7l-.5-.6c43.5-37.4,92.7-97.1,124.1-189.7v160.4s111.2,16,86.2,118.8l.7.3h134.8c36.6,0,62.8-32.4,58.2-66.6Z"/>
          </g>
          <path class="cls-8" d="M1468.1,1854.1h-56.8c0-.2,0-.4-.1-.7-.1-1.2-.4-2.4-.6-3.6-.4-1.9-.9-3.8-1.5-5.7-.3-.9-.6-1.9-1-2.8,0-.5-.3-.9-.5-1.3-12.4-30.9-31.4-62.8-60.4-80,0,0-12.7-15.7-16.7-38.3-.5-2.8-.9-6.7-1.1-11.2-.3-4.4-.4-9.4-.5-14.8,0-.9,0-1.9,0-2.8,0-8.2,0-17.1,0-25.8,0-1.3,0-2.6,0-3.8,0-2,0-4,0-6,0-1,0-1.9,0-2.8,0-2.8,0-5.4.2-8,0-2.9.1-5.6.2-8.2,0-.8,0-1.6,0-2.4v-.2c0-1.1,0-2.2.1-3.2,0-1.1,0-2.2,0-3.2,0-.7,0-1.3,0-2,0-.7,0-1.4,0-2,0-1.1,0-2.2.1-3.2,0-1,0-1.9,0-2.7l.2-3.6c35.3-18.2,56.4-64.3,56.4-64.3,2,25,24.9,42.7,24.9,42.7,3.3-4.4,6.4-8.7,9.3-13.1v77.4c0,8.6,2.6,17,7.4,24.2,5.7,8.4,14.2,19.8,24.5,28.9,3,2.7,6.1,5.1,9.4,7.2,16.5,10.9,35.2,45.3,41.8,84.5.6,3,1,6.1,1.3,9.2,2.6,22.3-15,41.7-37.4,41.7Z"/>
          <g>
            <g>
              <path class="cls-11" d="M1458.5,1350.3c1.4,3.5,42.8,112.2-37.3,230.8-2.9,4.4-6,8.7-9.3,13.1,0,0-23-17.6-24.9-42.7,0,0-21.1,46.1-56.4,64.3,0,0-39.2-91.2-41.2-193.3,0,0-20.6,34.3-40.2,50,0,0-21.6-143.8,2-214.1,46.1-14.2,90.5-33.9,132.5-58.5,9.7-5.7,19.1-11.5,28.3-17.4h0c0,0,6.4,4.9,15.9,15.2,23.2,24.8,64.8,81,77.3,173.8,0,0-19.6,11-46.6-21.3Z"/>
              <path class="cls-11" d="M1411.7,1182.6c-9.2,5.9-18.6,11.7-28.3,17.4-41.9,24.6-86.4,44.3-132.5,58.5-53.8,16.6-109.9,25.6-166.7,26-42.4.3-84.9-4-115.8-17.9l-.7-.7c-19.2,18.8-46.7,41.2-76.9,52.2,0,0-30.7-42.6-37.6-109.9,0,0-10.8,51.2-80.8,80.2,0,0-19.2-52.6-33.3-95h0c-2.8-8.6-5.4-16.6-7.6-23.8-5.7-18.4-13.6-34-22.8-49.2l.6-3.7s44.3-168.8,220.9-157.1c0,0-272.7-314.8-37.3-448.7,0,0,144.2-80.9,329.6,53-2.2-4.2-145.7-236.6,74.9-256.5,20.8,9.8,41.9,21.7,62.8,35.8,64.5,43.7,127.6,109.6,178.1,208.6,0,0,58,12.3,102.8,46.2,25.5,19.3,46.8,45.6,50.7,80.5,9.1,82.5,1.2,324.4-280.2,504.1Z"/>
              <g>
                <path class="cls-11" d="M1353,1920.8h-134.8l-.7-.3c25.1-102.8-86.2-118.8-86.2-118.8v-46.3c11.3,3.1,24.1,5.4,37.9,7,75.7,8.9,177.9-2.4,177.9-2.4,37.9,22.1,54.4,60.6,60.7,80.8,0,.2,0,.3.1.5,1.7,5.4,2.6,9.4,3,11.4,0,.3,0,.5.1.7,0,.5.1.7.1.7h0c4.6,34.2-21.6,66.7-58.2,66.7Z"/>
                <path class="cls-11" d="M1468.1,1854.1h-56.8c-.6-4.7-1.9-9.5-3.8-14.2-12.4-30.9-31.4-62.8-60.4-80,0,0-12.7-15.7-16.7-38.3-.5-2.8-.9-6.7-1.1-11.2,44.6,4.4,100.5,2.2,123.7,1.1,3,2.7,6.1,5.1,9.4,7.2,17.8,11.7,38.2,50.8,43.2,93.7,2.6,22.3-15.1,41.7-37.5,41.7Z"/>
                <path class="cls-11" d="M1217.5,1920.5c-7.2,16.7-24.2,27.8-43.1,27.8h-227c-23.5,0-45.7-.3-66.6-.8,42.8-53.1,126.4-116.5,126.4-116.5l10.7-7.1,2.9-1.9c19.4-12.4,59.2-31.1,110.6-20.3,116.9,18.2,86.1,118.8,86.1,118.8Z"/>
              </g>
            </g>
            <path class="cls-11" d="M444.9,574.3l110.3,162.4c11.7,17.2,38.6,8.7,38.2-12.1-.9-46.9.8-107.5,11.9-154.7,3.1-13-6.6-25.5-19.9-25.8l-122.8-2.5c-17-.3-27.3,18.6-17.7,32.7Z"/>
          </g>
          <g>
            <path class="cls-8" d="M1043.6,647.9c11.1,2.7,11.6,18.4.7,21.8-26.1,8.1-60.4,22.4-85.5,46.5-42.6,40.9-55.9-102.9,84.9-68.3Z"/>
            <path class="cls-8" d="M1295.9,507.4c2.5,8.9,15.1,8.8,17.6,0,5.8-21.2,16.3-49.3,35.1-70.2,31.8-35.4-84.4-42.1-52.6,70.3Z"/>
          </g>
        </g>
        <g>
          <path class="cls-5" d="M1224.4,73.1c5.4-12.1,14.6-20.6,25.2-25.3-18.7-10.7-44.1-7.6-59.2,11.3-109.9,138.1-120.1,201.4-120.1,201.4,23-.7,53.3,0,88.1,5.1,7.7-39.1,25.4-101.5,65.9-192.5Z"/>
          <path class="cls-5" d="M1691.9,678.4c-3.9-35-25.1-61.2-50.7-80.5,19.7,168.3-30.1,293-109.5,385.2-109.3,126.8-275.2,188.8-441.9,172.7-100.3-9.7-207.8-42.4-281.3-125.7-176.6-200.1-180-537.9-180-537.9l-223.6-7.3c-34.5-1.1-56,36.9-37.4,65.9l251,390.9c27.1,94.4,63.9,135.1,90.1,178.5,9.2,15.2,17.1,30.9,22.8,49.2,2.2,7.2,4.8,15.2,7.6,23.7h0c14.1,42.5,33.3,95.1,33.3,95.1,70-29,80.8-80.2,80.8-80.2,7,67.3,37.6,109.9,37.6,109.9,30.2-10.9,57.7-33.4,76.9-52.2l.7.7c30.8,13.9,73.3,18.2,115.8,17.9,6.7,0,13.3-.2,20-.5,2.2,0,4.3-.2,6.5-.4,4.5-.2,9-.5,13.5-.9,2.5-.2,5-.4,7.5-.7,4.2-.4,8.4-.8,12.6-1.3,2.5-.3,4.9-.6,7.4-.9,4.3-.6,8.7-1.1,13-1.8,2.2-.3,4.4-.7,6.7-1,4.9-.8,9.8-1.7,14.7-2.6,1.5-.3,3.1-.6,4.6-.9,13.1-2.6,26.2-5.6,39.1-9h0c7-2,14-4,21-6.1,46.1-14.2,90.5-33.9,132.5-58.5,9.7-5.7,19.1-11.5,28.3-17.4,281.3-179.7,289.3-421.6,280.2-504.1Z"/>
          <path class="cls-5" d="M1070.4,260.5c-26.3.9-42.9,3.6-45.5,4.1-6.4-55.6-25.1-112.1-48.9-135.3,0,0-26.1,194.1-81.3,276.6-8.2,12.3,1.6,28.6,16.3,27.2,32.5-2.9,75.9-11.6,103-35.5,4.8.3,55.4-30.3,56.5-137.1h0Z"/>
          <path class="cls-5" d="M1411.8,1594.2s-23-17.6-24.9-42.7c0,0-21.1,46.1-56.4,64.3,0,0-39.2-91.2-41.2-193.3,0,0-20.6,34.3-40.2,50,0,0-21.6-143.8,2-214.1,46.1-14.2,90.5-33.9,132.5-58.5,9.7-5.7,19.1-11.5,28.3-17.4h0c0,0,6.4,4.9,15.9,15.2-20.1,18-54.8,47.8-82.1,64.1-15.8,9.4-28,24-33.8,41.4-3.5,10.5-5.9,22.9-4.8,35.9,1.1,13.3,5.3,18.2,10.4,19.1,10.9,1.8,19.4,10.3,19.2,21.4-.6,29,1.1,73.6,12.6,114.6,4.2,14.7,23,19.7,33.6,8.7,4.6-4.8,8.5-10,9.9-15.1,4.4-16.2,52.3,33.9,19,106.4Z"/>
          <path class="cls-5" d="M914.5,1887.5s147.6-173.5,158.4-303.3c2.7-32.9,49.4-36.7,57.2-4.6,3.7,15.1,4.6,35.1,1.1,61.7,0,0-39.2,158.9-216.8,246.2Z"/>
          <path class="cls-5" d="M1226.8,1909.7l-3.3-12.6c-1.3-5-6.5-7.8-11.4-6.2-2.6.9-5.8,1.9-9.6,2.9-7,1.9-14.1-1.8-16.9-8.5-6.7-16.4-18.2-16-18.6-14.5-.4,1.4,3.2,5.5,3.2,5.5,3.5,8.1,4.9,16.3,5.2,23.8-51.5,9.9-152.8,19.9-333.5,6-294.9-22.7-323.9-270.3-105.9-548.2,1.9-2.4,4.9-3.7,7.9-3.4,11.9,1.4,43.8,2.4,68.8-20.9,3.6-3.3,9.3-3,12.5.7,15.3,17.5,60.5,55.2,133.8.7,1.5-1.1,3.3-1.8,5.1-1.8,18.8-.3,129.1-3.4,223.1-41.1,9.9-4,5.8-18.9-4.7-17-32.3,5.9-65.1,9-98.2,9.2-42.4.3-84.9-4-115.8-17.9l-.7-.7c-17.7,17.3-42.4,37.8-69.9,49.4-4.1,1.7-8.8.2-11.1-3.6-6.9-11.5-21.1-38.1-29.1-75.4-1.7-7.7-11.8-9.4-16.1-2.8-10,15.6-28.2,35.6-60.3,50.8-4.7,2.2-10.4-.1-12.1-5-5.3-14.7-16.2-45.2-25.9-73.9-2-5.9-9.2-7.9-14-4-28.9,23.7-114.4,94.2-165.1,138.6-3.8,3.3-4.1,9.1-.5,12.8,6.4,6.6,17.7,16.8,32.8,25.6l-.7,1.1s-101.4,160.9-103,353.4c0,.3,0,.5,0,.8.4,4.9,4.9,56.7,25.5,79.1,19.8,21.7-97.5,84.9-192,82.6-8.4-.2-11.7-11-4.9-16l16.1-11.8c5.6-4.1,4.5-12.7-1.8-15.3-50.2-20.6-210.6-97.1-219.4-235.6-.6-8.8,10.7-12.9,16-5.9l5.3,7.1c4.8,6.4,14.8,3.7,15.9-4.2,7.6-56.8,44.5-204.6,223.1-253.9,10-2.8,7.8-17.6-2.6-17.4-66.1,1.4-170.1,25.7-235.7,150.4-3.7,7-14,6.1-16.3-1.5-6.4-20.9-18.3-51-37.2-67.8-4.6-4.1-11.9-2-14,3.8-20.2,55.7-98.6,312,112.6,433.4,6.3,3.6,5.7,12.9-1,15.8-10.8,4.6-24.3,11.4-34.2,20.3-4.4,4-3.9,11,1.1,14.1,41.4,26,223.5,125.1,390-21.9,3.3-2.9,8.2-3.1,11.5-.2,17.3,14.4,85.9,52.8,330,58.8,20.9.5,43.1.8,66.6.8h227c18.9,0,35.8-11.1,43.1-27.8l.7.3c5.8,0,10-5.5,8.6-11.1Z"/>
          <path class="cls-5" d="M1411.2,1854.2h0c0,0-10.2,4.4-28.1,8.9-4.4,1.1-9.1-1-11.2-5-7.1-13.1-20-16.1-20-16.1,4.7,7.7,6.6,17,6.9,26.1-17.3,2.7-38.2,4.5-61.6,3.4-13.6-.6-25.4-8.9-31.6-21-9.5-18.8-30.2-46.9-72.7-62.6-11.1-4.1-19.9-12.9-23.4-24.2l-.4-1.2-37.9-121.1v160.4s111.2,16,86.2,118.8l.7.3h134.8c36.6,0,62.8-32.5,58.2-66.6Z"/>
          <path class="cls-5" d="M1468.1,1854.1h-56.8c-.6-4.7-1.9-9.5-3.8-14.2-12.4-30.9-31.4-62.8-60.4-80,0,0-12.7-15.7-16.7-38.3-.5-2.8-.9-6.7-1.1-11.2-1.6-26.7.4-77.2,1-91.1l.2-3.6c3.8,54.3,24.9,94.1,34.5,109.6,2.6,4.2,6.2,7.6,10.7,9.8,26.7,13.4,47.2,43.2,56.9,59.7,4.5,7.6,12.4,12.7,21.2,13.2,19,1.1,37.5-1.8,50.4-4.8.6,3,1,6.1,1.3,9.2,2.6,22.3-15.1,41.7-37.4,41.7Z"/>
          <path class="cls-5" d="M1421.1,1581.1v35.2c-11-.5-19.5-1.9-25.7-3.4-7.6-1.8-15.5.6-20.5,6.5-17.3,20.1-44.6,26.8-45.6,27h0c-19.2-11.7-47.6-71.3-60.8-100.8-3-6.7-12-8-16.7-2.4-1,1.2-1.9,2.3-2.9,3.4-11.9,13.1-33.9,6.1-36.4-11.5-33.8-239.1,34.9-275,38.3-276.6,0,0,.1,0,.1,0-23.6,70.3-2,214.1-2,214.1,19.6-15.7,40.2-50,40.2-50,2,102,41.2,193.3,41.2,193.3,35.3-18.2,56.4-64.3,56.4-64.3,2,25,24.9,42.7,24.9,42.7,3.3-4.4,6.4-8.7,9.3-13.1Z"/>
        </g>
        <g>
          <g>
            <path class="cls-6" d="M1268.3,68.1c-14.5-31-56.5-35.8-77.9-9-.5.7-1.1,1.3-1.6,2,20-4.5,42.2,4.4,52,25.3,23.2,49.6,54.9,128.2,82,233.8,12.5,6.9,25,14.4,37.5,22.9h0c-29-126.6-65.8-219.1-92-275Z"/>
            <path class="cls-6" d="M777.1,295.6c-33.5-26.1-47.5-14.4-47.5-14.4-39.1,41.9-99.1,205.9-101,211,0,0,0-.2,0-.4,1.1-5.2,9.2-46.4,19.5-98.4,0-.2,0-.4,0-.6,15.1-59.6,39.7-132.6,77.3-179,0,0,50.2,40.9,51.5,81.9Z"/>
            <path class="cls-6" d="M492.8,1733.8s-103,52.6-189.4-78.8c-69.4-105.7-13.1-202.5,24.4-248.9,9-11.1-.8-27.4-14.8-24.7-102.6,19.9-171.3,107-174.6,111.3,100.8-191.7,292.5-145.9,297.4-144.7h0s-137.3,92.2-117.7,219.7c19.6,127.5,174.6,165.8,174.6,165.8v-.5.9Z"/>
          </g>
          <path class="cls-6" d="M1694,718.2c-42-102.1-137.5-122.8-171.8-127-7.7-.9-14.4-5.9-17.3-13.1-122.2-295.7-480.3-313.5-480.3-313.5,1-.2,18-3.2,45.8-4.1,6.8-.3,14.2-.3,22.2-.2,3.9,0,8,.2,12.2.3,9.4.4,19.6,1,30.2,2.1,4.6.5,9.3,1,14.1,1.6,2.6.3,5.3.7,8,1.1,5.3.7,10.7,1.6,16.3,2.6.3,0,.6,0,.9.2,2.6.5,5.2,1,7.8,1.5,9.1,1.8,18.4,3.8,27.9,6.3,2.4.6,4.9,1.2,7.3,2,1.8.4,3.7.9,5.5,1.5,2.3.6,4.5,1.2,6.8,1.9,10.4,3.1,20.9,6.6,31.5,10.6,1.9.7,3.8,1.5,5.7,2.2,7.6,3,15.2,6.2,22.8,9.7,2.6,1.2,5.2,2.3,7.7,3.6,2.1,1,4.3,2.1,6.5,3.1,6,2.9,12,6,17.9,9.3,3.1,1.7,6.2,3.4,9.3,5.2,3.2,1.9,6.5,3.8,9.7,5.8,2.8,1.6,5.5,3.3,8.1,5.1,3.8,2.4,7.5,4.8,11.3,7.4,64.5,43.6,127.6,109.6,178.2,208.6,0,0,142.9,30.4,153.5,126.7,1.1,10.7,2,24.1,2.1,39.7Z"/>
        </g>
      </g>
      <g>
        <g>
          <path class="cls-10" d="M1080.5,1300.4c-50.1,0-90-6.5-118.5-19.3l13.1-29.2c25.1,11.2,61.8,16.8,109.1,16.5,99.7-.7,200.4-29.1,291.2-82.3,129.9-76.1,219.7-173.3,266.9-288.9,40.9-100.2,37.2-185.1,33.7-217-9.2-83.6-139.6-112.5-140.9-112.8-4.7-1-8.7-4.1-10.9-8.4-71.6-140.4-176.7-229.9-312.4-266.2-101.7-27.2-183.5-12.6-184.3-12.5l-5.9-31.5c3.6-.7,88.6-16,197,12.6,98.8,26.1,235.8,95.3,330.7,276.4,31.4,8.1,148.2,44.6,158.5,138.8,3.8,34.3,7.8,125.6-35.9,232.6-49.9,122.3-144.3,224.7-280.4,304.5-95.6,56-201.8,86-307.1,86.7-1.3,0-2.6,0-3.9,0Z"/>
          <path class="cls-10" d="M999.9,1237.9c-5.5,10.6-12,20.1-19.3,29.2-7.3,9.1-15.4,17.5-23.9,25.7-8.5,8.2-17.8,15.8-27.7,22.7-10,6.9-20.9,12.8-32.6,17.5h0c-6.7,2.7-14.3.3-18.2-5.4l-.2-.3c-1.9-2.8-3.2-4.8-4.7-7.2-1.4-2.3-2.7-4.6-4-6.9-2.5-4.6-4.9-9.3-7.1-14-4.4-9.4-8.3-19.1-11.6-28.9-3.2-9.8-6.1-19.8-8.2-29.9-2.3-10.1-3.7-20.4-5-30.7l31.6,1.7c-.3,1.4-.5,2-.7,2.8-.2.9-.5,1.5-.7,2.3-.5,1.5-1,2.9-1.5,4.2-1,2.8-2.2,5.4-3.4,8-2.5,5.1-5.2,10.1-8.3,14.7-6.2,9.3-13.4,17.7-21.3,25.3-8.1,7.4-16.7,14.1-25.9,19.7-4.5,3-9.3,5.3-14,7.9-4.8,2.4-9.7,4.5-14.5,6.7-7.8,3.6-16.9.2-20.5-7.6-.2-.4-.3-.8-.5-1.2l-.2-.6c-10.9-30-21.5-59.9-31.7-90.3l-7.5-22.9-1.8-5.8-1.8-5.2c-1.2-3.4-2.2-6.9-3.8-10.2-5.5-13.5-12.8-26.4-21.1-39.4-16.7-25.9-35.9-52.8-50.7-82.3-15.1-29.3-26.9-60.1-35.8-91.5l1.9,4.2-211.1-328.7-26.4-41.1-13.2-20.5c-5.8-8.8-9.7-20.2-9.8-31.4-.4-22.6,13-44.2,33.5-54,5-2.5,10.5-4.1,16-4.9,5.3-.9,11.8-.8,15.2-.6l24.4.8,195.2,6.3-16.4,14c3.6-25.5,8.3-49.9,13.8-74.6,5.6-24.6,11.8-49.1,19.5-73.2,1.8-6.1,3.9-12.1,6-18.1,2.1-6,4-12,6.4-18l6.9-17.8,7.8-17.6c10.9-23.3,23.5-46.2,40.1-67.2,5.4-6.9,15.4-8,22.2-2.6,0,0,.3.2.3.3,3.9,3.2,6.9,6.1,10.2,9.2,3.2,3.1,6.3,6.2,9.3,9.5,6,6.6,11.8,13.4,17,20.9,5.2,7.5,10.1,15.4,13.8,24.4,3.7,9,6.6,18.9,7.1,29.7l-27.8-10.3c15.2-16.3,30.5-31.7,46.3-47.1,15.8-15.2,31.8-30.2,48.5-44.6,16.7-14.4,33.7-28.5,51.6-41.6,18-13.1,36.6-25.6,56.9-36.4h0c6.7-3.9,15.1-2.1,19.7,3.9l.6.7c4.1,5.3,7.3,9.9,10.4,14.9,3.2,4.9,5.9,10.1,8.7,15.1,5.4,10.3,10.2,20.8,14.2,31.7,8.2,21.6,13.7,44.3,16.2,67.3l1.1,8.6c.2,2.9.3,5.8.4,8.7.1,5.8.6,11.5.4,17.3-.4,11.6-.9,23-2.9,34.4-3.1,22.8-10.4,44.7-19.8,65.1-1.1,2.5-4.1,3.6-6.6,2.5-2-.9-3.1-2.9-2.9-5v-.4c.6-5.5,1.2-10.9,1.8-16.2.7-5.3,1.6-10.6,1.7-16l1-15.9c.3-2.6.3-5.3.2-7.9v-7.9c-.2-5.3.3-10.5-.4-15.7-.4-5.2-.8-10.4-1.1-15.7-.4-5.2-1.3-10.4-2-15.5l-1-7.7-1.5-7.7c-1.7-10.2-4.6-20.3-7.1-30.3l-4.7-14.8c-1.6-4.9-3.5-9.8-5.3-14.6-1.9-4.8-4-9.6-5.9-14.4l-6.5-14.1c-2.3-4.6-4.6-9.2-7.1-13.7-1.2-2.3-2.5-4.5-3.7-6.7-.6-1.1-1.2-2.2-1.9-3.2l-1.7-2.9,20.2,4.7h0c-18.1,9.6-35.6,21.3-52.6,33.7-17.1,12.5-33.4,26.1-49.6,40-16.2,13.9-31.8,28.6-47.2,43.4-15.3,14.9-30.6,30.2-44.9,45.7-6,6.5-16.2,6.9-22.7.8-3.2-2.9-4.9-6.8-5.1-10.8v-.3c-.3-5.7-2-11.9-4.6-18.2-2.6-6.3-6.4-12.5-10.6-18.6-4.2-6.1-9.1-11.9-14.3-17.5-2.6-2.8-5.3-5.6-8-8.2-2.7-2.6-5.7-5.4-8.2-7.4l22.6-2.3c-14.2,18-25.8,38.8-35.9,60.4l-7.3,16.4-6.6,16.9c-2.3,5.6-4.1,11.4-6.1,17.1-1.9,5.7-4,11.4-5.7,17.3-7.4,23.1-13.4,46.8-18.8,70.6-5.3,23.8-10,48.1-13.3,71.8v.2c-1.2,8.2-8.3,14-16.4,13.8l-195.2-6.3-24.4-.8c-2,0-4.3-.2-5.3,0-1.3.1-2.6,0-3.8.3-2.5.4-4.9,1.1-7.2,2.2-9.1,4.2-15.5,14.5-15.3,24.6.1,5.1,1.6,9.7,4.7,14.6l13.2,20.5,26.4,41.1,211.1,328.7h0c.8,1.3,1.5,2.8,1.9,4.2,8.5,29.7,19.5,58.5,33.5,85.6,13.7,27.4,31.5,52.4,49.2,79.8,8.8,13.8,17.2,28.6,23.7,44.5,1.8,3.9,3,8,4.5,12.1l2.1,6,1.8,5.6,7.3,22.4c10,29.9,20.6,59.8,31.4,89.5l-21.2-9.3c4.1-1.9,8.2-3.7,12.2-5.7,3.8-2.2,7.9-4.1,11.6-6.6,7.6-4.6,14.4-10.1,20.9-15.9,6.2-6,11.9-12.5,16.5-19.6,2.4-3.5,4.4-7.2,6.2-10.9.9-1.8,1.7-3.7,2.4-5.5.3-.9.7-1.8,1-2.7l.6-2,.3-1.1c2.6-8.5,11.6-13.2,20-10.6,6.3,1.9,10.5,7.3,11.2,13.4,1.1,9.1,2.4,18.2,4.4,27.1,1.8,9,4.4,17.8,7.3,26.5,2.9,8.7,6.4,17.2,10.2,25.5,1.9,4.1,4,8.2,6.2,12.1,1.1,1.9,2.2,3.9,3.3,5.8,1.1,1.8,2.4,3.9,3.3,5.1l-18.4-5.7h0c9.4-3.4,18.7-7.5,28-12.4,4.5-2.6,9.2-5.1,13.6-8.1,4.6-2.8,9-5.8,13.4-8.9,8.8-6.3,17.3-13.2,25.8-20.2l25.5-21.4.2-.2c2.2-1.8,5.4-1.5,7.2.6,1.4,1.6,1.6,3.8.6,5.6Z"/>
          <path class="cls-10" d="M1360.3,359.1c-7.3,0-13.9-5-15.6-12.4-28.7-125.5-65.3-217.1-90.9-271.8-4.5-9.6-13.1-15.8-23.6-17.1-10.4-1.2-20.6,3-27.2,11.2-104.6,131.4-116.7,193.5-116.8,194.2-1.6,8.7-9.8,14.5-18.5,13-8.7-1.5-14.5-9.6-13.1-18.3.4-2.8,12.1-69.1,123.3-208.9,13.5-17,34.5-25.7,56-23.1,21.5,2.5,39.7,15.7,48.9,35.3,26.3,56.1,63.8,149.9,93.1,278.2,2,8.6-3.4,17.2-12,19.2-1.2.3-2.4.4-3.6.4Z"/>
          <path class="cls-10" d="M959.3,794c1.2-1.7,2.1-2.8,2.9-3.9.9-1.2,1.8-2.3,2.7-3.3,1.8-2.1,3.6-4.2,5.4-6.1,3.6-3.9,7.5-7.5,11.3-11.1,4-3.5,8-6.8,12.1-10,4.3-3,8.4-6.2,12.8-9,4.4-2.8,8.8-5.5,13.4-8l13.9-7.1c9.7-4,19.2-8,29.2-10.7,19.9-5.6,40.4-8.8,60.7-7.9,10.1-.2,20.1,1.5,29.9,3,4.9.6,9.7,2.1,14.5,3.4,4.8,1.3,9.4,2.7,14.1,4.2,3.5,1.1,5.4,4.8,4.3,8.3-.8,2.5-2.9,4.2-5.4,4.6h-.7c-4.7.8-9.2,1.4-13.8,1.9-4.5.6-9,.7-13.4,1.8-8.8,1.7-17.5,3-25.9,5.6-16.9,4.2-32.8,10.6-47.7,18.2-14.9,7.5-28.8,16.7-41.8,26.9-6.4,5.2-12.7,10.5-18.6,16-2.9,2.8-5.9,5.6-8.7,8.4-1.5,1.4-2.8,2.8-4.1,4.2-.7.7-1.3,1.4-1.9,2-.6.7-1.3,1.4-1.5,1.5l-7.4,4.9c-12.3,8.1-28.9,4.8-37.1-7.6-6.3-9.5-5.7-21.5.5-30.2Z"/>
          <path class="cls-10" d="M1425.1,500.5l-2.2,2.3c-.9.9-1.8,1.8-2.7,2.8-1.8,1.8-3.6,3.8-5.3,5.8-3.5,4-6.9,8.2-10.1,12.5-6.4,8.6-12.2,17.9-16.8,27.8-4.7,9.9-8.6,20.4-11.1,31.5-1.5,5.5-2.2,11.2-3.2,17.1-1,5.8-1,11.8-1.9,17.9v.6c-.4,2.4-2.7,4.1-5.1,3.8-1.7-.2-3-1.4-3.6-2.9-2-6-4.3-12.2-5.6-18.6-1.1-6.4-2.5-12.9-2.6-19.6-1-13.3.6-26.8,3.9-40,1.5-6.7,4-13,6.4-19.4l4.4-9.3c1.6-3.1,3.3-6,5-9,1.8-2.9,3.7-5.7,5.6-8.6,2.1-2.8,4.2-5.5,6.3-8.2,2.3-2.6,4.6-5.2,7.1-7.7,1.2-1.2,2.6-2.5,3.9-3.7.7-.6,1.4-1.2,2.1-1.8l2.5-2c7.8-6.3,19.3-5.1,25.6,2.8,5.8,7.3,5.2,17.6-1.1,24.2l-1.7,1.7Z"/>
          <path class="cls-10" d="M1313.4,719.5c14.8-14.2,35.6-32.7,56-46.5,10.6-7.1,25.3-3.8,31.6,7.3,6.5,11.4,10.8,29.1,2.9,54.3-3.6,11.5-12.9,20.6-24.6,23.7-14.1,3.8-35.1,6.4-58-1.6-15.7-5.4-19.9-25.8-7.9-37.3Z"/>
          <ellipse class="cls-10" cx="1465.6" cy="876.9" rx="57.4" ry="85.9" transform="translate(-240.2 961.4) rotate(-33.7)"/>
          <path class="cls-10" d="M749.4,1205.6c-30.5,25.1-61,50.3-91.3,75.6-30.3,25.4-60.5,50.8-90,76.8l1.9-21.9c1.1.8,2.8,2.4,4.2,3.7l4.6,4.1c3.1,2.8,6.3,5.5,9.4,8.3,6.4,5.4,13,10.6,19.9,15.4,6.9,4.8,14.1,9.3,21.7,13.5,7.6,4.4,15.8,8,24.7,12.3h0c1.4.7,2.1,2.4,1.4,3.9-.3.7-.9,1.2-1.6,1.5-9.7,3.6-20.2,4.5-30.6,3.6-10.4-.9-20.6-3.7-30.2-7.8-9.6-4.1-18.6-9.4-26.8-15.7-4.1-3.1-8-6.6-11.6-10.3-1.8-1.9-3.6-3.8-5.3-5.8-1.8-2.1-3.2-3.9-5.1-6.8h0c-5.3-6.7-4.4-16.4,1.9-22,29.9-26.4,60.2-51.9,90.6-77.4,30.4-25.4,60.9-50.7,91.6-75.8,6.8-5.6,16.9-4.6,22.6,2.2s4.6,16.9-2.2,22.6h0Z"/>
          <path class="cls-10" d="M339.1,1983.6c-23.5,0-45.4-2.6-65-6.4-82.9-16.3-140.5-57.3-142.9-59-7.1-5.1-8.8-15.1-3.7-22.2,8.6-12.2,22.8-21.7,36.1-28.5-93.2-58.7-141.4-152.7-139.8-273.8,1.2-98.9,34.9-180,36.3-183.4,1.8-4.2,5.2-7.4,9.5-8.9,4.3-1.5,9-1.1,13,1.1,24.4,13.6,40.1,43.4,49.4,68.6,53.5-91.4,127.6-125.5,183.3-137.7,67.6-14.8,122.1-1.4,124.4-.8,6.1,1.6,10.8,6.6,11.9,12.8,1.1,6.2-1.6,12.5-6.9,16-1.3.9-128.6,88.2-110.8,204,13.8,89.4,103.3,131.8,143.3,146.4,8.2-185.2,100.8-334.1,104.9-340.6,4.7-7.5,14.6-9.7,22.1-5,7.5,4.7,9.7,14.6,5,22.1-1,1.6-99.1,159.8-100.6,345.4,0,4.9-2.3,9.5-6.2,12.5s-8.9,4.1-13.7,2.9c-6.8-1.7-165.6-42.4-186.6-178.9-15-97.8,52.8-174.6,94.4-211.5-60.9-3.9-185.3,8.8-254.3,162.2-2.9,6.4-9.5,10.1-16.5,9.3-6.9-.8-12.6-6-13.9-12.9-3-15.2-13.2-51.6-30.2-73.4-9.8,29.6-25.5,87-26.1,151-1.3,121.5,49.8,209.2,151.8,260.6,5.9,3,9.3,9.2,8.8,15.8-.6,6.6-5.2,12.1-11.5,13.9-10.2,3-26.2,9.5-38.2,17.4,21.8,12.6,63.3,33.4,114.6,43.3,100.7,19.4,190.4-9.9,266.6-87.3,6.2-6.3,16.3-6.4,22.7-.2,6.3,6.2,6.4,16.4.2,22.7-78.7,79.9-162.3,102.5-231.8,102.5Z"/>
          <path class="cls-10" d="M1174.4,1964.3h-227c-354.6,0-408.5-60.7-415.7-72.9l27.6-16.3s-.2-.4-.6-.9c.5.6,50.2,58.1,388.8,58.1h227c14.9,0,27.7-10.3,30.4-24.4,7-36.5-7.4-62.5-43.9-79.4-81.9-37.9-140,12.8-142.4,15l-21.5-23.7c3.1-2.8,75.7-67.4,177.4-20.4,49.7,23,71.7,63.7,61.9,114.5-5.6,29.2-31.6,50.4-61.9,50.4Z"/>
          <path class="cls-10" d="M913.7,1885c5-6.2,10.2-11.1,15.5-15.7,2.7-2.2,5.3-4.4,8-6.6,2.7-2.1,5.5-3.9,8.3-5.9,11.2-7.4,22.5-14.9,32.8-23.5,20.8-17.1,40.2-35.9,57.3-56.8,4.3-5.2,8.2-10.6,12.4-15.9l6.2-8,5.6-8.4,11.2-16.8,10.1-17.6,5.1-8.8,4.5-9.1,9.1-18.2c1.7-3,2.9-6.1,4.2-9.3l4-9.4,8.2-18.8h0l.2-.6c3.2-8.3,12.4-12.4,20.7-9.2,6.4,2.4,10.3,8.5,10.3,14.9v160.4c0,8.9-7.2,16-16,16s-16-7.2-16-16v-160.4l31.2,5.2h0c-4.6,13.8-8.9,27.8-14.4,41.3l-9,20-4.5,10-5.3,9.6-10.8,19.2c-3.9,6.2-8.1,12.3-12.2,18.4l-6.2,9.1-6.8,8.7c-4.6,5.7-9,11.7-13.9,17.2-19.6,22.1-41.4,42.2-65.6,59.1-3,2.1-6,4.3-9.1,6.3l-9.4,5.9c-6.2,4-12.7,7.5-19.2,10.9-3.3,1.6-6.8,2.9-10.3,4.2l-5.3,1.7c-1.9.4-3.7.9-5.6,1.2-7.4,1.5-15.2,2.1-23.5.6-1.6-.3-2.7-1.8-2.4-3.4,0-.5.3-.9.6-1.3l.2-.2Z"/>
          <path class="cls-10" d="M1353,1936.8h-134.8c-8.8,0-16-7.2-16-16s7.2-16,16-16h134.8c14.4,0,27.3-6.8,35.3-18.7,8.1-12,9.7-26.7,4.3-40.2-14-35-32.1-59.3-53.7-72.2-1.6-1-3.1-2.2-4.2-3.7-1.6-1.9-15.5-19.7-20-45.6-3.8-21.6-1.2-88.1-.4-105.8-6.2-15.1-29.5-76.2-38-150.7-5.5,6.4-11.3,12.5-17.2,17.2-4.5,3.6-10.5,4.5-15.8,2.4s-9.2-6.9-10-12.5c-.9-6-21.9-148.5,2.6-221.6,2.8-8.4,11.9-12.9,20.3-10.1,8.4,2.8,12.9,11.9,10.1,20.3-15.3,45.7-10.1,126.7-5.4,172.5,6.6-8.8,12.1-17.3,14.8-21.7,3.7-6.1,10.9-9.1,17.9-7.2,6.9,1.8,11.8,8,11.9,15.2,1.9,97.5,39.5,186.3,39.9,187.2.9,2.2,1.4,4.6,1.3,7.1-1.5,32.8-2.9,87.2-.2,102.4,2.4,13.9,9.1,24.8,11.9,29,26.5,16.8,48.1,45.8,64.2,86,9.3,23.2,6.5,49.4-7.5,70-13.9,20.6-37,32.8-61.9,32.8Z"/>
          <path class="cls-10" d="M1330.4,1631.8c-5.8,0-11.4-3.2-14.3-8.7-4-7.9-.9-17.5,6.9-21.6,29.8-15.3,49-56.3,49.2-56.7,3.1-6.6,10.2-10.4,17.4-9.1,7.2,1.3,12.6,7.2,13.2,14.5.6,7,3.7,13.4,7.2,18.6,72.9-111,33.9-211.6,33.5-212.7-2.9-7.3-.1-15.7,6.7-19.7,6.8-4,15.5-2.6,20.5,3.5,5.8,6.9,10.9,11.3,15.2,13.9-20.8-108.3-83.3-158-83.9-158.6-7-5.4-8.3-15.5-2.9-22.5,5.4-7,15.4-8.3,22.4-2.9,3.3,2.5,81.1,63.6,99.4,199.5.9,6.5-2.3,12.9-8,16.1-.8.4-12.3,6.6-29,2,6.9,48.2,5,130.5-59.3,216.3-2.6,3.4-6.4,5.7-10.6,6.3-4.2.6-8.5-.6-11.9-3.2-1.6-1.2-10.3-8.1-18.1-19.4-10.8,15.1-26.4,32.4-46.2,42.5-2.4,1.2-4.9,1.8-7.3,1.8Z"/>
          <path class="cls-10" d="M1468.1,1870.1h-56.6c-8.8,0-16-7.2-16-16s7.2-16,16-16h56.6c6.2,0,12.2-2.7,16.3-7.3,4.1-4.6,5.9-10.4,5.2-16.4-4.8-41.4-24-74.3-36.1-82.2-16.4-10.8-29.9-28-38.4-40.6-6.6-9.8-10.1-21.3-10.1-33.1v-77.4c0-8.9,7.2-16,16-16s16,7.2,16,16v77.4c0,5.4,1.6,10.7,4.7,15.2,9.6,14.3,20,25.6,29.4,31.7,23.5,15.4,45.1,60.7,50.3,105.3,1.8,15-3,30.1-13.1,41.5-10.2,11.5-24.9,18.1-40.2,18.1Z"/>
        </g>
        <g>
          <path class="cls-10" d="M1153.8,1942.5c1.3-1.6,3-4.3,4.3-6.6,1.4-2.4,2.7-4.9,3.9-7.5,2.4-5.1,4.3-10.5,5.7-16.1,1.5-5.5,2.1-11.2,2.2-17,.2-5.8-.9-11.5-2.3-17.3v-.2c-.4-1.6.5-3.1,2.1-3.5,1.3-.3,2.7.3,3.3,1.5,2.9,5.7,5.6,11.9,7,18.4,1.4,6.5,2.2,13.2,2,19.9-.1,6.7-.9,13.4-2.2,20-.7,3.3-1.5,6.6-2.5,9.9-1,3.4-2,6.3-3.7,10.1l-.2.4c-2.6,5.8-9.4,8.5-15.2,5.9-5.8-2.6-8.5-9.4-5.9-15.2.4-.9.9-1.8,1.5-2.5Z"/>
          <path class="cls-10" d="M1336.2,1909.4c1.3-1.6,3-4.3,4.3-6.6,1.4-2.4,2.7-4.9,3.9-7.5,2.4-5.1,4.3-10.5,5.7-16.1,1.5-5.5,2.1-11.2,2.2-17,.2-5.8-.9-11.5-2.3-17.3v-.2c-.4-1.6.5-3.1,2.1-3.5,1.3-.3,2.7.3,3.3,1.5,2.9,5.7,5.6,11.9,7,18.4,1.4,6.5,2.2,13.2,2,19.9-.1,6.7-.9,13.4-2.2,20-.7,3.3-1.5,6.6-2.5,9.9-1,3.4-2,6.3-3.7,10.1l-.2.4c-2.6,5.8-9.4,8.5-15.2,5.9-5.8-2.6-8.5-9.4-5.9-15.2.4-.9.9-1.8,1.5-2.5Z"/>
          <path class="cls-10" d="M1446.5,1848.4c1.3-1.6,3-4.3,4.3-6.6,1.4-2.4,2.7-4.9,3.9-7.5,2.4-5.1,4.3-10.5,5.7-16.1,1.5-5.5,2.1-11.2,2.2-17,.2-5.8-.9-11.5-2.3-17.3v-.2c-.4-1.6.5-3.1,2.1-3.5,1.3-.3,2.7.3,3.3,1.5,2.9,5.7,5.6,11.9,7,18.4,1.4,6.5,2.2,13.2,2,19.9-.1,6.7-.9,13.4-2.2,20-.7,3.3-1.5,6.6-2.5,9.9-1,3.4-2,6.3-3.7,10.1l-.2.4c-2.6,5.8-9.4,8.5-15.2,5.9-5.8-2.6-8.5-9.4-5.9-15.2.4-.9.9-1.8,1.5-2.5Z"/>
        </g>
      </g>
    </g>
  </g>
  <path class="cls-11" d="M1721.1,1667.2c-7.7-2.5-15.5-3.8-23.2-4.7-1.1-.1-2.2-.2-3.3-.3-5.6-.5-10.1-4.9-10.7-10.5-.1-1.1-.3-2.2-.4-3.3-.5-3.9-1.2-7.8-2.1-11.7-.9-3.9-1.9-7.8-3.4-11.7-.4-1.1-1.4-2.1-2.8-2.4-1.8-.4-3.6.7-4.3,2.5-1.5,3.9-2.5,7.8-3.4,11.6-.9,3.9-1.5,7.8-2.1,11.7-.2,1.2-.3,2.4-.4,3.5-.6,5.5-4.9,9.9-10.5,10.5-1.2.1-2.4.3-3.5.4-3.9.5-7.8,1.2-11.7,2.1-3.9.9-7.8,1.9-11.7,3.4-1.1.4-2.1,1.4-2.4,2.8-.4,1.8.7,3.6,2.5,4.3,3.9,1.5,7.8,2.5,11.6,3.4,3.9.9,7.8,1.5,11.7,2.1,1.1.1,2.2.3,3.3.4,5.6.6,10,5.1,10.5,10.7.1,1.1.2,2.2.3,3.3,1,7.8,2.2,15.6,4.8,23.5.6,1.7,2.1,3.1,4.1,3.3,2.3.2,4.4-1.3,5.1-3.5,2.5-7.7,3.8-15.5,4.7-23.2.1-1.1.2-2.2.3-3.3.5-5.6,4.9-10,10.5-10.5,1.1-.1,2.2-.2,3.3-.3,7.8-1,15.6-2.2,23.5-4.8,1.7-.6,3.1-2.1,3.3-4.1.2-2.3-1.4-4.3-3.5-5Z"/>
</svg>