<?xml version="1.0" encoding="iso-8859-1"?>
<!-- Generator: Adobe Illustrator 16.0.0, SVG Export Plug-In . SVG Version: 6.00 Build 0)  -->
<svg version="1.2" baseProfile="tiny" id="Layer_1" xmlns="http://www.w3.org/2000/svg" xmlns:xlink="http://www.w3.org/1999/xlink"
	 x="0px" y="0px" width="914px" height="913px" viewBox="0 0 914 913" xml:space="preserve">
<g>
	<g>
		<path fill="none" stroke="#FFFFFF" stroke-miterlimit="10" d="M442.0918,913.7031c-147.1152,0-294.231,0-441.3677,0
			c0-304.29,0-608.5796,0-912.9346c304.7075,0,609.436,0,914.2749,0c0,304.2676,0,608.6006,0,912.9346
			c-145.1748,0-290.415,0-435.6563,0c-0.2344-0.3789-0.1836-0.7139,0.1494-1.0078c0.3184-0.2217,0.6689-0.375,1.0459-0.4678
			c11.3916-1.2764,22.876-1.1699,34.2842-2.2861c13.3838-1.3096,26.8037-2.2314,40.168-3.7354
			c21.9951-2.4766,43.877-5.7539,65.6738-9.5693c22.4004-3.9219,44.4727-9.2568,66.2744-15.7461
			c21.3555-6.3564,42.1094-14.373,62.8027-22.5488c23.54-9.3018,46.5957-19.6895,68.2686-32.8389
			c13.4297-8.1484,26.3135-17.1436,37.1943-28.6436c6.3008-6.6592,11.0479-14.2402,12.8145-23.4043
			c0.7607-3.9453,0.6992-7.9492,0.1934-11.8965c-0.5752-4.5-2.6963-8.1943-6.7012-10.6074
			c-4.5605-1.0576-5.8604-4.3359-6.6191-8.5898c-2.0146-11.3008-8.7412-20.2393-15.4063-29.1611
			c-2.1729-2.9092-4.8857-5.3506-7.0225-8.2813c-6.1963-7.6904-12.6406-15.1465-20.4072-21.3379
			c-7.2998-7.0352-15.8438-12.7344-22.4629-20.4736c-5.9951-7.0098-13.0059-13.0391-18.9346-20.1016
			c-8.5098-9.3008-15.3623-19.7744-21.3887-30.7695c-18.5605-33.8623-30.5977-70.0205-37.5371-107.9365
			c-2.3389-12.7754-4.5957-25.5664-5.9297-38.4932c-0.8271-8.0176-1.4336-16.0527-1.8848-24.1064
			c-0.5166-9.21-0.9395-18.4316-1.8438-27.6172c-0.459-4.6543-0.3555-9.3311-0.7109-14
			c-0.4697-6.1606-0.6953-12.3682-0.8457-18.5532c-0.3291-13.5537-1.2578-27.0737-1.8945-40.6108
			c0.0059-0.4019,0.0625-0.7974,0.1514-1.188c0.46-3.9565,0.6191-7.9067-0.2217-11.8403
			c-1.4092-12.1919-2.1172-24.4414-3.1094-36.667c-0.3027-3.7275-0.6641-7.4512-1.127-11.1611
			c-1.084-21.0898-4.999-41.6963-10.627-62.0049c-3.7119-13.1509-7.4248-26.3691-14.4258-38.209
			c-7.3291-12.3931-17.8271-21.772-30.2148-29.0483c-11.0771-7.5264-23-13.5073-35.1074-19.127
			c-15.3232-7.1118-31.082-13.0396-47.5527-16.9487c-11.6416-6.5103-21.4248-14.667-25.0273-28.2866
			c-0.1807-0.6782-0.1426-1.395-0.208-2.0938c-0.5146-5.4927,1.0029-10.5078,4.0205-14.9771
			c5.2422-7.7637,7.4922-16.5225,7.5371-25.5864c0.0527-10.8442-4.5-20.0601-13.2207-26.7417
			c-15.0918-11.5625-31.8213-13.0308-49.5449-7.4307c-1.1133,0.3525-2.2188,0.7803-3.2598,1.2993
			c-2.4297,1.2119-4.1152,0.7188-5.4922-1.7202c-2.8262-5.0054-7.4502-6.7974-12.9678-6.8721
			c-3.7637-0.0508-7.4854-0.0278-11.0273,1.5459c-3.2734,1.4541-6.2744,3.1904-7.9131,6.582
			c-1.1309,2.3394-2.7285,2.8491-5.1475,1.7271c-14.1738-6.5767-28.2979-5.394-42.0986,0.9731
			c-12.2334,5.6445-19.209,15.4692-20.5635,28.8936c-0.8447,8.374,1.625,16.3281,6.6758,22.7822
			c12.1992,15.5874,2.6895,44.8936-19.8389,51.1289c-27.249,7.5415-52.9277,18.7124-77.1172,33.3232
			c-4.2056,2.54-8.2915,5.2676-11.9727,8.5488c-15.2876,10.4492-24.7109,25.1392-30.5688,42.3833
			c-2.3262,6.8472-4.7739,13.6553-6.8472,20.5908c-2.7847,12.1655-6.1787,24.1982-7.6592,36.6328
			c-0.6475,5.4424-1.3862,10.8745-1.8125,16.3442c-1.0034,12.2275-2.1177,24.4424-2.7422,36.6982
			c-0.3447,6.7646-1.0483,13.5137-1.5552,20.2686c-0.4346,1.6528-0.8652,3.3091-0.4272,5.043
			c0.0566,0.3872,0.064,0.7734,0.0425,1.1626c-0.4219,12.2666-1.1685,24.5176-1.7163,36.7764
			c-0.7139,15.9854-1.2324,31.9858-2.5005,47.9536c-0.7852,9.8926-1.1357,19.8359-1.7505,29.7471
			c-0.9346,15.0664-3.1611,29.9961-5.6465,44.8916c-5.5181,33.0713-14.627,65.0635-28.3828,95.6709
			c-8.1899,18.2236-18.1851,35.374-31.0234,50.7725c-0.9009,1.0801-1.8379,2.123-2.8682,3.0742
			c-6.9521,7.5078-13.9365,15.0049-21.1587,22.249c-5.7363,5.7549-11.728,11.3037-18.146,16.3389
			c-9.0806,7.4199-16.5254,16.3789-23.9087,25.3975c-4.5039,5.8242-9.2925,11.46-13.1172,17.7549
			c-3.5996,5.9238-6.0962,12.3779-7.1909,19.2715c-0.395,2.4873-1.4917,4.1035-4.0083,4.6279
			c-0.3179,0.1523-0.6421,0.2881-0.9639,0.4355c-0.313,0.1855-0.6348,0.3467-0.9604,0.5059
			c-6.8022,5.0928-7.5728,12.2119-6.7271,19.8916c1.2031,10.9258,6.9292,19.5469,14.2773,27.1641
			c9.8984,10.2598,21.6162,18.2705,33.5537,25.9209c24.0889,15.4355,50.4604,26.0947,76.8501,36.7744
			c37.8896,15.334,76.7515,27.3066,116.9214,34.9248c23.1226,4.3857,46.4058,7.7119,69.8169,10.1572
			c17.2119,1.7979,34.4648,3.001,51.7217,4.2451c9.1367,0.6582,18.2471,0.249,27.3604,0.6055
			C439.5049,912.1504,441.5127,911.3203,442.0918,913.7031z"/>
		<path fill="#EDEAEB" d="M442.0918,913.7031c-0.9199-1.0742-2.1719-0.6748-3.2939-0.6836
			c-5.3857-0.0381-10.7783-0.1895-16.1563,0.0234c-6.0938,0.2412-12.1123-0.6777-18.1748-0.8877
			c-6.2607-0.2158-12.543-0.7998-18.7852-1.3975c-6.4707-0.6201-12.9668-1.0508-19.4336-1.8154
			c-5.4121-0.6396-10.8809-1.0283-16.3115-1.6182c-6.2295-0.6758-12.4219-1.6904-18.6309-2.5645
			c-5.4063-0.7617-10.8115-1.5352-16.2188-2.2969c-11.3955-1.6055-22.7012-3.7168-33.9824-5.9805
			c-11.5332-2.3145-22.9692-5.0508-34.3193-8.1104c-16.2227-4.3721-32.248-9.3809-48.0654-15.0879
			c-13.7256-4.9531-27.1899-10.5557-40.7891-15.8213c-6.3076-2.4414-12.48-5.2461-18.647-8.0332
			c-7.1328-3.2236-14.293-6.4111-21.2622-9.9648c-14.2671-7.2754-27.873-15.6777-40.6528-25.333
			c-5.8521-4.4209-11.7358-8.8799-16.6646-14.3945c-5.7993-6.4883-10.9736-13.374-13.0962-22.0391
			c-1.3428-5.4814-2.0288-11.0518-0.4727-16.5811c1.1938-4.2393,3.2983-7.958,7.6958-9.7676
			c1.3457,1.3408,1.5132,3.1738,1.7886,4.8594c3.1611,19.3682,13.8672,33.79,28.9351,45.7471
			c12.2036,9.6846,25.5884,17.3232,39.3203,24.418c23.0024,11.8848,46.562,22.5264,70.7617,31.8135
			c31.624,12.1357,64.3286,20.0869,97.4741,26.5498c24.3804,4.7539,48.9829,8.0156,73.6313,10.9033
			c14.2803,1.6729,28.5986,3.0791,42.9766,3.832c10.2764,0.5371,20.5391,1.2725,30.834,1.3555
			c1.1631,0.0088,2.3662,0.0215,3.2607,0.9893c0.6436,3.6416-0.0801,7.2383-0.3428,10.8525
			c-0.1836,0.3711-0.4102,0.7148-0.6768,1.0332C442.5605,913.7031,442.3262,913.7031,442.0918,913.7031z"/>
		<path fill="#848282" d="M442.7949,913.7031c0.0039-0.2373,0.0078-0.4736,0.0127-0.7109c0.4541-0.377,0.9404-0.7871,1.5283-0.8076
			c7.3301-0.248,14.6709-0.9238,21.9775,0.3682c0.457,0.2744,0.582,0.6582,0.3779,1.1504
			C458.7256,913.7031,450.7607,913.7031,442.7949,913.7031z"/>
		<path fill="#A19FA0" d="M466.6914,913.7031c0.0088-0.2021,0.0234-0.4023,0.0449-0.6035
			c4.2305-1.8818,8.4609-1.8877,12.6904,0.0049c0.0127,0.2051-0.0156,0.4043-0.084,0.5986
			C475.125,913.7031,470.9082,913.7031,466.6914,913.7031z"/>
		<path fill="#EDEAEB" d="M142.6631,645.8623c5.835-6.6855,11.0967-13.7939,16.0488-21.1621
			c8.3833-12.4746,14.8843-25.9023,20.793-39.667c4.5181-10.5264,8.5693-21.2285,12.062-32.124
			c4.1987-13.0967,7.5527-26.4189,10.2524-39.9248c1.9609-9.8066,3.7695-19.6426,5.3091-29.5117
			c1.0186-6.5303,1.9507-13.0986,2.4194-19.7314c0.4678-6.6182,1.0371-13.2246,1.4253-19.8535
			c0.4287-7.3223,0.8472-14.6494,1.3672-21.9648c0.5952-8.373,0.9395-16.7568,1.5049-25.1201
			c0.3481-5.1396,0.0425-10.2896,0.5977-15.3779c0.6738-6.1831,0.1577-12.4004,0.7891-18.5308
			c0.4219-4.0938,0.2417-8.1641,0.5874-12.2227c0.3574-4.186,0.8291-8.356,0.6826-12.5669
			c-0.0298-0.8584,0.4497-1.5596,0.8086-2.2925c1.0029-2.1382,3.1396-2.3267,5.0254-2.7383
			c17.1655-3.7456,34.4023-7.0986,51.8262-9.4487c16.4751-2.2217,32.9727-4.269,49.5049-5.9976
			c14.4277-1.5088,28.8789-2.769,43.3447-3.8945c12.5938-0.98,25.2119-1.5571,37.7998-2.5908
			c0.584-0.0479,1.168-0.1226,1.7529-0.1069c14.168,0.3848,28.3184-1.4365,42.4688-0.6606
			c15.7676,0.8643,31.5605,0.7358,47.3291,1.8237c12.4785,0.8604,24.9873,1.5,37.4561,2.4707
			c15.7402,1.2261,31.4854,2.4565,47.2139,3.8828c20.5352,1.8628,40.9893,4.2666,61.2842,7.9043
			c17.292,3.1001,34.4629,6.8164,51.582,10.7642c1.9863,0.4585,4.2715,0.5815,5.3467,2.8486
			c0.8467,3.0791,0.6797,6.2368,0.834,9.3818c0.3027,6.1753,0.374,12.3774,0.8506,18.5186
			c0.3701,4.7896-0.1133,9.6211,0.6152,14.312c1.0996,7.0781-0.2119,14.25,1.2637,21.2705
			c0.0713,0.3379,0.0518,0.7031,0.0264,1.0518c-0.4629,6.2041,0.5625,12.3525,0.8467,18.5234
			c0.3584,7.7861,0.9854,15.5654,1.3613,23.3613c0.3682,7.6563,1.1309,15.3096,2.1045,22.915
			c1.0908,8.5195,2.5195,16.9961,3.958,25.4717c2.2988,13.5459,5.0332,26.9824,8.5469,40.2637
			c3.4063,12.873,7.6279,25.4775,12.4863,37.8662c4.3936,11.2031,9.0449,22.3027,14.708,32.9365
			c5.0498,9.4814,10.6631,18.6348,16.9541,27.3447c2.4512,3.3926,5.2852,6.5088,7.9453,9.75
			c-4.4102,5.3105-9.4248,10.0342-14.542,14.6299c-10.2295,9.1875-22.4209,15.2109-34.6797,21.0938
			c-10.3506,4.9668-20.8721,9.5225-31.7051,13.3516c-20.4043,7.2109-41.5498,11.2871-62.7891,14.9902
			c-26.999,4.7061-54.1709,8.1484-81.4502,10.627c-15.0137,1.3643-30.0801,2.1992-45.1338,3.1377
			c-21.1689,1.3193-42.334,1.2217-63.5107,1.2412c-1.9619,0.002-4.0195,0.3047-5.7275-1.0967
			c-0.9424-0.9443-1.3721-2.1689-1.7158-3.4043c-4.3779-15.7334-11.8711-30.2217-17.9805-45.2646
			c-6.7266-16.5625-15.3799-32.3154-20.6846-49.4717c-1.5557-5.0342-2.7871-10.1465-3.9385-15.2783
			c-0.2939-1.3125-0.9063-2.7246,0.1055-4.043c1.4355-0.5938,2.5078,0.2734,3.54,0.9883
			c20.1123,13.9443,40.416,27.6445,57.6133,45.3027c2.5381,2.6064,4.7998,5.4443,7.1855,8.1768
			c1.4824,1.6963,2.6035,1.6836,3.8691-0.0986c4.4941-6.3291,10.0508-11.7383,15.3799-17.3135
			c5.3359-5.582,11.4766-10.3379,17.4404-15.2363c14.3096-11.752,29.6621-22.1143,44.5957-33.0342
			c14.4375-10.5576,27.8408-22.0166,37.3779-37.5732c10.5205-17.1621,17.1377-35.5879,19.9854-55.4326
			c1.2295-8.5723,2.0049-17.1777,2.2803-25.8545c0.2109-6.6611,1.0439-13.334,0.5449-19.9824
			c-0.7441-9.9209-0.2988-19.8809-1.2988-29.7891c-0.3037-3.0039-1.6455-2.4971-3.4678-1.5742
			c-7.4961,3.7998-15.4893,5.9512-23.7529,7.2588c-3.0898,0.4893-6.0869,0.3008-8.9922-0.792
			c-4.8428-1.8223-6.4355-6.6797-3.3008-10.75c1.7012-2.209,2.3486-4.4619,2.2461-7.1416
			c-0.1035-2.6895-0.0146-5.3867-0.0244-8.0811c-0.0186-5.0801-0.3564-5.6123-5.332-7.1807
			c-6.9395-2.1875-14.082-3.5342-21.2188-4.8716c-17.042-3.1938-34.2461-5.2847-51.5244-6.4248
			c-17.8594-1.1802-35.7285-1.269-53.6289,0.3848c-18.9072,1.7471-37.6953,4.0918-56.3018,7.856
			c-4.2471,0.8594-8.4395,1.9507-12.5938,3.1997c-2.8555,0.8579-4.3457,2.5239-4.1494,5.6206
			c0.1172,1.8662,0.1279,3.7539-0.0039,5.6191c-0.2822,4.0107,0.5039,7.2832,3.6348,10.3965
			c4.4727,4.4492,2.9814,9.7637-2.8652,12.3447c-2.835,1.252-5.7715,1.6592-8.9141,1.208
			c-8.0244-1.1494-15.249-4.4131-22.3721-8.0283c-3.1143-1.5801-3.1914-1.5244-3.1924,2.0117
			c-0.0078,23.7754-0.6455,47.5723,0.1914,71.3184c0.7178,20.3555,4.4131,40.2852,15.5107,58.0684
			c7.1006,11.3809,16.5879,20.5156,26.6846,29.1504c3.54,3.0273,7.7861,5.2598,10.5527,9.1777
			c0.9873,2.792,1.0879,5.7373,1.4746,8.6328c2.082,15.5654,6.8164,30.3662,13.1055,44.6855
			c2.0479,4.6641,3.2598,9.4805,4.1641,14.4531c2.8652,15.7754,5.1602,31.6836,10.5059,46.9111
			c0.9707,2.7656,2.0947,5.4658,3.1494,8.1963c0.5469,1.418,1.1396,2.8447,0.6777,4.4268
			c-1.2939,2.1914-3.5059,1.6914-5.3691,1.5537c-7.8076-0.5791-15.6338-0.8818-23.4336-1.5195
			c-17.7158-1.4492-35.376-3.4609-52.9375-6.2324c-33.7656-5.3271-67.4238-11.3203-100.3452-20.627
			c-22.0322-6.2285-43.1187-14.8779-62.0054-28.2529c-6.8286-4.8359-12.9092-10.4326-18.6563-16.4492
			C143.377,647.5732,142.7437,646.8711,142.6631,645.8623z"/>
		<path fill="#A175BD" d="M699.2451,340.0688c-4.8281-2.2358-10.0986-2.8647-15.208-3.9834
			c-13.1123-2.8696-26.2676-5.5537-39.4453-8.1118c-10.0801-1.957-20.2461-3.4214-30.4316-4.7681
			c-9.376-1.2397-18.7822-2.1733-28.1758-3.23c-6.1484-0.6914-12.333-1.0615-18.501-1.5757
			c-7.9121-0.6597-15.8232-1.334-23.7383-1.9717c-3.1436-0.2534-6.292-0.4336-9.4365-0.6987
			c-8.6133-0.7266-17.2607-1.0435-25.8838-1.6816c-9.0938-0.6729-18.1973-1.0674-27.3008-1.5181
			c-4.79-0.2378-9.5781-0.4424-14.3662-0.4893c-10.0605-0.0977-20.1064-0.8472-30.1738-0.5786
			c-10.1738,0.2715-20.3574,0.2871-30.5225,0.7368c-11.3203,0.501-22.6279,1.3052-33.9346,2.0894
			c-8.6201,0.5977-17.2393,1.2617-25.8398,2.0942c-10.2227,0.9888-20.4141,2.311-30.6396,3.2651
			c-10.6982,0.999-21.3413,2.4351-31.998,3.75c-20.167,2.4883-40.1533,6.0767-59.9976,10.4453
			c-2.1641,0.4766-4.3359,0.9668-6.3418,1.9697c0.0005-0.001-0.0161,0.0938-0.0161,0.0938c-0.7979-1.3511-0.5244-2.75-0.187-4.1519
			c0.5269-8.6226,0.9419-17.2539,1.6089-25.8657c0.8379-10.8145,1.3975-21.6548,2.707-32.4307
			c1.0381-1.0708,2.3989-1.3896,3.7935-1.6592c34.3994-6.6372,69.0044-11.9155,103.8335-15.7095
			c16.751-1.8252,33.5332-3.2148,50.3594-4.2441c23.4922-1.437,46.9961-2.4917,70.5156-1.8887
			c17.7666,0.4565,35.542,0.793,53.3037,1.8438c17.9873,1.064,35.9668,2.1992,53.9023,3.8486
			c30.2021,2.7773,60.2949,6.4805,90.2461,11.3477c14.3652,2.3345,28.5176,5.4619,42.459,9.6025
			c2.0537,0.6108,4.04,1.2529,5.2324,3.2261c1.2656,3.3462,0.9414,6.9082,1.3018,10.3643
			c0.8486,8.124,1.4316,16.2764,2.0791,24.4209c0.3604,4.5396,0.6348,9.0859,0.9473,13.6289
			c0.3682,3.9731,0.6211,7.9443-0.1494,11.9033L699.2451,340.0688z"/>
		<path fill="#EDEAEB" d="M695.0684,279.8257c-6.4863-3.0742-13.5176-4.4023-20.3721-6.2671
			c-11.1709-3.0391-22.6084-4.771-34.0391-6.4927c-10.7314-1.6172-21.458-3.2822-32.2139-4.7183
			c-8.793-1.1738-17.625-2.0605-26.4434-3.0381c-8.1211-0.8999-16.2402-1.8354-24.375-2.5967
			c-6.9775-0.6533-13.9766-1.0747-20.9648-1.6113c-8.2676-0.6343-16.5293-1.3364-24.8008-1.9033
			c-4.6631-0.3198-9.3428-0.5034-14.0078-0.6846c-11.2197-0.4365-22.4482-0.7769-33.6738-1.0918
			c-12.4043-0.3486-24.8027-0.4824-37.2031-0.3838c-9.708,0.0767-19.4219,0.2705-29.1162,0.752
			c-8.2852,0.4116-16.5732,0.8555-24.8506,1.3984c-11.0684,0.7266-22.1309,1.6357-33.165,2.7725
			c-11.0273,1.1357-22.0342,2.4814-33.0332,3.9019c-12.5034,1.6147-24.999,3.2847-37.4531,5.2222
			c-11.0688,1.7222-22.0742,3.856-33.1094,5.7988c-4.9395,0.8691-9.8828,1.7168-14.8242,2.5742
			c0.1108-3.7095,0.7334-7.3638,1.1504-11.0415c0.4443-3.915,0.9497-7.813,1.5957-11.7007
			c1.4092-8.4736,3.2329-16.855,5.6411-25.0928c0.5469-1.8706,0.1963-3.9512,1.4038-5.6348
			c1.1904,0.2607,2.3115-0.0146,3.4419-0.3809c23.1333-7.4922,46.9409-12.041,70.874-15.9302
			c19.2983-3.1367,38.5239-6.7769,57.9771-8.9097c15.2354-1.6704,30.5107-2.8516,45.792-4.0488
			c32.4951-2.5464,65.0352-2.1997,97.5605-1.8555c16.4688,0.1738,32.9287,1.5757,49.3506,3.2031
			c27.6445,2.7393,55.0342,7.0703,82.2871,12.3672c14.2754,2.7734,28.1934,6.9375,42.2012,10.752
			c1.3691,0.3721,2.6631,0.8945,3.7617,1.8228c1.3994,5.4131,2.9346,10.7954,4.168,16.2461
			c1.8457,8.1636,3.5127,16.3579,4.4648,24.6997C693.9238,265.2334,695.3535,272.4482,695.0684,279.8257z"/>
		<path fill="#F0A6CA" d="M443.5039,901.7676c-3.9824-0.0156-8.0254,0.4053-11.9316-0.1426
			c-6.7383-0.9463-13.5313-0.0586-20.2598-1.1387c-3.6602-0.5879-7.4414-0.4336-11.1631-0.6807
			c-6.5156-0.4326-13.0215-1.04-19.5029-1.6982c-7.2852-0.7402-14.5928-1.3711-21.8438-2.5342
			c-6.3164-1.0127-12.7334-1.3828-19.0645-2.3145c-10.1279-1.4902-20.2607-2.9473-30.3613-4.6436
			c-12.8672-2.1611-25.6846-4.5625-38.4219-7.3535c-11.7295-2.5693-23.3975-5.4326-34.9448-8.749
			c-9.3135-2.6748-18.6372-5.3193-27.7739-8.5713c-10.5645-3.7607-20.9854-7.8877-31.3457-12.1748
			c-17.8418-7.3818-35.2808-15.6348-52.4082-24.5313c-10.2637-5.332-20.5156-10.7217-29.998-17.4092
			c-8.5186-6.0078-16.52-12.6445-23.5757-20.3311c-6.6128-7.2041-10.8066-15.7539-13.2383-25.1914
			c-1.104-4.2832-2.3799-8.5293-2.8394-12.9541l-0.0059,0.0039c0.2451-0.2246,0.479-0.4609,0.7041-0.7051
			c2.29-0.3154,3.4268-1.2793,3.8511-3.9102c1.7642-10.9346,6.897-20.3604,13.8188-28.8887
			c2.3398-2.8828,4.6191-5.8145,6.9258-8.7236c2.3096-0.0576,2.7539,1.9912,3.5439,3.3984
			c6.0703,10.8164,13.79,20.2803,22.6499,28.9424c16.002,15.6436,34.0513,28.0811,54.6182,37.0547
			c25.0342,10.9238,50.374,21.0303,76.3555,29.4287c37.3926,12.0869,75.438,21.5869,114.3706,27.2207
			c13.4248,1.9424,26.9395,3.1426,40.5049,3.8828c11.4482,0.625,22.8926,1.0664,34.3467,1.4668
			c7.1064,0.249,14.1826,0.6729,21.29,0.1738c0.8535,0.9414,0.9365,2.1191,0.9502,3.2842
			c0.2041,17.4883-0.1191,34.9512-2.8057,52.2813C445.6396,898.2617,445.6826,900.542,443.5039,901.7676z"/>
		<path fill="#F0A6CA" d="M432.4268,720.4756c1.1299,0.8301,2.4395,0.6836,3.7217,0.6816
			c14.1699-0.0205,28.3604,0.3936,42.502-0.248c6.9688-0.3154,14.0264,0.2813,20.9492-1.1104
			c0.5645-0.1133,1.1699-0.0771,1.7529-0.043c6.0918,0.3525,12.1348-0.5557,18.1904-0.8848
			c8.9482-0.4873,17.9063-1.1885,26.8242-2.0957c7.75-0.7891,15.5127-1.5596,23.2559-2.4785
			c6.7012-0.7949,13.3984-1.6816,20.1172-2.3682c5.4395-0.5557,10.8535-1.3887,16.2578-2.2324
			c6.5518-1.0244,13.0674-2.2813,19.624-3.2705c9.792-1.4766,19.4834-3.4551,29.1699-5.4863
			c12.3486-2.5898,24.5225-5.7881,36.4268-10.0088c8.1553-2.8916,16.124-6.2383,23.999-9.793
			c8.9512-4.04,17.7285-8.4395,26.2344-13.3701c7.2207-4.1855,13.7676-9.2217,19.6758-15.1035
			c2.2412-2.2305,4.501-4.4424,6.7061-6.708c1.1563-1.1885,2.3916-2.2354,3.9121-2.9189
			c5.3857,6.2861,11.7119,11.6738,17.1025,17.9629c3.1143,3.6309,6.6162,6.8994,10.1357,10.1465
			c4.4424,4.0977,9.6777,7.2969,13.5654,12.0156c-0.2598,3.4834-2.5264,6.042-4.4688,8.54
			c-13.0635,16.7979-28.4434,30.9834-47.2578,41.2393c-28.7217,15.6572-59.5684,25.3262-91.2764,32.6084
			c-28.6445,6.5781-57.498,12.0234-86.6348,15.9082c-15.1826,2.0244-30.4082,3.6084-45.6982,4.6758
			c-20.5225,1.4326-41.0508,2.4736-61.625,2.9043c-6.5254,0.1367-13.083,0.3301-19.6172,0.6475
			c-0.5938,0.0381-1.2461-0.0137-1.623-0.4531c-3.9795-4.6377-8.3379-8.9775-11.4141-14.3398
			c-0.2373-1.1719,0.1367-2.2988,0.251-3.4453c0.7236-7.2695-1.3311-13.4951-6.9063-18.3965
			c-0.8799-0.7734-1.708-1.5713-1.9922-2.7715c-0.3232-1.6152-0.4287-3.2773-0.123-4.8613
			c1.3613-7.0684-0.1709-13.8652-1.7021-20.6826C432.1504,723.3438,431.1279,721.9023,432.4268,720.4756z"/>
		<path fill="#A175BD" d="M684.46,217.0083c-4.9736-0.7451-9.7324-2.3535-14.542-3.7251
			c-16.0811-4.585-32.374-8.1577-48.8486-11.0405c-12.4219-2.1738-24.8613-4.2314-37.3486-5.9463
			c-9.0166-1.2378-18.0752-2.2363-27.1406-3.1553c-10.3496-1.0488-20.7188-1.8701-31.0889-2.46
			c-10.8564-0.6167-21.7363-1.1128-32.6289-1.0181c-15.459,0.1333-30.9229-0.0518-46.3779,0.2158
			c-10.7529,0.186-21.5029,0.7935-32.2422,1.418c-8.9785,0.522-17.957,1.1787-26.9053,2.0737
			c-9.9893,0.9995-19.9854,1.9165-29.9482,3.228c-16.4443,2.1641-32.7373,5.2334-49.1211,7.7451
			c-21.729,3.3315-43.1982,7.8291-64.4551,13.4058c-3.7505,0.9839-7.376,2.2559-10.9404,3.7295
			c-1.7925,0.7412-1.6313-0.4136-1.6582-1.4907c2.4219-8.4087,5.3765-16.6362,8.4238-24.833
			c5.2026-13.9922,13.4604-25.79,25.0796-35.2236c1.1953-0.9707,2.5684-1.5688,3.7847-2.4526
			c6.8999-4.4717,14.7124-6.5879,22.5601-8.4756c24.6138-5.9204,49.481-10.436,74.7036-12.7974
			c13.3887-1.2534,26.8086-2.1504,40.2197-3.1465c29.0938-2.1611,58.2197-2.2568,87.3447-1.8545
			c12.2529,0.1694,24.5205,1.0181,36.7734,1.8105c16.1182,1.043,32.1895,2.4619,48.2158,4.3955
			c17.668,2.1318,35.3262,4.3633,52.4639,9.4878c3.043,0.9097,6.0137,1.9185,8.8096,3.4233
			c3.7734,1.4404,6.8418,3.9624,9.916,6.4736c9.957,8.1357,18.7676,17.2158,24.0557,29.1992
			c2.0762,4.7041,3.9229,9.4951,5.5039,14.3867C680.8613,205.9258,683.0977,211.3252,684.46,217.0083z"/>
		<path fill="#F0A6CA" d="M832.8789,704.1885c5.3896,5.8379,10.2158,12.1035,14.624,18.7207
			c4.6025,6.9082,7.6621,14.3926,9.0068,22.5537c0.3184,1.9307,0.7148,3.3008,2.9961,3.4336c0.751,0.043,1.4668,0.6768,2.1982,1.041
			c0.9131,1.3545,1.0195,2.8496,0.7021,4.3877c-3.1689,15.3252-8.9023,29.3555-20.5615,40.3447
			c-11.2295,10.585-23.6592,19.5391-37.3193,26.7002c-30.7598,16.1279-62.7471,29.3447-95.4971,40.9072
			c-45.4014,16.0293-92.2666,25.5088-139.6914,32.7734c-15.7461,2.4121-31.5723,4.1504-47.4365,5.3682
			c-10.6006,0.8145-21.2207,1.792-31.8838,1.5938c-0.7031-0.0137-1.4063-0.0078-2.1084,0.0283
			c-5.7646,0.2959-6.0439,0.583-6.2119,6.2773c-0.0371,1.2813,0.0908,2.627-0.7588,3.7129
			c-0.4492,0.5732-0.999,0.4277-1.3955-0.1895c-1.1484-7.4277-0.9795-14.9346-0.2881-22.3213
			c1.3135-14.0293,0.9727-27.9268-1.3223-41.8057c-0.3584-2.167-1.1055-4.3213-0.542-6.5684
			c0.8926-1.6904,2.5498-1.4336,4.0205-1.4707c25.9863-0.665,51.8115-3.2871,77.625-6.1592
			c29.7158-3.3057,59.1807-8.0723,88.1797-15.3799c32.5273-8.1963,64.4111-18.3662,94.9912-32.332
			c21.0674-9.623,40.8828-21.3408,59.335-35.3467c9.9424-7.5479,17.7803-16.9229,23.8369-27.8008
			c2.7148-4.876,3.8076-10.2939,5.0625-15.6592C830.7344,705.7432,830.2764,703.5537,832.8789,704.1885z"/>
		<path fill="#EDEAEB" d="M639.5928,150.3223c-7.3467-1.8989-14.6807-3.8506-22.0449-5.6812
			c-7.8301-1.9468-15.8076-3.0835-23.7998-4.1182c-8.4512-1.0942-16.8906-2.2827-25.3545-3.2656
			c-5.917-0.687-11.8633-1.125-17.8008-1.624c-7.9141-0.665-15.8301-1.3081-23.75-1.9082
			c-4.5459-0.3442-9.1094-0.4604-13.6611-0.6968c-23.6279-1.2305-47.2832-1.1187-70.9307-0.7197
			c-10.2842,0.1733-20.5752,0.6621-30.835,1.3848c-11.0693,0.7793-22.1445,1.4648-33.2012,2.4834
			c-8.1426,0.7505-16.2832,1.5415-24.4072,2.4287c-9.3984,1.0259-18.7568,2.4385-28.0566,4.1665
			c-11.9424,2.2188-23.8228,4.7324-35.6362,7.564c-5.9312,1.4219-11.6577,3.4336-17.3208,5.6592
			c-1.4092,0.5542-2.7642,1.272-4.2925,1.4839c1.5649-2.646,4.4487-3.7231,6.7607-5.4087
			c3.8545-2.8096,8.0273-5.2065,12.1758-7.5864c7.8174-4.4844,15.8965-8.4849,24.0298-12.353
			c7.2725-3.459,14.7275-6.5073,22.3174-9.2358c8.7881-3.1592,17.6738-5.9829,26.6836-8.4287
			c1.9473-0.5288,3.5928-1.6958,5.2168-2.833c4.499-3.1509,8.9688-6.3257,11.6689-11.3589c2.79-5.1982,4.8545-10.5923,4.999-16.5752
			c0.0234-0.9365-0.084-1.8838,0.0195-2.8091c0.5957-5.3101-1.3457-9.7891-4.1855-14.1294
			c-2.7451-4.1943-5.3115-8.5547-6.5176-13.502c-2.8076-11.52-0.5762-21.8833,7.0645-31.0928
			c4.4492-5.3633,9.9658-8.9668,16.4395-11.3945c4.3916-1.6475,8.8848-3.0859,13.4756-3.5596
			c8.5645-0.8823,17.04-0.0928,24.9902,3.6772c3.4521,1.6367,3.4736,1.6777,5.2822-1.7769
			c0.7266-1.3892,1.6836-2.5132,2.9678-3.3892c4.1533-2.8325,8.6211-4.481,13.7695-4.3794
			c4.0068,0.0796,7.8926,0.1997,11.5166,2.2402c2.4785,1.3965,4.0762,3.502,5.2646,5.9302
			c0.7695,1.5713,1.5449,1.5659,3.0127,0.9365c3.4258-1.4683,6.8711-2.9146,10.5703-3.6484
			c7.749-1.5376,15.4863-1.8325,23.2158,0.0342c3.2773,0.7915,6.5986,1.3672,9.7441,2.728
			c12.3232,5.3325,20.7314,14.0654,24.0635,27.2886c1.1582,4.5952,0.6836,9.2485,0.0439,13.8267
			c-0.415,2.9741-1.207,5.9214-2.1055,8.8271c-1.083,3.502-2.7061,6.6992-4.7158,9.7222
			c-3.1436,4.7271-4.8301,9.8579-4.1924,15.5698c0.5742,5.1333,2.9424,9.4946,5.9414,13.6299
			c4.2656,5.8828,10.1807,9.8735,15.7813,14.2383c0.835,0.6504,1.8203,0.9795,2.8721,1.2251
			c15.8652,3.7017,30.9971,9.4585,45.8184,16.1587c12.2676,5.5454,24.1729,11.7324,35.583,18.875
			C638.6797,149.3052,639.2656,149.6606,639.5928,150.3223z"/>
		<path fill="#F0A6CA" d="M142.6631,645.8623c2.5146,1.7627,4.4536,4.1357,6.561,6.3125
			c8.1416,8.4053,17.8755,14.6289,27.8979,20.4277c14.7583,8.5371,30.7188,14.2402,46.9336,19.2158
			c11.145,3.4199,22.5659,5.8047,33.9551,8.2969c10.6968,2.3408,21.4351,4.4658,32.1846,6.5313
			c7.6543,1.4697,15.3604,2.6777,23.0508,3.958c6.7695,1.1279,13.5313,2.3359,20.332,3.2422
			c6.3438,0.8447,12.6641,1.8652,19.0527,2.4102c5.4443,0.4648,10.8613,1.2539,16.29,1.8945
			c3.126,0.3691,6.2988,0.5146,9.4102,0.6582c5.1318,0.2373,10.2236,1.2021,15.376,0.9199
			c3.1689-0.1738,6.2305,1.0361,9.4131,0.6875c1.127-0.124,2.376,0.3184,3.2783-0.7627c2.2754,0.9141,2.2012,3.1436,2.5869,4.9727
			c1.7344,8.2031,1.4404,16.4482,0.1836,24.6875c-0.2109,1.3838-0.4707,2.7598-0.6406,4.1436
			c-0.2617,1.5479-1.2197,2.7539-2.0098,4.0479c-6.1074,9.9932-3.0928,22.3057,6.8691,28.3945
			c1.0908,0.667,3.2109,0.7432,2.4941,3.0137c-1.2793,0.7881-2.7119,0.6348-4.1045,0.6367
			c-17.543,0.0371-35.0459-0.8779-52.5508-1.9814c-32.3574-2.04-64.0947-7.8799-95.4585-15.7412
			c-28.5132-7.1475-56.6035-15.6914-83.7314-27.2197c-22.9375-9.7471-43.9385-22.3486-62.2642-39.4072
			c-5.0396-4.6904-9.4609-9.6787-13.0747-15.4619c-1.146-1.834-2.1079-3.7178-0.7017-5.8701
			c7.1943-6.3135,14.6406-12.3965,21.0552-19.5c5.167-5.7227,11.1011-10.7178,15.8018-16.8691
			C141.3384,646.8643,142.0542,646.4043,142.6631,645.8623z"/>
		<path fill="#EDEAEB" d="M832.8789,704.1885c-0.9883,0.1318-1.2949,0.7539-1.4053,1.6885
			c-1.3916,11.7803-6.998,21.5449-14.2578,30.6592c-8.2207,10.3193-18.7422,17.8291-29.5371,25.0215
			c-8.748,5.8281-17.8311,11.1123-27.0664,16.1602c-16.25,8.8818-33.2861,15.8887-50.6426,22.2275
			c-20.4121,7.4541-41.1592,13.79-62.2354,19.0596c-12.3184,3.0811-24.7236,5.7852-37.2031,8.0947
			c-10.291,1.9063-20.6396,3.5771-31.0205,4.8975c-6.5752,0.8359-13.1328,1.8486-19.7568,2.3896
			c-7.5303,0.6152-15.002,1.9551-22.5322,2.54c-3.7148,0.2891-7.4326,0.6963-11.1436,0.998
			c-4.165,0.3389-8.3604,0.4209-12.5186,1.0938c-3.668,0.5947-7.4443,0.5195-11.1572,0.7295
			c-8.1543,0.4609-16.3135,1.2715-24.5039,0.9316c-1.8428-0.9902-1.7686-2.9473-2.167-4.5791
			c-2.5068-10.2568-5.3789-20.374-10.3076-29.7969c-2.3408-4.4756-4.9805-8.7393-8.0586-12.7461
			c-0.9619-1.251-2.334-2.3945-1.9971-4.2852c0.9385-1.0244,2.1846-0.6826,3.3115-0.6709
			c11.2275,0.1113,22.4297-0.7529,33.6543-0.9102c5.46-0.0771,10.9766-0.165,16.4385-0.5957
			c7.793-0.6133,15.5986-0.9043,23.3945-1.3906c8.3672-0.5215,16.7334-1.2031,25.0674-2.1162
			c11.334-1.2432,22.6689-2.5596,33.9453-4.2373c11.9668-1.7793,23.9053-3.7568,35.8027-6.0078
			c11.9043-2.252,23.7861-4.5908,35.6035-7.2402c18.2188-4.0859,36.3418-8.5596,53.9775-14.7793
			c10.251-3.6152,20.2881-7.75,30.1436-12.3584c7.4229-3.4707,14.6484-7.2637,21.6211-11.5537
			c4.9805-3.0645,9.5596-6.6777,14.1084-10.3311c4.7549-3.8184,8.9443-8.2344,13.2646-12.5117
			c5.5791-5.5234,10.7529-11.3662,14.6953-18.2119c0.6396-1.1104,1.4307-2.1328,2.1523-3.1953
			c5.2979,3.7129,9.583,8.4492,13.7725,13.3242C828.5186,699.043,830.9102,701.4336,832.8789,704.1885z"/>
		<path fill="#EDEAEB" d="M103.9961,683.8691c-0.2021,2.0742,0.436,3.835,1.6187,5.5732c2.7588,4.0557,5.2666,8.3008,8.9683,11.6094
			c12.2759,10.9746,24.748,21.7314,39.2251,29.7666c8.2778,4.5947,16.8486,8.665,25.5371,12.4453
			c11.6738,5.0791,23.5732,9.6211,35.6831,13.5186c13.8726,4.4639,27.8716,8.5225,41.9624,12.291
			c16.1069,4.3076,32.4028,7.707,48.7471,10.8691c8.3247,1.6104,16.7681,2.666,25.1792,3.8486
			c7.4932,1.0547,15.0186,1.8125,22.5352,2.5088c4.2734,0.3965,8.5879,0.7627,12.9033,0.9209
			c8.1689,0.2979,16.3623,0.3438,24.498,0.8701c8.4229,0.5459,16.8184,0.2568,25.2217,0.4912
			c2.1514-1.5625,3.4082,0.1191,4.8018,1.3145c6.6641,6.6094,12.0254,14.2578,16.6406,22.333
			c4.0313,7.0498,7.9795,14.2549,9.7715,22.332c0.4473,2.0107,1.2246,4.0693-0.1699,6.0449
			c-0.3721,1.6006-1.6504,1.418-2.8018,1.373c-5.4814-0.2139-10.959,0.2822-16.458-0.5117
			c-3.6748-0.5303-7.4834-0.0742-11.2285-0.1748c-7.6934-0.207-15.3701-0.7344-23.0508-1.2178
			c-4.6523-0.293-9.3105-0.6465-13.9697-0.9072c-6.042-0.3398-12.0547-1.0557-18.0605-1.832
			c-4.1553-0.5371-8.3164-1.0264-12.4717-1.5771c-6.3525-0.8428-12.6611-1.9365-18.957-3.085
			c-19.2734-3.5137-38.2778-8.2266-57.2295-13.1475c-9.2637-2.4053-18.4116-5.2119-27.563-8.0186
			c-16.0933-4.9355-31.895-10.6914-47.6108-16.6787c-10.6943-4.0742-21.2656-8.4727-31.7217-13.1475
			c-5.6577-2.5293-11.3232-5.0234-16.8828-7.7705c-11.0625-5.4648-21.1045-12.4072-30.6123-20.2461
			c-5.9707-4.9219-11.5103-10.2598-16.98-15.7021c-6.9209-6.8857-12.6528-14.6523-17.54-23.0869
			c-1.1504-1.9863-1.9009-4.2861-3.856-5.749c4.9819-6.1289,9.9277-12.2959,15.5269-17.876
			C98.2773,688.6338,101.2051,686.3203,103.9961,683.8691z"/>
		<path fill="#EDEAEB" d="M480.167,912.2285c1.1152-2.3369,0.4248-4.8154,0.5313-7.2256c0.126-2.8867,0.0859-2.7285,3.001-3.3711
			c2.5566-0.5625,5.1074-0.6504,7.668-0.5449c6.9102,0.2852,13.7637-0.665,20.6514-0.8867
			c8.4863-0.2734,16.9785-1.0576,25.415-2.0684c10.2773-1.2314,20.5527-2.4951,30.8096-3.9326
			c21.6914-3.041,43.1797-7.1611,64.6143-11.5498c15.7607-3.2275,31.3818-7.127,46.7617-11.9063
			c7.1348-2.2158,14.291-4.3711,21.376-6.7383c18.3945-6.1445,36.5693-12.8828,54.4033-20.5166
			c11.0684-4.7373,22.0654-9.623,32.8779-14.9365c10.3877-5.1045,20.6846-10.3555,30.375-16.7061
			c6.4492-4.2266,12.4746-8.9932,18.2617-14.1191c4.4004-3.8955,8.4473-8.0049,11.9668-12.708
			c4.6963-6.2754,7.7813-13.2793,9.96-20.7363c0.7188-2.4629,1.3906-4.9395,2.041-7.4219c0.5928-2.2656,1.0234-4.5586,0.8232-6.9229
			c5.6172,3.2939,7.4502,8.4463,7.7842,14.6797c0.707,13.2412-4.9873,23.7471-13.668,32.9688
			c-10.9727,11.6563-24.2275,20.3926-37.6113,28.9609c-10.4736,6.7051-21.7559,11.8545-32.8408,17.3779
			c-5.3213,2.6504-11.0527,4.4932-16.3057,7.2588c-6.7441,3.5508-13.7598,6.3604-20.9102,8.875
			c-8.4785,2.9805-16.7305,6.541-25.1777,9.6113c-11.082,4.0283-22.1914,7.9414-33.4736,11.3779
			c-11.71,3.5664-23.4873,6.877-35.415,9.625c-12.5752,2.8984-25.1992,5.5313-37.9326,7.7002
			c-9.6191,1.6377-19.2627,3.1367-28.9014,4.6123c-7.7979,1.1943-15.623,2.334-23.499,3.0791
			c-6.5898,0.624-13.1484,1.5596-19.7559,2.1191c-4.9766,0.4209-9.9727,0.8125-14.9229,1.4092
			c-6.9316,0.835-13.9043,1.0908-20.8418,1.8076c-4.3682,0.4521-8.8066,1.1611-13.2412,0.8721
			c-5.042-0.3301-10.0049,0.6406-15.0186,0.6953C479.8096,912.6611,479.874,912.415,480.167,912.2285z"/>
		<path fill="#4A4748" d="M480.167,912.2285c-0.0654,0.2461-0.1299,0.4932-0.1943,0.7393
			c-0.1846,0.0332-0.3672,0.0791-0.5459,0.1367c-4.2305-0.002-8.46-0.0039-12.6904-0.0049
			c-7.9766-0.0352-15.9521-0.0713-23.9287-0.1074c-0.7441-3.8027,0.3467-7.4902,0.6963-11.2246
			c1.7617-4.877,2.1406-10.0215,2.6592-15.0986c1.4951-14.6416,1.5361-29.3428,1.3467-44.043
			c-0.0088-0.6943,0.0508-1.4082-0.3906-2.0205c0.0674-5.1572-1.6328-9.8691-3.5938-14.5371
			c-5.1758-12.3184-12.5488-23.2422-21.083-33.4375c-0.5967-0.7109-1.2939-1.3369-1.9443-2.0029
			c0.1318-2.0645,0.1465-2.167,3.2002-2.2197c6.2422-0.1074,11.2764-2.5918,15.2354-7.3789
			c0.9736-1.1777,1.8213-2.415,2.5293-3.7725c0.4473-0.8564,0.582-2.1338,2.0313-2.0293c3.959,4.6826,7.918,9.3643,11.876,14.0459
			c6.1045,7.874,11.335,16.2451,14.9434,25.5928c2.9502,7.6436,5.0381,15.5225,6.8818,23.4814
			c0.1826,0.7891,0.4668,1.5537,0.7031,2.3311c0.6162,5.2119,1.6641,10.3545,2.3213,15.5674
			c1.292,10.2617,1.0283,20.5029,0.3213,30.7646C479.9619,895.4111,480.0703,903.8193,480.167,912.2285z"/>
		<path fill="#EDEAEB" d="M699.2471,340.1431c0.0498-3.9678,0.0996-7.9355,0.1494-11.9033
			C700.3877,331.1602,700.3037,337.8931,699.2471,340.1431z"/>
		<path fill="#EDEAEB" d="M217.1069,331.7549c0.062,1.3838,0.1235,2.7681,0.186,4.1523
			C215.9917,334.5786,216.2329,333.1807,217.1069,331.7549z"/>
		<path fill="#EDEAEB" d="M55.5293,750.6484c-0.2349,0.2344-0.4692,0.4697-0.7041,0.7041
			C55.0601,751.1182,55.2944,750.8838,55.5293,750.6484z"/>
		<path fill="#9E1061" d="M373.1113,592.374c-7.7383-5.8896-15.2021-12.085-22.2021-18.8613
			c-15.4355-14.9434-24.6465-33.0645-28.2646-54.1494c-1.8838-10.9814-3.0293-22.0039-2.9482-33.1768
			c0.1484-20.7295,0.0371-41.46,0.0557-62.1895c0.001-1.2627-0.252-2.5576,0.252-3.8174c1.3184-0.2275,2.207,0.6934,3.2051,1.2061
			c4.6934,2.4102,9.4697,4.6162,14.457,6.3604c3.1143,1.0889,6.2998,1.8379,9.5752,2.1426
			c3.3389,0.3105,6.5645-0.1357,9.4248-2.0459c3.3027-2.2061,3.9805-4.998,2.1436-8.4922
			c-0.6074-1.1563-1.3047-2.3594-2.4238-2.9551c-2.3486-1.249-2.7334-3.1572-2.6475-5.5684
			c0.1318-3.7422-0.0225-7.4941-0.0215-11.2412c0.001-2.9844,0.165-3.2686,3.0059-4.3433
			c4.3906-1.6616,8.9521-2.7368,13.5391-3.6763c21.9355-4.4951,44.0986-7.2314,66.4375-8.6831
			c20.9932-1.3643,41.8848-0.1538,62.7617,2.0083c13.1641,1.3628,26.248,3.229,39.2158,5.8535
			c5.9609,1.207,11.9297,2.4473,17.6563,4.5645c3.9473,1.459,4.001,1.6074,4.0039,5.833c0.0029,3.9824-0.0498,7.9658,0.0244,11.9463
			c0.0332,1.7305-0.248,3.1309-1.7305,4.3027c-2.0918,1.6543-2.9443,3.8652-2.1484,6.5605c0.8125,2.751,2.9619,3.7256,5.4854,4.2773
			c3.6406,0.7959,7.2539,0.3076,10.8135-0.3828c7.3887-1.4336,14.4941-3.7705,21.2246-7.1836
			c0.5225-0.2646,1.04-0.5391,1.5674-0.792c1.208-0.5811,1.7256-0.0986,1.7959,1.1465c0.165,2.9229,0.4063,5.8418,0.5254,8.7656
			c0.7813,19.1963,1.2891,38.3906-0.4814,57.5674c-1.7139,18.5527-5.6221,36.5195-13.6787,53.4688
			c-8.9766,18.8818-21.5928,34.6963-38.5664,47.0078c-14.0273,10.1748-28.0693,20.3359-41.9121,30.7578
			c-13.8574,10.4326-27.1914,21.4961-38.333,34.9316c-1.7188,2.0713-3.3125,4.2461-5.0059,6.3389
			c-1.5088,1.8643-1.7197,1.9268-3.1445,0.1689c-15.5439-19.166-35.3252-33.3867-55.2607-47.4307
			c-3.9248-2.7646-7.8691-5.5029-11.8242-8.2246c-0.4639-0.3184-1.0576-0.4473-1.5918-0.6641
			c-2.4531-3.1621-1.8848-6.9229-2.0898-10.5273c1.208-1.791,2.1924-0.3281,3.0938,0.3115
			c9.3838,6.665,18.6611,13.4756,27.9639,20.249c13.6396,10.791,27.1602,21.7227,39.2188,34.3203
			c1.4277,1.4922,2.5068,2.2578,4.0449-0.0146c7.6924-11.3584,17.7754-20.3359,28.6543-28.5186
			c3.3564-2.5254,6.6309-5.1621,9.9941-7.6904c10.6943-7.9971,21.6758-15.5947,32.3428-23.626
			c8.335-6.2764,16.4863-12.8027,23.9658-20.042c15.5566-15.0547,25.8086-33.1436,29.9063-54.5723
			c2.2041-11.5273,3.6738-23.124,3.5264-34.8672c-0.1279-10.2939,0.6328-20.6035-0.6172-30.8818
			c-0.4453-3.666-0.501-3.8594-4.0049-2.2607c-7.1543,3.2637-14.5576,4.9385-22.4873,4.5166
			c-7.4385-0.3945-11.6484-3.4512-13.9297-10.6055c-2.1602-6.7695-0.9414-13.1855,1.7969-19.4795
			c1.5215-3.4961,1.5244-3.7285-1.874-5.2764c-7.3145-3.3311-15.1865-4.6738-22.9873-6.2773
			c-8.7266-1.7939-17.6406-2.3174-26.3818-4.0059c-1.1484-0.2217-2.3369-0.0303-3.5127,0.0293
			c-14.8047-1.1514-29.624-1.4736-44.4678-1.4121c-11.4668,0.0479-22.8594,0.9629-34.248,2.0566
			c-8.2285,0.5186-16.2559,2.4355-24.3867,3.5947c-1.1484-0.6699-2.2617-1.0273-3.126,0.4492
			c-6.251,2.3467-12.8008,3.7129-19.0713,6.002c-6.6758,2.4355-6.7305,2.3574-4.0156,8.6904
			c1.623,3.7861,2.8291,7.6709,3.374,11.7715c0.79,5.9434-1.8301,9.9209-7.7637,11.4502
			c-6.2783,1.6182-12.5537,0.8818-18.8096-0.1904c-3.5791-0.6133-7.0996-1.4941-10.5781-2.5439
			c-3.5352-1.0654-3.4717-1.0391-3.9287,2.7832c-1.5752,13.1641-1.7588,26.4014-1.2188,39.5957
			c0.6768,16.5283,2.8896,32.8838,9.2139,48.3789c6.0313,14.7744,14.9971,27.4629,27.2129,37.8037
			c2.3906,2.0244,4.4658,4.4404,7.2334,5.9297c1.5166-0.9941-0.0527-3.5303,2.2324-3.9727
			c0.9521,0.7031,1.0889,1.7607,1.1328,2.8008c0.1816,4.2822-0.0596,8.5771,0.3877,12.8535
			C373.9639,591.2246,373.7129,591.9033,373.1113,592.374z"/>
		<path fill="#4A4748" d="M373.1113,592.374c-0.8525-5.1572-0.583-10.3643-0.6748-15.5547
			c-0.0127-0.7002-0.0459-1.3916-0.5352-1.959c-1.4844-1.4004-1.2959-3.2568-1.0479-4.9346
			c1.25-8.4727,0.377-17.0215,1.1328-25.5342c0.918-10.3438,1.8008-20.6973,2.6416-31.0508
			c0.6436-7.915,1.292-15.8281,2.4111-23.6943c0.0996-0.6943,0.2305-1.3838,0.5273-2.0234
			c0.2295-0.4199,0.6719-0.8945,1.0508-0.6826c3.417,1.9014,7.165,0.9307,10.75,1.3193c1.0391,2.5635,0.4873,5.2588,0.6641,7.8984
			c-0.1973,1.1865-0.4043,2.3711-0.3525,3.5859c0.4834,11.1182-1.0547,22.1377-1.6416,33.2002
			c-0.2959,5.585-0.6113,11.1797-0.9922,16.7646c-0.4355,6.3936,0.0049,12.8203-0.6875,19.2383
			c-0.6904,6.4082,0.5586,12.8086,0.8555,19.2168c0.0693,1.4941,0.5996,3.0264-0.5811,4.3447
			c0.4883,3.7324,0.9756,7.4658,1.4629,11.1973c2.6377,15.2002,7.9922,29.4785,14.3096,43.4971
			c7.6348,16.9414,14.8486,34.0713,22.2676,51.1104c3.1338,7.1973,5.3896,14.6963,7.7549,22.1611
			c0.9355,4.1875,2.1211,8.3115,2.7305,12.5791c0.5811,4.0664,0.7139,8.085,0.0605,12.1533
			c-0.2754,1.7109-0.2021,3.4785-0.2871,5.2207c-1.0693,1.3291-2.1494,0.3154-3.126-0.0781
			c-7.709-3.1016-14.8701-2.25-21.4922,2.8281c-0.8203,0.6289-1.5625,1.4688-2.7725,1.2383
			c-0.0039-1.6348,0.2119-3.2383,0.4941-4.8516c1.6875-9.6309,1.7432-19.2148-1.0605-28.6836
			c-0.127-0.4287-0.3809-0.8203-0.5752-1.2275c-0.3682-1.2256-0.6221-2.502-1.124-3.6709
			c-5.9902-13.9561-9.0166-28.7002-11.6621-43.5488c-1.0244-5.7471-2.0576-11.4932-3.0674-17.2432
			c-0.4072-2.3164-1.1514-4.5049-2.1299-6.6455c-6.1924-13.5469-10.8652-27.5898-13.4248-42.2852
			C374.1904,601.6611,373.7285,597.0049,373.1113,592.374z"/>
		<path fill="#D7D3D5" d="M407.54,754.416c3.9043-3.7305,8.3184-6.375,13.8701-6.7861c3.8154-0.2832,7.457,0.2129,10.9238,1.8643
			c0.833,0.3965,1.5918,1.0127,2.5977,0.9336c1.375,2.04,3.6875,3.0898,5.1279,5.1543c3.9941,5.7236,5.1553,11.8652,3.5,18.5986
			c-0.082,0.334-0.0459,0.6973-0.0664,1.0469c-1.2246,2.1123-2.0889,4.418-3.6953,6.3271
			c-4.2334,5.0352-9.5439,7.7666-16.1689,7.8281c-0.9326,0.0088-1.8799-0.0586-2.793,0.0859
			c-0.585,0.0938-0.3359,0.7314-0.3389,1.1592c-1.2607-1.1406-2.4189-2.5068-4.4219-2.0449c-0.4619-0.752-1.2813-0.9941-2.002-1.333
			c-7.7969-3.668-11.2549-10.3984-11.7305-18.4189C402.0342,763.624,404.0107,758.5771,407.54,754.416z"/>
		<path fill="#4A4748" d="M495.3662,69.5039c0.3125,0.21,0.5439,0.5088,0.3018,0.8506c-4.7236,6.6484-5.8262,13.9648-4.5547,21.9282
			c0.5508,3.4492,1.1318,6.8755,1.9033,10.2783c0.4268,1.8828-0.0088,2.2891-1.9189,1.9971
			c-4.5986-0.7026-9.2402-1.0073-13.8789-1.2114c-4.0498-0.1787-3.918-0.0513-3.5889-4.0547
			c0.2754-3.3599,0.585-6.7568,0.6445-10.0913c0.1172-6.5376,1.3203-13.0186,0.874-19.5718
			c-0.0693-1.0093-0.2822-2.1445,0.7656-2.8979c1.0479-0.2529,1.749,0.415,2.4795,0.9595
			c4.4238,3.2998,9.1768,4.1025,14.3457,1.9585C493.582,69.2993,494.4551,68.8809,495.3662,69.5039z"/>
		<path fill="#4A4748" d="M434.8789,67.3799c0.9648,0.5933,0.8779,1.5615,0.8818,2.4927c0.0078,1.9858-0.0576,3.9741,0.0225,5.9565
			c0.2314,5.7988,0.5244,11.5923,1.3047,17.3535c0.3418,2.5249-0.1855,5.1162,0.6621,7.6338
			c0.3535,1.0513-0.3564,1.5898-1.5107,1.8169c-4.2705,0.8403-8.5791,0.7236-12.8838,0.6719
			c-2.0693-0.0254-2.5918-0.5996-2.2598-2.4937c1.6953-9.6543-0.1738-18.9463-2.8047-28.1582
			c-0.248-0.8706-0.6426-1.5674,0.6807-1.708c0.0908-0.0742,0.1895-0.2197,0.2705-0.2114
			C424.8232,71.3271,429.9824,69.9688,434.8789,67.3799z"/>
		<path fill="#950798" d="M495.3662,69.5039c-2.2256,1-4.3799,2.1216-6.9189,2.2749c-5.0088,0.3027-9.1064-1.501-12.5332-5.0479
			c-2.4365-3.9165-3.7188-8.0215-2.3018-12.6626c1.71-5.6016,6.4326-9.4038,12.3643-9.8389
			c6.1553-0.4517,11.5029,2.6143,13.9727,8.0098c2.4336,5.3169,1.333,11.2578-2.877,15.5273
			C496.5029,68.3447,495.9355,68.9243,495.3662,69.5039z"/>
		<path fill="#950798" d="M434.8789,67.3799c-4.5986,4.3291-9.9307,5.3843-15.9072,3.5654c-3.3691-1.8384-6.1338-4.249-7.5635-7.939
			c-2.3203-5.9932-0.1777-12.8809,5.1289-16.458c5.3047-3.5771,12.4609-3.0894,17.2344,1.1748
			c4.7197,4.2153,5.8945,11.3809,2.7676,16.9868C436.0283,65.624,435.4336,66.4907,434.8789,67.3799z"/>
		<path fill="#AF3E95" d="M495.4697,403.4883c1.5225-0.168,2.9844,0.0596,4.5,0.3389c3.8848,0.7148,7.8115,1.2188,11.7354,1.6914
			c8.793,1.0586,17.4834,2.6455,26.0518,4.8848c4.2959,1.123,8.5635,2.335,12.4688,4.5488
			c2.2949,1.3018,2.2402,1.2344,1.0176,3.6182c-3.2344,6.3018-4.8691,12.8545-2.9404,19.9375
			c0.6563,2.4092,1.8174,4.5371,3.2754,6.5342c2.124,2.9111,5.2344,3.7695,8.5703,4.0596c8.4678,0.7344,16.5-0.8613,24.1074-4.6396
			c1.3447-0.668,2.6943-1.3506,4.6787-1.3457c-0.1992,3.7764,0.6982,7.4033,0.7188,11.0977
			c0.0605,10.417,0.2881,20.8438-0.0723,31.248c-0.2158,6.252-0.9219,12.5088-1.8232,18.7412
			c-1.2559,8.6914-3.1387,17.1992-6.0654,25.4551c-3.6172,10.2051-8.7344,19.5957-15.7197,27.9346
			c-3.5986,4.2949-7.0508,8.751-11.2412,12.4688c-8.0205,7.1143-16.1963,14.0479-24.8555,20.4033
			c-9.4961,6.9688-18.9873,13.9404-28.6387,20.6924c-0.7607,0.5313-1.4561,1.1553-2.1816,1.7373
			c-1.3701-1.4268-1.0996-3.2451-1.1084-4.958c-0.041-8.0254-0.0342-16.0508-0.0078-24.0762
			c0.0088-2.4502-0.1025-4.8809-0.583-7.2773c-0.0117-0.2275,0.0049-0.6348,0.0938-0.6426c3.9111-0.334,2.3369-2.9189,2.0117-4.9385
			c-0.5352-3.3271-1.2588-6.6113-2.1602-9.8633c-0.4229-1.5264-1.0078-3.168,0.3262-4.5996
			c-0.3682,0.3213,0.4902-0.4326,0.3623,0.0088c-0.0342,0.1211,0.4883,0.1992,0.4785,0.1055
			c-0.9736-9.1152-0.1787-18.2578-0.4229-27.3828c-0.0361-1.3154-0.0176-2.5996-1.5381-3.1709
			c-1.1953-1.4248,0.084-2.2441,0.9395-2.7764c5.0313-3.125,8.6563-7.8213,13.0635-11.6406
			c4.5752-3.9648,8.9277-8.2285,13.3281-12.4131c0.8135-0.7744,1.8916-1.3994,2.1855-2.8496
			c-4.0889-1.1035-8.2832-1.3916-12.4092-1.9785c-4.6221-0.6563-9.1924-1.7363-13.8877-1.8643
			c-1.4258-0.0391-2.6797-0.2969-2.0225-2.2529c0.4648-9.7061,0.1592-19.4082,0.1943-29.1074
			c0.0576-16.2471-0.0342-32.4951,0.0576-48.7422C497.9756,409.1719,497.9336,406.0352,495.4697,403.4883z"/>
		<path fill="#D3185A" d="M378.3008,487.2715c-1.1934,11.9512-2.5488,23.8877-3.5215,35.8564
			c-0.6143,7.5566-1.2695,15.1152-1.7559,22.6875c-0.4189,6.541-0.3223,13.0791-0.668,19.6064
			c-0.168,3.1455-0.5332,6.2803-0.4551,9.4385c0.001,1.9688,0.001,3.9385,0.001,6.2588c-2.915-0.8125-4.459-2.8574-6.1602-4.3662
			c-3.4883-3.0928-7.1494-6.0068-10.3555-9.4365c-9.7754-10.457-17.3545-22.2578-22.0908-35.7959
			c-3.4365-9.8223-5.3184-19.9678-6.5898-30.3027c-1.6055-13.0479-1.458-26.1172-1.1426-39.1768
			c0.1455-6.0195,0.7344-12.0752,1.2529-18.1045c0.1426-1.668,0.8242-1.9551,2.2949-1.4268
			c4.2871,1.542,8.6973,2.6455,13.1797,3.4414c6.1094,1.085,12.2285,1.6689,18.3955,0.3418
			c4.5146-0.9717,8.0576-4.8066,7.4629-8.7842c-0.5479-3.6611-1.0049-7.3965-2.6328-10.8271
			c-1.0518-2.2148-1.9834-4.4854-3.0098-6.7119c-1.1816-2.5615-1.1455-2.7598,1.4941-3.7686
			c7.5254-2.874,15.1572-5.4131,23.0225-7.2041c0.5625-0.1279,1.0908-0.4082,1.6348-0.6182
			c1.3457,1.3887,0.8896,3.0469,0.6377,4.6348c-3.125,19.6914-5.9082,39.4297-8.2939,59.2197
			c-0.1523,0.5615-0.3555,1.1445-0.7842,1.5303c-4.0703,3.668-4.5859,7.833-1.8398,12.501
			C378.5508,486.5605,378.4375,486.9434,378.3008,487.2715z"/>
		<path fill="#E8B3CF" d="M497.5693,575.6797c1.2646,1.208,1.5518,2.6836,1.54,4.4082
			c-0.0693,10.9355-0.0459,21.8711-0.0537,32.8066c-5.8408,4.4971-11.8027,8.8457-17.4932,13.5254
			c-8.168,6.7188-15.5254,14.2383-21.3291,23.166c-1.3232,2.0352-1.4775,2.0684-3.0703,0.4346
			c-12.3672-12.6885-25.8184-24.1377-39.8213-34.9609c-0.2715-0.21-0.46-0.5264-0.6875-0.7939
			c-0.5635-1.1699-0.9609-2.373-0.957-3.6992c0.0391-10.9932-0.1963-21.9883,0.1172-32.9736
			c0.2266-2.2412,1.8066-3.4385,3.5586-4.4561c11.5156-6.6885,22.9727-13.4756,34.498-20.1475
			c2.334-1.3506,4.4805-1.5049,6.8857-0.0225c11.335,6.9902,22.9238,13.5566,34.3594,20.3809
			C496.0947,573.9316,497.2686,574.3594,497.5693,575.6797z"/>
		<path fill="#E8B3CF" d="M495.4697,403.4883c3.6064,1.1436,3.6084,1.1436,3.6084,5.2021c0,26.2773,0.0127,52.5547-0.0371,78.832
			c-0.0029,1.3291,0.873,3.2031-1.4121,3.7637c-0.1738,0.0293-0.3486,0.0586-0.5225,0.0918
			c-1.5986,0.1729-3.1973,0.1064-4.7979,0.0039c-2.8799-0.5068-5.7715-0.999-8.6777-1.2295
			c-3.3975-0.2695-5.1064-1.8984-6.041-5.208c-5.9111-20.9297-11.8516-41.8525-17.9033-62.7432
			c-0.2471-0.8525-0.1982-1.8535-1.2148-2.6777c-1.792,3.8721-2.9717,7.8799-4.3643,11.7803
			c-6.2539,17.5059-12.4668,35.0264-18.6582,52.5547c-1.166,3.3018-3,5.0693-6.4238,5.457
			c-3.2539,0.3682-6.4297,1.2285-9.6592,1.7676c-1.4912,0.249-3.083,0.5938-3.9639-1.2422
			c-0.3691-1.0146-0.4277-2.0693-0.4238-3.1221c0.1025-25.9727-1.2422-51.9316-0.7158-77.9072
			c0.0322-1.6299-0.082-3.3105,1.1631-4.6426c16.5996-2.1123,33.2783-2.4121,49.9834-2.2207
			C475.4531,402.0625,485.457,402.8203,495.4697,403.4883z"/>
		<path fill="#D3185A" d="M416.4316,576.29c0.4395,2.4229,0.2168,4.8701,0.2236,7.3037c0.0303,10.2236,0.0049,20.4482,0,30.6719
			c-4.4561-2.7002-8.4746-6.0186-12.7158-9.0234c-3.96-2.8057-7.8193-5.7568-11.8145-8.5117
			c-1.9102-1.3174-3.6875-2.7832-5.4922-4.2217c-0.9873-8.2266-1.8164-16.4902-1.2881-24.7637
			c0.6602-10.3604,0.4502-20.748,1.2822-31.0947c1.0098-12.5449,1.8262-25.1006,2.3965-37.6729
			c2.5078-0.4688,3.8486,1.5059,5.2617,2.8457c6.709,6.3555,13.4229,12.7012,20.334,18.8389
			c1.3848,1.2305,2.8594,2.5244,2.5352,4.7324c-0.0273,8.9238,0.0557,17.8418-0.0576,26.7588
			c-0.0166,1.2744-0.0615,2.5508,0.3652,3.7764c0.5811,5.4248-1.2803,10.5684-1.8887,15.8594
			C415.3867,573.4063,414.8691,575.0303,416.4316,576.29z"/>
		<path fill="#D3185A" d="M415.4258,404.1689c0.0508,16.5674-0.1328,33.1396,0.2295,49.7012
			c0.2686,12.248,0.123,24.4941,0.3809,36.7383c-0.4961,1.2979-1.6885,1.5146-2.8213,1.751
			c-6.957,1.4531-13.9316,2.8232-20.9082,4.1729c-1.0088,0.1953-2.082,0.4658-2.9893-0.3672
			c-0.4053-2.582-0.3896-5.1758-0.2295-7.7734c0.043-1.917,2.04-2.7744,2.4512-4.458c0.7305-2.9863,0.9834-5.9189-1.3584-8.4482
			c-0.9297-1.0029-1.9814-1.9814-1.9482-3.543c0.0859-10.376-0.3574-20.7637,0.1523-31.1074
			c0.4805-9.7617,0.2061-19.5615,1.3594-29.29c0.1377-1.1582,0.1104-2.3496,1.1699-3.1533
			c3.5205-1.6631,7.4043-1.7617,11.1328-2.4219C406.4697,405.1865,410.9082,404.3379,415.4258,404.1689z"/>
		<path fill="#4B4748" d="M390.915,408.3916c-0.0898,5.8174-0.6436,11.6104-0.8818,17.4238
			c-0.6025,14.7832-0.7744,29.5674-0.7725,44.3574c0.001,0.9453-0.0977,1.8584-0.4512,2.7373
			c-2.874,0.2842-5.7461,0.3447-8.6133-0.0811c0.0059-5.5068,1.0986-10.9033,1.7383-16.3408
			c0.8984-7.6367,2.0879-15.2412,3.2031-22.8516c1.0313-7.0332,2.1016-14.0605,3.2197-21.0811
			c0.2227-1.3955,0.4219-2.7676,0.3008-4.1768c0.374-0.832,0.749-1.665,1.1777-2.6172
			C391.3145,406.2764,390.5293,407.582,390.915,408.3916z"/>
		<path fill="#920095" d="M389.3174,496.165c8.1377-1.624,16.2715-3.2627,24.415-4.8486c0.8086-0.1582,1.5732-0.3496,2.3037-0.708
			c5.2354-0.5449,10.3115-1.9678,15.4951-2.793c1.6074-0.2568,1.9629-1.417,2.4023-2.6484c1.959-5.5049,3.959-10.9951,5.918-16.5
			c5.6426-15.8506,11.2695-31.7061,16.9121-47.5566c0.5029-1.4111,0.7979-2.9287,1.9189-4.1523
			c1.2305,1.0186,1.2363,2.5205,1.6064,3.8115c6.21,21.6709,12.4082,43.3457,18.5195,65.0449
			c0.6055,2.1504,1.7451,3.0342,3.8594,3.2773c3.3613,0.3857,6.6982,0.9717,10.0459,1.4727
			c1.5225,0.998,3.3643-0.1875,4.9004,0.7168c0,0,0.0137,0.0049,0.0146,0.0049c0.9619,1.3789,2.1406,0.0781,3.2158,0.25
			c6.5205,1.043,13.0469,2.0508,19.5801,3.0127c2.5078,0.3691,5.0469,0.5293,7.7891,1.3047
			c-2.3604,3.0117-5.1064,5.4629-7.8359,7.9268c-0.6006,0.543-1.3623,0.9229-1.9092,1.5088
			c-5.1768,5.5469-11.2373,10.165-16.4502,15.6719c-0.9707,1.0254-2.0322,1.9043-3.333,2.5029
			c-1.0713,0.4932-2.0488,1.1357-2.3271,2.4199c-3.0098,3.8994-1.5957,8.0635-0.8838,12.2676
			c0.8545,5.0449,1.9512,10.0498,2.5791,15.1338c0.1426,1.1543,0.501,2.2988-0.375,3.3232c-0.4346,2.0293,0.2158,3.9756,0.835,5.791
			c1.6475,4.8379,1.8223,9.9316,3.168,14.9463c-1.9414,0.3545-2.4609-2.0361-4.1123-1.666
			c-12.6006-7.4131-25.2246-14.7871-37.7754-22.2842c-1.75-1.0449-3.0713-1.124-4.8096-0.0947
			c-12.1807,7.2109-24.4102,14.3398-36.6113,21.5127c-0.6963,0.4092-1.2959,0.9814-1.9414,1.4775
			c-2.4014,0.54-2.7295,0.3096-2.3535-1.8525c0.8262-4.7646,1.7266-9.5176,2.541-14.2852c0.1738-1.0176,0.1113-2.0752,0.1582-3.1152
			c-0.0166-7.1211,1.7852-14.001,2.8301-20.9795c0.5742-3.835,1.4893-7.6289-2.3145-10.4756
			c-0.4453-0.333-0.5156-1.0205-0.54-1.6143c-8.7383-8.0615-17.4785-16.123-26.2129-24.1885
			c-0.4414-0.4082-0.9238-0.7051-1.5186-0.8018C388.7188,497.998,388.5635,497.0342,389.3174,496.165z"/>
		<path fill="#D5CDD2" d="M380.1963,472.8291c2.8809-1.1416,5.751-1.1064,8.6123,0.0811c2.9639,2.2139,4.5938,4.9961,4.2383,8.8682
			c-0.2656,2.917-2.0078,4.7881-3.958,6.6123c-3.7939,1.5146-7.4121,1.3457-10.79-1.1191c-2.0361-2.5635-3.168-5.3447-2.3711-8.7129
			C376.5332,476,378.25,474.3477,380.1963,472.8291z"/>
		<path fill="#920095" d="M423.1504,750.5391c9.7285,0.0078,17.4414,7.6221,17.4805,17.2539
			c0.0381,9.7197-7.9072,17.7061-17.5771,17.667c-9.7139-0.04-17.5693-8.0205-17.4795-17.7588
			C405.6641,758.0771,413.3916,750.5303,423.1504,750.5391z"/>
		<path fill="#DD00E8" d="M496.2354,58.2725c0.4297,4.0186-3.6963,8.5547-8.9063,8.3618c-5.4824-0.2026-8.626-4.1133-8.6621-8.7007
			c-0.0371-4.7695,4.248-8.9365,9.1719-8.5938C492.2305,49.6465,496.3516,52.6826,496.2354,58.2725z"/>
		<path fill="#DD00E8" d="M424.4023,49.1865c4.6943-0.0278,8.4922,3.6436,8.5732,8.2891c0.0869,4.9219-3.5537,9.063-8.2979,9.0005
			c-5.6406-0.0737-8.917-4.5981-8.7295-8.5518C416.1914,52.7974,419.4219,49.2168,424.4023,49.1865z"/>
		<path fill="#E5AECD" d="M497.6787,556.6084c-1.2969-7.4346-2.5928-14.8691-3.8906-22.3037
			c-0.1201-0.6865-0.1826-1.3926-0.3926-2.0508c-0.6914-2.1611-0.1299-3.8389,1.752-5.123c0.4688-0.3203,0.8105-0.8271,1.21-1.2471
			c0.7129-0.3701,1.4258-0.7412,2.1367-1.1113c0.1055,0.0508,0.2217,0.0859,0.3096,0.1572c0.0791,0.0645,0.1787,0.168,0.1787,0.2539
			c0.0078,11.1494,0.0078,22.2979,0.0078,33.6445C498.0068,558.3184,498.4873,557.043,497.6787,556.6084z"/>
		<path fill="#AF3E95" d="M497.6143,491.2813c-1.6533-0.1084-3.416,0.542-4.9004-0.7168
			C494.375,490.6152,496.1025,490.21,497.6143,491.2813z"/>
		<path fill="#E5A8C8" d="M416.7529,523.9688c5.1631,4.7295,5.1045,4.7197,3.8975,11.5186
			c-1.1377,6.3994-2.1426,12.8223-3.1855,19.2383c-0.1309,0.8076-0.2041,1.6162-0.6875,2.3115
			c-0.4023-1.2295-0.5664-2.4854-0.5684-3.7871c-0.0107-8.6455-0.0645-17.29-0.0781-25.9355
			C416.1289,526.1729,415.8613,524.9551,416.7529,523.9688z"/>
		<path fill="#DD00E8" d="M451.1436,471.9678c4.2021,2.4639,7.2568,4.8262,10.1533,7.3379
			c2.8984,2.5137,5.7617,5.0859,8.2217,8.0889c5.4717,6.6787,8.2285,14.2998,8.3672,22.8994
			c0.0088,0.5576,0.1104,1.1699-0.6084,1.79c-0.9248-0.3467-0.9463-1.4053-1.2676-2.1416
			c-2.0947-4.7949-5.6445-7.9551-10.5898-9.5566c-3.2012-1.0371-6.4268-1.998-9.6279-2.9902
			c-0.1475,0.3477-0.3174,0.5576-0.3115,0.7627c0.1875,6.3223-0.9697,12.5898-0.7432,18.916
			c0.2559,7.1387-0.8896,14.2305-0.751,21.376c0.0811,4.1309-2.4629,7.0625-5.5977,9.2529
			c-4.4775,3.1309-9.4316,5.0342-15.082,4.7988c-5.9814-0.25-9.0742-4.8916-6.7461-10.4219
			c1.3613-3.2344,3.5723-5.665,6.6738-7.3975c4.2793-2.3906,8.9043-3.4463,13.6973-3.9697
			c2.7793-0.3027,2.8691-0.2725,2.8447-3.1104c-0.1299-14.9814,1.1182-29.9355,0.8203-44.918
			C450.5293,479.3125,451.5078,476.0557,451.1436,471.9678z"/>
		<path fill="#96079A" d="M384.2637,473.6992c3.7461,0.002,7.043,3.2324,7.0215,6.8799c-0.0215,3.6699-3.3516,7.0293-6.96,7.0215
			c-3.6943-0.0068-6.9014-3.2441-6.9219-6.9863C377.3809,476.7461,380.4063,473.6973,384.2637,473.6992z"/>
		<path fill="#DD00E8" d="M435.125,767.9756c0.6084,5.6611-5.0371,12.0967-12.0098,12.0625
			c-5.8389-0.0293-12.0879-4.9229-12.0762-12.5029c0.0088-5.6201,5.0488-12.0459,12.1436-11.9814
			C429.3164,755.6094,435.5518,760.6514,435.125,767.9756z"/>
		<path fill="#DC00E7" d="M389.373,480.5469c0.0654,2.7402-2.2842,5.1377-5.0244,5.127c-2.918-0.0117-5.2725-2.2207-5.2783-4.9492
			c-0.0039-2.6523,2.54-5.252,5.1191-5.2305C387.1016,475.5176,389.3037,477.6641,389.373,480.5469z"/>
	</g>
</g>
</svg>
