<?xml version="1.0" encoding="UTF-8" standalone="no"?>
<svg xmlns="http://www.w3.org/2000/svg" xmlns:xlink="http://www.w3.org/1999/xlink" version="1.1" width="47.61771" height="35.78971" viewBox="0,0,47.61771,35.78971"><defs><radialGradient cx="243.5" cy="160" r="21.39585" gradientUnits="userSpaceOnUse" id="color-1"><stop offset="0" stop-color="#ffffff"/><stop offset="1" stop-color="#ff0000"/></radialGradient></defs><g transform="translate(-217.45475,-143.01912)"><g data-paper-data="{&quot;isPaintingLayer&quot;:true}" fill-rule="nonzero" stroke="none" stroke-width="0.5" stroke-linecap="butt" stroke-linejoin="miter" stroke-miterlimit="10" stroke-dasharray="" stroke-dashoffset="0" style="mix-blend-mode: normal"><path d="M225.71204,146.27408c-0.07925,-0.15957 -0.12871,-0.35876 -0.12871,-0.60741c0,-1.25 1.25,-1.25 1.25,-1.25c2.43878,0.01047 4.47577,-0.77442 6.87683,-0.99392c4.33643,-0.39643 9.99873,-0.66614 14.29655,0.006c6.69494,1.04702 12.02943,5.97586 16.17105,10.9015c0.06991,0.38619 0.95519,5.07043 0.89142,5.52402c-0.24409,1.73595 -2.03621,4.36526 -2.76221,5.99113c-0.16457,0.36856 -1.80433,4.58297 -1.94123,4.79913c-2.42011,3.82121 -7.2638,7.11483 -11.66551,7.92266c-5.30896,0.97433 -10.45894,-1.28679 -15.75216,-1.67695c-2.51202,-0.99011 -5.61753,-0.54389 -8.04542,-1.79221c-2.11014,-1.08495 -4.166,-4.17216 -5.18734,-6.20568c-0.17383,-0.3461 -2.03242,-4.04452 -2.09853,-4.27183c-0.40847,-1.40455 0.05174,-3.49737 0.32417,-4.86567c1.04689,-5.25815 3.72966,-9.95497 7.7711,-13.48077zM228.50921,146.87316l-0.50171,0.70563c-3.95725,3.31006 -6.60036,7.6176 -7.61511,12.66635c-0.19606,0.97547 -0.66322,2.77594 -0.3425,3.801c0.41656,1.33138 1.28001,2.47922 1.90147,3.72817c0.79257,1.59284 2.49088,4.29763 4.14599,5.12766c2.18249,1.0945 5.10103,0.66447 7.39694,1.54867c4.97793,0.32008 9.83265,2.54302 14.80548,1.64883c6.24219,-1.12244 9.37408,-6.00403 11.72659,-11.27821c0.62367,-1.39824 2.35277,-3.83164 2.57112,-5.3422c0.19756,-1.36666 -0.48944,-2.71868 -0.68255,-4.08597c-3.75238,-4.12675 -8.40606,-8.60692 -14.25498,-9.48851c-6.41853,-0.96745 -12.8313,0.67502 -19.15075,0.96858z" fill="#000000"/><path d="M247.67945,145.85854c5.84892,0.8816 10.53138,5.39479 14.28376,9.52153c0.19311,1.36729 0.88171,2.72887 0.68416,4.09553c-0.21836,1.51056 -1.94836,3.95752 -2.57204,5.35576c-2.35251,5.27418 -5.51236,10.19105 -11.75455,11.31348c-4.97283,0.89419 -9.87356,-1.33083 -14.85149,-1.6509c-2.29591,-0.88419 -5.22875,-0.46655 -7.41124,-1.56106c-1.65511,-0.83003 -3.36127,-3.5491 -4.15384,-5.14194c-0.62146,-1.24895 -1.48723,-2.40622 -1.9038,-3.7376c-0.32072,-1.02506 0.14595,-2.83443 0.34201,-3.8099c1.01475,-5.04875 3.6726,-9.39008 7.62986,-12.70014l0.50334,-0.70717c6.31945,-0.29356 12.7853,-1.94504 19.20384,-0.97759z" data-paper-data="{&quot;noHover&quot;:false,&quot;origItem&quot;:[&quot;Path&quot;,{&quot;applyMatrix&quot;:true,&quot;segments&quot;:[[[228.50921,146.87316],[6.31945,-0.29356],[0,0]],[[228.0075,147.57879],[0,0],[-3.95725,3.31006]],[[220.39239,160.24515],[1.01475,-5.04875],[-0.19606,0.97547]],[[220.04989,164.04614],[-0.32072,-1.02506],[0.41656,1.33138]],[[221.95137,167.77432],[-0.62146,-1.24895],[0.79257,1.59284]],[[226.09736,172.90197],[-1.65511,-0.83003],[2.18249,1.0945]],[[233.4943,174.45064],[-2.29591,-0.88419],[4.97793,0.32008]],[[248.29977,176.09947],[-4.97283,0.89419],[6.24219,-1.12244]],[[260.02637,164.82126],[-2.35251,5.27418],[0.62367,-1.39824]],[[262.59749,159.47906],[-0.21836,1.51056],[0.19756,-1.36666]],[[261.91494,155.3931],[0.19311,1.36729],[-3.75238,-4.12675]],[[247.65996,145.90458],[5.84892,0.8816],[-6.41853,-0.96745]]],&quot;closed&quot;:true}]}" fill="url(#color-1)"/></g></g></svg>
