<?xml version="1.0" encoding="UTF-8"?>
<svg enable-background="new 0 0 800 800" version="1.1" viewBox="0 0 100 100" xmlns="http://www.w3.org/2000/svg"><g stroke-width=".80876"><path d="m2.4362 97.912c19.536 1.0068 17.805-3.4121 30.155-20.323 3.8883-4.3965 9.9675-9.5155 16.873-12.597 3.9379-6.3114 4.0265-15.563 4.0265-15.563l-4.2087-4.3263-14.224 2.1752s-12.662 7.0776-32.685 11.115z" fill="#d91b39"/><path d="m48.269 41.544c-10.761 4.5949-18.5 7.4142-28.212 15.002 9.6414-4.8837 22.445-8.959 32.102-8.7283-12.935 3.3841-19.846 7.5369-29.813 20.303 1.8896-1.435 3.7537-2.9577 5.6815-4.3023 2.7167-1.7848 5.4143-3.4644 8.2289-4.9686 4.3334-2.3164 8.9405-2.8424 13.557-2.9504-0.57269 0.28978-1.1447 0.57955-1.7131 0.88409-4.0017 2.1456-7.8015 4.8053-11.386 7.9578-6.4647 5.6829-11.916 12.923-17.129 20.415 5.8552-5.9515 12.267-11.078 19.137-14.92 3.7402-2.141 7.5824-4.3402 11.576-5.4984 3.2044-0.92931 9.2126-2.3773 12.492-2.5572 10.499-0.57678 24.691 2.9734 29.356 13.148 1.0029-6.2071-1.7138-16.012-1.7138-16.128 0-0.11536-10.13-11.766-10.13-11.766l-17.011-12.805-6.8808-6.8448c7.1e-4 -0.0019 1.0575 9.8302-8.1424 13.759z" fill="#e77a22"/><path d="m73.679 38.941c7.5371 3.134 21.639 8.1377 23.67 15.814 1.2106 4.5755 0.72435 12.594-1.3885 15.814-3.575-10.121-20.577-25.811-22.282-31.628z" fill="#d91b39"/></g><g transform="matrix(.70877 0 0 .92285 -358.2 -65.931)" fill="#e99e18"><path d="m632.37 124.57c-7.376-6.103-34.628-13.765-43.863-21.807-3.146-2.74-5.827-9.628-7.259-15.027 0.506 2.84 1.169 5.524 2.187 8.229 0.55 1.543 1.325 3.031 2.102 4.47-4.408-5.127-6.7-11.908-7.688-18.488 0.492 5.662 1.945 11.459 4.826 16.424-1.837-2.237-3.303-4.792-4.579-7.379-2.034-4.445-2.688-9.211-2.923-14.042 3e-3 5.004 0.47 9.953 2.41 14.626 1.631 3.924 3.909 7.762 7.059 10.682 3.794 4.566 15.078 9.948 27.497 18.498 13.834 9.523 20.128 22.176 23.9 34.302 9.843-8.929 5.297-23.069-3.669-30.488z"/><ellipse transform="rotate(180.51)" cx="-575.91" cy="-70.549" rx=".85403" ry="2.0621"/><ellipse transform="rotate(180.51)" cx="-578.64" cy="-74.983" rx=".85403" ry="2.0621"/><ellipse transform="rotate(175.84)" cx="-573.52" cy="-128.19" rx=".85403" ry="2.0621"/></g><path d="m82.184 52.48s-5.1421-5.4707-12.036-10.442c4.5829 0.51495 13.258 3.3583 12.036 10.442z" fill="#e8e342" stroke="#d91b39" stroke-miterlimit="10" stroke-width=".80876"/></svg>
