<?xml version="1.0" encoding="UTF-8" standalone="no"?>
<svg
   width="250mm"
   height="250mm"
   version="1.1"
   viewBox="0 0 250 250"
   xml:space="preserve"
   id="svg10"
   sodipodi:docname="favicon.svg"
   inkscape:version="1.2.2 (732a01da63, 2022-12-09)"
   xmlns:inkscape="http://www.inkscape.org/namespaces/inkscape"
   xmlns:sodipodi="http://sodipodi.sourceforge.net/DTD/sodipodi-0.dtd"
   xmlns="http://www.w3.org/2000/svg"
   xmlns:svg="http://www.w3.org/2000/svg"><defs
     id="defs14" /><sodipodi:namedview
     id="namedview12"
     pagecolor="#ffffff"
     bordercolor="#666666"
     borderopacity="1.0"
     inkscape:showpageshadow="2"
     inkscape:pageopacity="0.0"
     inkscape:pagecheckerboard="0"
     inkscape:deskcolor="#d1d1d1"
     inkscape:document-units="mm"
     showgrid="false"
     inkscape:zoom="0.46847003"
     inkscape:cx="662.79587"
     inkscape:cy="691.61308"
     inkscape:window-width="2048"
     inkscape:window-height="1403"
     inkscape:window-x="1966"
     inkscape:window-y="0"
     inkscape:window-maximized="0"
     inkscape:current-layer="svg10" /><path
     id="circle4"
     style="fill:#b189d7;stroke-width:1.0041"
     d="M 43.466348 113.64503 A 112.33 112.33 0 0 1 40.650026 88.648915 A 112.33 112.33 0 0 1 40.918168 81.481475 A 81.915001 81.915001 0 0 0 121.44996 148.71379 A 81.915001 81.915001 0 0 0 203.36481 66.799192 A 81.915001 81.915001 0 0 0 121.45008 -15.116154 A 81.915001 81.915001 0 0 0 107.06707 -13.789539 A 112.33 112.33 0 0 1 152.97993 -23.681174 A 112.33 112.33 0 0 1 265.31002 88.648731 A 112.33 112.33 0 0 1 152.98012 200.97882 A 112.33 112.33 0 0 1 43.466348 113.64503 z "
     transform="matrix(.25882 .96593 .96593 -.25882 0 0)" /><path
     d="m120.78 137.49c-13.186 22.457-39.753 18.697-46.615-10.102-3.3594-14.101 17.903-33.046 13.75-51.609-2.9261-13.079 16.12-43.432 15.115-40.727-5.9218 15.937-6.5312 30.238 1.25 42.264 16.946 26.186 24.595 46.387 16.499 60.175z"
     style="fill:#b189d7;stroke-linecap:round;stroke-linejoin:round;stroke-width:2.0644"
     id="path8" /></svg>
